<svg id="eZKD20wx5fr1" xmlns="http://www.w3.org/2000/svg" xmlns:xlink="http://www.w3.org/1999/xlink" viewBox="0 0 40 20" shape-rendering="geometricPrecision" text-rendering="geometricPrecision"><g transform="translate(-24.828125-4.317382)"><g clip-path="url(#eZKD20wx5fr6)"><g><path d="M56.699219,11.089844c1.484375.652344,2.347656,1.433594,2.347656,2.273437c0,2.121094-5.5,3.871094-12.585937,4.105469l2.386718,1.414062-2.011718,1.1875c8.875-.289062,15.773437-2.476562,15.773437-5.132812c0-1.53125-2.28125-2.902344-5.910156-3.847656" fill="#f4f4f4"/></g><clipPath id="eZKD20wx5fr6"><path d="M46,11.089844h16.613281v9.910156L46,21v-9.910156Zm0,0"/></clipPath></g><g clip-path="url(#eZKD20wx5fr11)"><g><path d="M44.726562,17.496094l-1.105468-.652344-1.78125-1.054688.460937,1.644532c-6.648437-.347656-11.695312-2.039063-11.695312-4.070313c0-.839843.867187-1.621093,2.347656-2.273437-3.625.945312-5.90625,2.316406-5.90625,3.847656c0,2.613281,6.671875,4.773438,15.332031,5.117188l-.539062,1.921874l1.78125-1.054687L45,20.105469l2.066406-1.222657-2.339844-1.386718" fill="#f4f4f4"/></g><clipPath id="eZKD20wx5fr11" transform="translate(.000001 0)"><path d="M27.046875,11.089844h20.953125v10.886718h-20.953125v-10.886718Zm0,0" transform="translate(.000001 0)"/></clipPath></g><g><g transform="translate(39.1951 12.4707)"><g transform="translate(.000001 0)"><path d="M0.59375,-3.40625v-.71875c.007812-.507812.128906-.914062.359375-1.21875.238281-.3125.566406-.46875.984375-.46875.175781,0,.34375.027344.5.078125.164062.054687.285156.105469.359375.15625L2.90625,-5.5l-.421875.828125c-.105469-.0625-.21875-.09375-.34375-.09375-.148437,0-.246094.054687-.296875.15625-.054688.09375-.078125.265625-.078125.515625v.6875h.796875v.890625h-.796875v2.515625L0.59375,0v-2.515625h-.484375v-.890625h.484375Zm0,0" transform="translate(.000001 0)" fill="#fff"/></g></g></g><g><g transform="translate(41.8827 12.4707)"><g><path d="M0.40625,0v-5.71875h1.171875v5.71875L0.40625,0Zm0,0" fill="#fff"/></g></g></g><g><g transform="translate(44.0527 12.4707)"><g transform="translate(.000001 0.000001)"><path d="M0.515625,-5.296875c.132813-.144531.296875-.21875.484375-.21875s.347656.074219.484375.21875c.144531.136719.21875.296875.21875.484375s-.074219.351562-.21875.484375C1.347656,-4.191406,1.1875,-4.125,1,-4.125s-.351562-.066406-.484375-.203125C0.378906,-4.460938,0.3125,-4.625,0.3125,-4.8125s.066406-.347656.203125-.484375ZM0.40625,-3.40625v3.40625h1.171875v-3.40625h-1.171875Zm0,0" transform="translate(.000001 0.000001)" fill="#fff"/></g></g></g><g><g transform="translate(46.2559 12.4707)"><g transform="translate(0 0.000001)"><path d="M3.90625,-2.984375c.320312.34375.484375.773437.484375,1.28125c0,.5-.164063.929687-.484375,1.28125-.324219.34375-.730469.515625-1.21875.515625-.449219,0-.820312-.140625-1.109375-.421875v2.0625h-1.171875v-5.140625h1.15625v.390625h.015625C1.867188,-3.335938,2.238281,-3.5,2.6875,-3.5c.488281,0,.894531.171875,1.21875.515625Zm-1,1.859375c.15625-.15625.234375-.347656.234375-.578125c0-.238281-.074219-.429687-.21875-.578125C2.773438,-2.425781,2.582031,-2.5,2.34375,-2.5c-.230469,0-.421875.078125-.578125.234375-.148437.148437-.21875.335937-.21875.5625c0,.230469.070313.421875.21875.578125.15625.148438.347656.21875.578125.21875.21875,0,.40625-.070312.5625-.21875Zm0,0" transform="translate(0 0.000001)" fill="#fff"/></g></g></g></g></svg>
