<svg xmlns="http://www.w3.org/2000/svg" xmlns:xlink="http://www.w3.org/1999/xlink" width="150" zoomAndPan="magnify" viewBox="0 0 112.5 41.25" height="55" preserveAspectRatio="xMidYMid meet" version="1.0"><defs><g/><clipPath id="80d32cd5b5"><path d="M 0.757812 20 L 37 20 L 37 40.511719 L 0.757812 40.511719 Z M 0.757812 20 " clip-rule="nonzero"/></clipPath><clipPath id="580db075d9"><path d="M 19 20 L 57 20 L 57 40.511719 L 19 40.511719 Z M 19 20 " clip-rule="nonzero"/></clipPath><clipPath id="1aef374438"><path d="M 5.851562 12.988281 L 11.105469 12.988281 L 11.105469 27.003906 L 5.851562 27.003906 Z M 5.851562 12.988281 " clip-rule="nonzero"/></clipPath><clipPath id="6fdc380a1d"><path d="M 8.480469 12.988281 C 9.929688 12.988281 11.105469 14.164062 11.105469 15.613281 L 11.105469 24.375 C 11.105469 25.828125 9.929688 27.003906 8.480469 27.003906 C 7.027344 27.003906 5.851562 25.828125 5.851562 24.375 L 5.851562 15.613281 C 5.851562 14.164062 7.027344 12.988281 8.480469 12.988281 Z M 8.480469 12.988281 " clip-rule="nonzero"/></clipPath><clipPath id="bf501a983d"><path d="M 44.605469 12.988281 L 49.859375 12.988281 L 49.859375 27.003906 L 44.605469 27.003906 Z M 44.605469 12.988281 " clip-rule="nonzero"/></clipPath><clipPath id="c723dc6e60"><path d="M 47.234375 12.988281 C 48.683594 12.988281 49.859375 14.164062 49.859375 15.613281 L 49.859375 24.375 C 49.859375 25.828125 48.683594 27.003906 47.234375 27.003906 C 45.785156 27.003906 44.605469 25.828125 44.605469 24.375 L 44.605469 15.613281 C 44.605469 14.164062 45.785156 12.988281 47.234375 12.988281 Z M 47.234375 12.988281 " clip-rule="nonzero"/></clipPath><clipPath id="31d1a3e781"><path d="M 6.441406 18.253906 L 49.308594 18.253906 L 49.308594 23.066406 L 6.441406 23.066406 Z M 6.441406 18.253906 " clip-rule="nonzero"/></clipPath><clipPath id="6ee8828b01"><path d="M 8.847656 18.253906 L 46.902344 18.253906 C 47.539062 18.253906 48.152344 18.507812 48.605469 18.960938 C 49.054688 19.410156 49.308594 20.023438 49.308594 20.660156 C 49.308594 21.300781 49.054688 21.910156 48.605469 22.363281 C 48.152344 22.8125 47.539062 23.066406 46.902344 23.066406 L 8.847656 23.066406 C 8.210938 23.066406 7.597656 22.8125 7.148438 22.363281 C 6.695312 21.910156 6.441406 21.300781 6.441406 20.660156 C 6.441406 20.023438 6.695312 19.410156 7.148438 18.960938 C 7.597656 18.507812 8.210938 18.253906 8.847656 18.253906 Z M 8.847656 18.253906 " clip-rule="nonzero"/></clipPath><clipPath id="e3b990922e"><path d="M 6 20 L 33 20 L 33 40.511719 L 6 40.511719 Z M 6 20 " clip-rule="nonzero"/></clipPath><clipPath id="6d24b2a5fe"><path d="M 23 20 L 50 20 L 50 40.511719 L 23 40.511719 Z M 23 20 " clip-rule="nonzero"/></clipPath><clipPath id="b3dc04fb0c"><path d="M 16 10 L 23 10 L 23 12 L 16 12 Z M 16 10 " clip-rule="nonzero"/></clipPath><clipPath id="97e8ad7f7d"><path d="M 16.234375 11.75 L 19.359375 8.625 L 22.484375 11.75 L 19.359375 14.875 Z M 16.234375 11.75 " clip-rule="nonzero"/></clipPath><clipPath id="61030eed84"><path d="M 16.234375 11.75 L 19.359375 8.625 L 22.484375 11.75 L 19.359375 14.875 Z M 16.234375 11.75 " clip-rule="nonzero"/></clipPath><clipPath id="da2bd23f56"><path d="M 16.234375 11.75 L 19.359375 8.625 L 22.484375 11.75 L 19.359375 14.875 Z M 16.234375 11.75 " clip-rule="nonzero"/></clipPath><clipPath id="d1af677d9c"><path d="M 33 10 L 40 10 L 40 12 L 33 12 Z M 33 10 " clip-rule="nonzero"/></clipPath><clipPath id="b916a23988"><path d="M 33.621094 11.75 L 36.746094 8.625 L 39.871094 11.75 L 36.746094 14.875 Z M 33.621094 11.75 " clip-rule="nonzero"/></clipPath><clipPath id="b34ed2f873"><path d="M 33.621094 11.75 L 36.746094 8.625 L 39.871094 11.75 L 36.746094 14.875 Z M 33.621094 11.75 " clip-rule="nonzero"/></clipPath><clipPath id="a24fa4ec73"><path d="M 33.621094 11.75 L 36.746094 8.625 L 39.871094 11.75 L 36.746094 14.875 Z M 33.621094 11.75 " clip-rule="nonzero"/></clipPath><clipPath id="b9925fced4"><path d="M 32.242188 8.574219 L 40.773438 8.574219 L 40.773438 12.941406 L 32.242188 12.941406 Z M 32.242188 8.574219 " clip-rule="nonzero"/></clipPath><clipPath id="c332a5372e"><path d="M 32.269531 11.425781 C 35.214844 8.835938 37.082031 8.597656 38.164062 9.019531 C 39.1875 9.378906 40.449219 10.824219 40.632812 11.546875 C 40.75 11.964844 40.511719 12.566406 40.210938 12.75 C 39.910156 12.929688 38.886719 12.6875 38.765625 12.386719 C 38.644531 12.085938 39.246094 10.882812 39.546875 10.824219 C 39.847656 10.761719 40.75 11.726562 40.691406 12.085938 C 40.691406 12.386719 40.089844 12.867188 39.667969 12.867188 C 39.066406 12.867188 38.40625 11.363281 37.625 11.0625 C 36.78125 10.761719 35.578125 10.703125 34.796875 11.003906 C 34.011719 11.304688 33.351562 12.867188 32.929688 12.808594 C 32.570312 12.75 32.269531 11.425781 32.269531 11.425781 " clip-rule="nonzero"/></clipPath><clipPath id="326d84e5eb"><path d="M 32.550781 9.679688 L 35.535156 9.679688 L 35.535156 13 L 32.550781 13 Z M 32.550781 9.679688 " clip-rule="nonzero"/></clipPath><clipPath id="af03967e84"><path d="M 32.628906 11.546875 C 34.734375 9.679688 35.335938 9.980469 35.398438 10.28125 C 35.457031 10.582031 34.855469 11.605469 34.554688 11.605469 C 34.253906 11.605469 33.59375 10.644531 33.652344 10.34375 C 33.710938 10.042969 34.3125 9.742188 34.613281 9.742188 C 34.914062 9.742188 35.398438 10.101562 35.457031 10.460938 C 35.515625 11.003906 34.253906 12.75 33.710938 12.929688 C 33.410156 13.050781 32.929688 12.867188 32.75 12.628906 C 32.570312 12.386719 32.628906 11.546875 32.628906 11.546875 " clip-rule="nonzero"/></clipPath><clipPath id="5e205738f1"><path d="M 30.746094 6 L 41.195312 6 L 41.195312 11.628906 L 30.746094 11.628906 Z M 30.746094 6 " clip-rule="nonzero"/></clipPath><clipPath id="9ab4631a94"><path d="M 33.230469 7.152344 C 32.628906 11.304688 32.148438 11.546875 31.847656 11.484375 C 31.546875 11.425781 31.066406 10.945312 31.003906 10.460938 C 30.886719 9.558594 32.269531 6.429688 32.992188 6.128906 C 33.410156 5.949219 34.074219 6.3125 34.253906 6.671875 C 34.496094 7.03125 34.195312 7.816406 34.132812 8.417969 C 34.074219 9.136719 34.132812 10.160156 33.773438 10.644531 C 33.472656 11.0625 32.507812 11.484375 32.207031 11.363281 C 31.90625 11.246094 31.667969 10.460938 31.789062 10.042969 C 31.90625 9.4375 32.929688 8.417969 33.652344 8.175781 C 34.433594 7.933594 35.9375 8.117188 36.300781 8.535156 C 36.539062 8.835938 36.421875 9.621094 36.179688 9.921875 C 35.9375 10.160156 35.277344 10.34375 34.914062 10.222656 C 34.554688 10.101562 33.953125 9.621094 33.894531 9.257812 C 33.832031 8.898438 34.195312 8.417969 34.675781 8.117188 C 35.636719 7.574219 39.488281 7.332031 40.390625 7.816406 C 40.8125 8.054688 41.050781 8.535156 41.050781 8.898438 C 41.050781 9.257812 40.511719 9.859375 40.210938 9.859375 C 39.847656 9.859375 38.945312 9.019531 38.945312 8.65625 C 38.945312 8.296875 39.910156 7.695312 40.269531 7.753906 C 40.632812 7.816406 41.171875 8.777344 41.050781 9.136719 C 40.8125 9.679688 38.886719 10.042969 37.804688 10.222656 C 36.839844 10.402344 35.578125 10.523438 34.914062 10.222656 C 34.433594 10.042969 33.953125 9.621094 33.894531 9.257812 C 33.832031 8.898438 34.3125 8.296875 34.675781 8.117188 C 35.035156 7.933594 35.9375 8.054688 36.179688 8.355469 C 36.421875 8.65625 36.480469 9.5 36.179688 9.921875 C 35.699219 10.644531 32.871094 11.605469 32.207031 11.363281 C 31.847656 11.246094 31.726562 10.945312 31.667969 10.523438 C 31.546875 9.621094 32.390625 6.492188 32.992188 6.128906 C 33.292969 5.949219 33.710938 6.128906 33.953125 6.3125 C 34.195312 6.550781 34.3125 6.972656 34.3125 7.453125 C 34.253906 8.296875 33.410156 10.34375 32.871094 10.945312 C 32.570312 11.304688 32.148438 11.546875 31.847656 11.484375 C 31.546875 11.425781 31.125 10.945312 31.003906 10.460938 C 30.765625 9.679688 30.945312 7.574219 31.425781 6.914062 C 31.726562 6.492188 32.328125 6.191406 32.628906 6.25 C 32.929688 6.3125 33.230469 7.152344 33.230469 7.152344 " clip-rule="nonzero"/></clipPath><clipPath id="64bc9403a5"><path d="M 38.144531 6.304688 L 41.980469 6.304688 L 41.980469 19.320312 L 38.144531 19.320312 Z M 38.144531 6.304688 " clip-rule="nonzero"/></clipPath><clipPath id="263dc37b05"><path d="M 41.113281 7.273438 C 40.8125 9.320312 40.332031 9.621094 39.96875 9.679688 C 39.667969 9.742188 39.246094 9.742188 39.007812 9.5 C 38.644531 9.136719 38.164062 7.753906 38.34375 7.214844 C 38.464844 6.792969 39.128906 6.429688 39.488281 6.429688 C 39.789062 6.429688 40.03125 6.671875 40.269531 6.972656 C 40.8125 7.632812 41.535156 9.257812 41.714844 10.761719 C 41.957031 12.867188 41.65625 17.621094 40.75 18.644531 C 40.332031 19.066406 39.546875 19.1875 39.246094 19.003906 C 38.945312 18.824219 38.765625 18.164062 38.828125 17.800781 C 38.886719 17.5 39.246094 17.140625 39.546875 17.082031 C 39.910156 17.019531 40.570312 17.261719 40.75 17.5625 C 40.933594 17.863281 40.8125 18.585938 40.632812 18.824219 C 40.449219 19.066406 39.96875 19.304688 39.667969 19.1875 C 39.308594 19.066406 38.945312 18.585938 38.828125 17.921875 C 38.527344 16.539062 39.96875 12.6875 39.730469 10.761719 C 39.546875 9.378906 38.164062 7.875 38.40625 7.214844 C 38.585938 6.792969 39.429688 6.371094 39.730469 6.492188 C 40.03125 6.613281 40.390625 8.054688 40.269531 8.117188 C 40.148438 8.175781 39.246094 7.574219 39.246094 7.273438 C 39.246094 6.972656 40.03125 6.371094 40.332031 6.371094 C 40.632812 6.371094 41.113281 7.273438 41.113281 7.273438 " clip-rule="nonzero"/></clipPath><clipPath id="b0ed5e2e89"><path d="M 31.179688 10.152344 L 34.394531 10.152344 L 34.394531 17.449219 L 31.179688 17.449219 Z M 31.179688 10.152344 " clip-rule="nonzero"/></clipPath><clipPath id="5037ea0147"><path d="M 33.472656 11.246094 C 33.59375 16.898438 33.050781 17.382812 32.691406 17.382812 C 32.390625 17.382812 32.027344 17.019531 31.847656 16.597656 C 31.546875 15.816406 31.789062 13.410156 32.207031 12.6875 C 32.449219 12.265625 32.871094 11.964844 33.230469 11.964844 C 33.53125 11.964844 34.195312 12.449219 34.195312 12.75 C 34.195312 13.109375 33.410156 13.890625 33.050781 13.953125 C 32.75 13.953125 32.390625 13.652344 32.269531 13.410156 C 32.148438 13.167969 32.207031 12.6875 32.328125 12.449219 C 32.449219 12.207031 32.808594 11.964844 33.109375 11.964844 C 33.410156 11.964844 33.832031 12.085938 34.011719 12.386719 C 34.375 12.867188 34.3125 14.433594 34.195312 15.214844 C 34.132812 15.816406 34.074219 16.539062 33.710938 16.839844 C 33.410156 17.140625 32.628906 17.441406 32.269531 17.199219 C 31.546875 16.660156 31.1875 11.847656 31.667969 10.882812 C 31.90625 10.460938 32.449219 10.160156 32.75 10.222656 C 33.050781 10.28125 33.472656 11.246094 33.472656 11.246094 " clip-rule="nonzero"/></clipPath><clipPath id="9690813b99"><path d="M 31.621094 12.921875 L 39.511719 12.921875 L 39.511719 19.21875 L 31.621094 19.21875 Z M 31.621094 12.921875 " clip-rule="nonzero"/></clipPath><clipPath id="07ad134a7a"><path d="M 34.132812 13.890625 C 33.710938 19.003906 32.808594 19.066406 32.449219 18.824219 C 31.96875 18.523438 31.667969 16.898438 31.847656 16.296875 C 31.96875 15.878906 32.507812 15.457031 32.808594 15.394531 C 33.109375 15.335938 33.472656 15.578125 33.652344 15.816406 C 33.894531 16.117188 33.59375 17.019531 33.894531 17.199219 C 34.375 17.5 36.238281 16.238281 36.839844 16.480469 C 37.203125 16.597656 37.5625 17.140625 37.5625 17.441406 C 37.5625 17.742188 37.324219 18.222656 36.960938 18.402344 C 36.300781 18.765625 34.132812 18.585938 33.472656 18.285156 C 33.109375 18.101562 32.871094 17.863281 32.808594 17.5625 C 32.691406 17.199219 32.929688 16.417969 33.171875 16.117188 C 33.351562 15.878906 33.652344 15.816406 34.074219 15.757812 C 34.914062 15.578125 37.382812 15.515625 38.164062 15.757812 C 38.527344 15.878906 38.707031 15.9375 38.828125 16.179688 C 38.945312 16.480469 38.945312 17.261719 38.644531 17.5625 C 38.285156 17.921875 37.082031 18.042969 36.539062 17.921875 C 36.121094 17.800781 35.636719 17.5 35.578125 17.199219 C 35.515625 16.839844 35.878906 16.058594 36.300781 15.816406 C 36.839844 15.515625 38.226562 15.878906 38.765625 16.179688 C 39.128906 16.359375 39.367188 16.597656 39.429688 16.898438 C 39.488281 17.199219 39.429688 17.683594 39.1875 17.863281 C 38.945312 18.101562 38.226562 18.222656 37.925781 18.101562 C 37.625 17.984375 37.261719 17.5625 37.324219 17.261719 C 37.382812 16.898438 38.285156 16.117188 38.644531 16.117188 C 38.945312 16.117188 39.308594 16.480469 39.367188 16.78125 C 39.429688 17.082031 39.308594 17.742188 39.007812 17.984375 C 38.527344 18.34375 36.601562 18.222656 36.058594 17.800781 C 35.699219 17.5 35.457031 16.839844 35.578125 16.480469 C 35.699219 16.117188 36.480469 15.816406 36.960938 15.757812 C 37.503906 15.695312 38.585938 15.816406 38.828125 16.179688 C 39.066406 16.480469 38.945312 17.261719 38.644531 17.5625 C 38.164062 17.984375 36.359375 17.921875 35.636719 17.800781 C 35.15625 17.683594 34.675781 17.5 34.554688 17.261719 C 34.433594 17.019531 34.613281 16.539062 34.855469 16.359375 C 35.214844 16.117188 36.660156 16.296875 37.082031 16.597656 C 37.382812 16.839844 37.625 17.382812 37.5625 17.683594 C 37.503906 17.984375 37.324219 18.285156 36.960938 18.464844 C 36.179688 18.824219 33.050781 19.003906 32.269531 18.402344 C 31.789062 17.984375 31.667969 16.839844 31.847656 16.296875 C 31.96875 15.878906 32.507812 15.457031 32.808594 15.394531 C 33.109375 15.335938 33.410156 15.515625 33.652344 15.816406 C 34.011719 16.238281 34.3125 17.5625 34.195312 18.164062 C 34.132812 18.585938 33.832031 18.945312 33.53125 19.066406 C 33.230469 19.1875 32.691406 19.125 32.449219 18.824219 C 31.90625 18.164062 31.847656 14.613281 32.269531 13.710938 C 32.507812 13.289062 32.992188 12.929688 33.292969 12.988281 C 33.59375 13.050781 34.132812 13.890625 34.132812 13.890625 " clip-rule="nonzero"/></clipPath><clipPath id="6d02fc21a0"><path d="M 15.527344 7.847656 L 24.554688 7.847656 L 24.554688 12.65625 L 15.527344 12.65625 Z M 15.527344 7.847656 " clip-rule="nonzero"/></clipPath><clipPath id="e6d71e15d2"><path d="M 15.542969 10.761719 C 17.828125 8.234375 19.753906 7.875 20.898438 7.996094 C 21.800781 8.117188 22.640625 8.417969 23.183594 9.019531 C 23.785156 9.621094 24.507812 11.125 24.328125 11.726562 C 24.207031 12.148438 23.304688 12.628906 23.003906 12.507812 C 22.703125 12.386719 22.339844 11.246094 22.460938 10.882812 C 22.582031 10.644531 23.0625 10.460938 23.363281 10.460938 C 23.664062 10.460938 24.085938 10.703125 24.207031 10.945312 C 24.328125 11.246094 24.265625 11.964844 24.027344 12.207031 C 23.84375 12.449219 23.425781 12.628906 23.125 12.507812 C 22.582031 12.328125 22.160156 10.460938 21.378906 10.101562 C 20.535156 9.742188 19.09375 9.921875 18.25 10.28125 C 17.527344 10.582031 16.988281 12.027344 16.503906 11.964844 C 16.144531 11.964844 15.542969 10.761719 15.542969 10.761719 " clip-rule="nonzero"/></clipPath><clipPath id="f6800217d7"><path d="M 16.679688 8.21875 L 22.890625 8.21875 L 22.890625 11.878906 L 16.679688 11.878906 Z M 16.679688 8.21875 " clip-rule="nonzero"/></clipPath><clipPath id="d38c607fb1"><path d="M 21.078125 11.246094 C 19.09375 10.101562 17.949219 10.644531 17.40625 10.460938 C 17.105469 10.34375 16.804688 10.101562 16.746094 9.800781 C 16.6875 9.5 16.867188 8.777344 17.167969 8.65625 C 17.46875 8.535156 18.609375 9.019531 18.671875 9.320312 C 18.730469 9.621094 17.828125 10.523438 17.527344 10.460938 C 17.226562 10.402344 16.6875 9.257812 16.867188 8.957031 C 17.167969 8.417969 20.175781 8.234375 21.199219 8.777344 C 22.039062 9.199219 22.882812 10.644531 22.824219 11.183594 C 22.761719 11.484375 22.28125 11.847656 21.980469 11.847656 C 21.679688 11.847656 21.078125 11.246094 21.078125 11.246094 " clip-rule="nonzero"/></clipPath><clipPath id="4f814b0f9d"><path d="M 16.179688 9.300781 L 18 9.300781 L 18 11.265625 L 16.179688 11.265625 Z M 16.179688 9.300781 " clip-rule="nonzero"/></clipPath><clipPath id="973a6d2b45"><path d="M 17.226562 9.378906 C 18.191406 10.34375 17.707031 11.125 17.40625 11.183594 C 17.105469 11.246094 16.265625 10.402344 16.324219 10.101562 C 16.386719 9.800781 17.46875 9.320312 17.707031 9.5 C 17.949219 9.679688 18.007812 10.824219 17.769531 11.003906 C 17.527344 11.183594 16.324219 10.761719 16.265625 10.460938 C 16.203125 10.222656 17.105469 9.378906 17.105469 9.378906 " clip-rule="nonzero"/></clipPath><clipPath id="3ed368d562"><path d="M 15.722656 9.132812 L 18.5 9.132812 L 18.5 11.851562 L 15.722656 11.851562 Z M 15.722656 9.132812 " clip-rule="nonzero"/></clipPath><clipPath id="39165eb8db"><path d="M 16.085938 10.222656 C 18.128906 9.257812 18.492188 9.800781 18.492188 10.101562 C 18.492188 10.402344 18.128906 10.945312 17.828125 11.003906 C 17.527344 11.0625 16.988281 10.824219 16.804688 10.582031 C 16.625 10.34375 16.6875 9.742188 16.867188 9.5 C 17.046875 9.257812 17.707031 9.136719 18.007812 9.257812 C 18.25 9.378906 18.492188 9.679688 18.492188 9.980469 C 18.429688 10.460938 17.40625 11.664062 16.867188 11.785156 C 16.503906 11.847656 16.023438 11.664062 15.902344 11.425781 C 15.722656 11.183594 16.085938 10.222656 16.085938 10.222656 " clip-rule="nonzero"/></clipPath><clipPath id="67201ca4a2"><path d="M 15.828125 9.0625 L 18.566406 9.0625 L 18.566406 12.527344 L 15.828125 12.527344 Z M 15.828125 9.0625 " clip-rule="nonzero"/></clipPath><clipPath id="e484000317"><path d="M 15.84375 11.183594 C 17.949219 9.136719 18.429688 9.558594 18.492188 9.859375 C 18.550781 10.160156 18.308594 10.703125 18.070312 10.882812 C 17.828125 11.003906 17.40625 11.003906 17.167969 10.882812 C 16.925781 10.703125 16.625 10.160156 16.6875 9.859375 C 16.746094 9.558594 17.226562 9.199219 17.527344 9.136719 C 17.769531 9.078125 18.191406 9.320312 18.371094 9.5 C 18.550781 9.679688 18.550781 10.042969 18.492188 10.34375 C 18.371094 10.882812 17.527344 12.207031 17.046875 12.386719 C 16.746094 12.507812 16.203125 12.386719 16.023438 12.207031 C 15.84375 12.027344 15.84375 11.183594 15.84375 11.183594 " clip-rule="nonzero"/></clipPath><clipPath id="7b53eb656a"><path d="M 16.421875 9.738281 L 18.457031 9.738281 L 18.457031 11.625 L 16.421875 11.625 Z M 16.421875 9.738281 " clip-rule="nonzero"/></clipPath><clipPath id="c7d00fdd34"><path d="M 17.46875 9.742188 C 18.429688 10.703125 18.007812 11.484375 17.707031 11.546875 C 17.40625 11.605469 16.503906 10.824219 16.566406 10.523438 C 16.625 10.222656 17.707031 9.742188 17.949219 9.859375 C 18.191406 9.980469 18.25 11.183594 18.007812 11.363281 C 17.769531 11.546875 16.566406 11.125 16.503906 10.824219 C 16.445312 10.582031 17.347656 9.742188 17.347656 9.742188 " clip-rule="nonzero"/></clipPath><clipPath id="d41f80351a"><path d="M 15.816406 9.058594 L 19.714844 9.058594 L 19.714844 11.984375 L 15.816406 11.984375 Z M 15.816406 9.058594 " clip-rule="nonzero"/></clipPath><clipPath id="ebadb5a39e"><path d="M 16.445312 10.160156 C 18.972656 9.199219 19.632812 9.859375 19.695312 10.160156 C 19.695312 10.402344 19.394531 10.761719 19.152344 10.882812 C 18.851562 11.003906 18.191406 10.945312 18.070312 10.703125 C 17.890625 10.460938 18.128906 9.320312 18.429688 9.199219 C 18.730469 9.078125 19.695312 9.679688 19.695312 10.042969 C 19.695312 10.523438 17.648438 11.964844 16.925781 11.964844 C 16.503906 11.964844 15.964844 11.605469 15.902344 11.304688 C 15.84375 11.003906 16.445312 10.160156 16.445312 10.160156 " clip-rule="nonzero"/></clipPath><clipPath id="128e121454"><path d="M 14.273438 9.105469 L 17 9.105469 L 17 16.765625 L 14.273438 16.765625 Z M 14.273438 9.105469 " clip-rule="nonzero"/></clipPath><clipPath id="7f44170738"><path d="M 14.882812 15.757812 C 14.582031 9.558594 15.183594 9.136719 15.484375 9.199219 C 15.785156 9.257812 16.265625 10.34375 16.144531 10.703125 C 16.085938 10.945312 15.664062 11.183594 15.363281 11.183594 C 15.0625 11.183594 14.460938 10.761719 14.339844 10.460938 C 14.28125 10.160156 14.460938 9.5 14.761719 9.378906 C 15.0625 9.199219 15.785156 9.320312 16.144531 9.679688 C 16.867188 10.460938 17.105469 14.613281 16.746094 15.757812 C 16.566406 16.238281 16.203125 16.71875 15.902344 16.71875 C 15.601562 16.71875 14.882812 15.757812 14.882812 15.757812 " clip-rule="nonzero"/></clipPath><clipPath id="154e9722a6"><path d="M 13.972656 6.195312 L 17.667969 6.195312 L 17.667969 16.710938 L 13.972656 16.710938 Z M 13.972656 6.195312 " clip-rule="nonzero"/></clipPath><clipPath id="dfe14183c2"><path d="M 13.980469 15.636719 C 14.820312 6.730469 15.664062 6.550781 16.085938 6.730469 C 16.566406 6.972656 17.046875 8.777344 16.925781 8.835938 C 16.804688 8.898438 15.421875 7.816406 15.363281 7.332031 C 15.300781 7.03125 15.601562 6.550781 15.84375 6.429688 C 16.144531 6.25 16.867188 6.371094 17.105469 6.550781 C 17.347656 6.730469 17.527344 7.152344 17.46875 7.453125 C 17.40625 7.753906 17.167969 8.117188 16.925781 8.234375 C 16.6875 8.355469 16.144531 8.355469 15.902344 8.234375 C 15.664062 8.117188 15.300781 7.695312 15.363281 7.453125 C 15.421875 7.09375 16.324219 6.25 16.6875 6.3125 C 16.988281 6.371094 17.347656 6.914062 17.46875 7.332031 C 17.648438 7.875 17.589844 8.957031 17.40625 9.4375 C 17.289062 9.800781 16.988281 10.101562 16.6875 10.222656 C 16.386719 10.34375 15.84375 10.34375 15.542969 10.222656 C 15.242188 10.101562 15.0625 9.800781 14.882812 9.4375 C 14.640625 8.898438 14.160156 7.695312 14.398438 7.214844 C 14.582031 6.851562 15.484375 6.492188 15.84375 6.613281 C 16.144531 6.730469 16.265625 7.273438 16.386719 7.875 C 16.625 9.378906 16.503906 15.09375 15.722656 16.117188 C 15.421875 16.539062 14.882812 16.660156 14.582031 16.539062 C 14.28125 16.417969 13.980469 15.636719 13.980469 15.636719 " clip-rule="nonzero"/></clipPath><clipPath id="39536e2ea0"><path d="M 15.332031 6.308594 L 21.710938 6.308594 L 21.710938 9.746094 L 15.332031 9.746094 Z M 15.332031 6.308594 " clip-rule="nonzero"/></clipPath><clipPath id="1f1077b449"><path d="M 17.347656 7.152344 C 17.769531 8.117188 20.234375 7.394531 20.898438 7.695312 C 21.257812 7.875 21.5 8.117188 21.558594 8.417969 C 21.621094 8.71875 21.378906 9.320312 21.136719 9.5 C 20.898438 9.679688 20.417969 9.679688 20.175781 9.558594 C 19.933594 9.4375 19.574219 9.019531 19.632812 8.777344 C 19.695312 8.417969 20.535156 7.632812 20.835938 7.695312 C 21.136719 7.753906 21.679688 8.835938 21.4375 9.199219 C 21.078125 9.742188 17.828125 9.742188 16.925781 9.5 C 16.445312 9.378906 16.203125 9.199219 15.964844 8.898438 C 15.664062 8.476562 15.363281 7.574219 15.484375 7.152344 C 15.542969 6.792969 15.902344 6.429688 16.203125 6.371094 C 16.503906 6.3125 17.347656 7.152344 17.347656 7.152344 " clip-rule="nonzero"/></clipPath><clipPath id="81772cb59b"><path d="M 21.230469 6.359375 L 24.957031 6.359375 L 24.957031 12.355469 L 21.230469 12.355469 Z M 21.230469 6.359375 " clip-rule="nonzero"/></clipPath><clipPath id="92a781dbaa"><path d="M 23.484375 7.273438 C 23.003906 10.042969 22.523438 10.101562 22.222656 10.042969 C 21.980469 9.980469 21.621094 9.679688 21.558594 9.378906 C 21.5 8.777344 22.582031 6.792969 23.183594 6.550781 C 23.542969 6.429688 24.144531 6.613281 24.386719 6.972656 C 24.929688 7.695312 24.929688 11.125 24.386719 11.847656 C 24.144531 12.207031 23.484375 12.328125 23.183594 12.207031 C 22.882812 12.085938 22.460938 11.484375 22.523438 11.125 C 22.582031 10.824219 23.0625 10.28125 23.363281 10.222656 C 23.664062 10.160156 24.085938 10.34375 24.265625 10.523438 C 24.445312 10.703125 24.628906 11.183594 24.566406 11.484375 C 24.445312 11.785156 23.90625 12.265625 23.605469 12.265625 C 23.242188 12.265625 22.761719 11.964844 22.582031 11.546875 C 22.222656 10.824219 22.160156 8.535156 22.640625 7.933594 C 22.941406 7.574219 24.144531 7.453125 24.265625 7.632812 C 24.445312 7.875 23.425781 9.800781 22.882812 9.980469 C 22.460938 10.101562 21.800781 9.800781 21.558594 9.378906 C 21.257812 8.835938 21.4375 7.09375 21.859375 6.671875 C 22.101562 6.371094 22.761719 6.371094 23.0625 6.492188 C 23.304688 6.613281 23.484375 7.273438 23.484375 7.273438 " clip-rule="nonzero"/></clipPath><clipPath id="f066862cbd"><path d="M 14 8.773438 L 15.800781 8.773438 L 15.800781 10.597656 L 14 10.597656 Z M 14 8.773438 " clip-rule="nonzero"/></clipPath><clipPath id="3ff2e8804b"><path d="M 15.785156 9.378906 C 15 10.582031 14.339844 10.34375 14.160156 10.101562 C 13.980469 9.859375 14.097656 9.136719 14.339844 8.957031 C 14.582031 8.777344 15.542969 9.019531 15.542969 9.019531 " clip-rule="nonzero"/></clipPath><clipPath id="2218144816"><path d="M 13.972656 8.339844 L 15.851562 8.339844 L 15.851562 10.359375 L 13.972656 10.359375 Z M 13.972656 8.339844 " clip-rule="nonzero"/></clipPath><clipPath id="24443f6fac"><path d="M 13.980469 9.257812 C 15.242188 8.355469 15.84375 9.078125 15.84375 9.378906 C 15.84375 9.679688 15.363281 10.101562 15.0625 10.160156 C 14.820312 10.222656 14.460938 10.042969 14.28125 9.859375 C 14.097656 9.621094 14.039062 9.019531 14.160156 8.777344 C 14.28125 8.535156 14.640625 8.355469 14.882812 8.355469 C 15.121094 8.355469 15.542969 8.476562 15.664062 8.71875 C 15.84375 8.957031 15.84375 9.621094 15.664062 9.921875 C 15.542969 10.160156 15.183594 10.34375 14.941406 10.34375 C 14.640625 10.34375 13.980469 9.558594 13.980469 9.558594 " clip-rule="nonzero"/></clipPath><clipPath id="7594262766"><path d="M 22.859375 9.917969 L 24.941406 9.917969 L 24.941406 13.355469 L 22.859375 13.355469 Z M 22.859375 9.917969 " clip-rule="nonzero"/></clipPath><clipPath id="46f3e47fe9"><path d="M 24.867188 10.882812 C 24.386719 13.230469 23.484375 13.289062 23.304688 13.050781 C 23.0625 12.808594 23.242188 11.664062 23.484375 11.546875 C 23.726562 11.425781 24.808594 11.964844 24.867188 12.265625 C 24.929688 12.507812 24.566406 13.109375 24.265625 13.230469 C 23.964844 13.351562 23.425781 13.230469 23.183594 12.929688 C 22.882812 12.507812 22.882812 10.703125 23.242188 10.28125 C 23.484375 10.042969 23.964844 9.921875 24.265625 10.042969 C 24.507812 10.160156 24.867188 10.882812 24.867188 10.882812 " clip-rule="nonzero"/></clipPath><clipPath id="d7ca60442b"><path d="M 14.238281 10.386719 L 25.453125 10.386719 L 25.453125 19.792969 L 14.238281 19.792969 Z M 14.238281 10.386719 " clip-rule="nonzero"/></clipPath><clipPath id="8b275c4249"><path d="M 24.085938 11.425781 C 24.328125 19.125 24.207031 19.488281 23.964844 19.546875 C 23.605469 19.667969 22.703125 19.425781 22.402344 18.886719 C 21.800781 17.921875 22.402344 13.890625 23.003906 12.867188 C 23.304688 12.386719 23.84375 12.027344 24.207031 12.085938 C 24.566406 12.148438 24.929688 12.628906 25.109375 13.109375 C 25.410156 13.832031 25.351562 15.394531 25.109375 16.359375 C 24.867188 17.199219 24.445312 18.402344 23.84375 18.644531 C 23.304688 18.824219 22.761719 18.101562 21.921875 17.984375 C 20.355469 17.742188 16.144531 18.585938 15.121094 17.921875 C 14.640625 17.621094 14.339844 16.898438 14.460938 16.539062 C 14.582031 16.238281 15.183594 15.878906 15.542969 15.878906 C 15.84375 15.878906 16.265625 16.179688 16.386719 16.417969 C 16.503906 16.660156 16.503906 17.199219 16.386719 17.441406 C 16.265625 17.683594 15.84375 17.984375 15.542969 17.984375 C 15.242188 17.984375 14.820312 17.863281 14.640625 17.621094 C 14.460938 17.382812 14.28125 16.898438 14.398438 16.597656 C 14.519531 16.296875 14.941406 15.996094 15.484375 15.816406 C 16.804688 15.394531 21.136719 15.394531 22.703125 15.878906 C 23.542969 16.179688 24.566406 16.898438 24.507812 17.140625 C 24.445312 17.320312 23.183594 17.621094 22.824219 17.320312 C 22.28125 16.839844 22.523438 13.710938 23.003906 12.867188 C 23.242188 12.386719 23.84375 12.085938 24.207031 12.085938 C 24.507812 12.085938 24.808594 12.328125 24.988281 12.628906 C 25.230469 13.109375 25.230469 14.132812 25.109375 15.035156 C 24.988281 16.296875 24.628906 19.1875 23.964844 19.546875 C 23.542969 19.789062 22.824219 19.488281 22.460938 19.066406 C 21.921875 18.402344 22.160156 16.417969 22.160156 15.035156 C 22.160156 13.652344 21.980469 11.363281 22.460938 10.761719 C 22.703125 10.460938 23.242188 10.402344 23.484375 10.523438 C 23.785156 10.644531 24.085938 11.425781 24.085938 11.425781 " clip-rule="nonzero"/></clipPath><clipPath id="0cff4de004"><path d="M 13.445312 21.246094 L 24.800781 21.246094 L 24.800781 31.925781 L 13.445312 31.925781 Z M 13.445312 21.246094 " clip-rule="nonzero"/></clipPath><clipPath id="c447dd6181"><path d="M 16.804688 22.496094 C 16.867188 25.140625 16.503906 25.5625 16.203125 25.625 C 15.964844 25.683594 15.601562 25.625 15.363281 25.382812 C 14.882812 24.960938 13.980469 23.15625 14.21875 22.734375 C 14.339844 22.433594 15.0625 22.253906 15.421875 22.496094 C 16.203125 22.976562 17.40625 27.550781 16.988281 28.511719 C 16.746094 28.992188 16.085938 29.234375 15.601562 29.234375 C 15.183594 29.234375 14.519531 28.8125 14.28125 28.453125 C 14.097656 28.210938 13.980469 27.851562 14.039062 27.550781 C 14.097656 27.25 14.339844 26.886719 14.699219 26.765625 C 15.300781 26.527344 16.503906 26.707031 17.648438 27.007812 C 19.453125 27.429688 23.304688 28.992188 24.207031 29.773438 C 24.566406 30.074219 24.6875 30.316406 24.6875 30.617188 C 24.6875 30.917969 24.507812 31.339844 24.265625 31.519531 C 24.027344 31.699219 23.542969 31.761719 23.242188 31.640625 C 22.941406 31.519531 22.640625 31.21875 22.582031 30.917969 C 22.523438 30.617188 22.640625 30.195312 22.824219 29.957031 C 23.003906 29.714844 23.484375 29.535156 23.785156 29.59375 C 24.144531 29.714844 24.75 30.496094 24.6875 30.859375 C 24.628906 31.21875 24.027344 31.640625 23.363281 31.699219 C 21.738281 31.878906 15.0625 29.65625 14.28125 28.453125 C 13.980469 27.96875 14.21875 27.066406 14.460938 26.886719 C 14.699219 26.707031 15.664062 27.066406 15.785156 27.367188 C 15.902344 27.609375 15.363281 28.511719 15.121094 28.511719 C 14.820312 28.511719 14.460938 27.25 14.28125 26.40625 C 13.980469 25.140625 13.496094 22.195312 14.039062 21.59375 C 14.339844 21.292969 15 21.292969 15.363281 21.414062 C 15.722656 21.53125 16.085938 21.773438 16.324219 22.195312 C 16.6875 22.734375 17.226562 24.121094 16.988281 24.722656 C 16.804688 25.203125 16.085938 25.683594 15.722656 25.625 C 15.484375 25.625 15.242188 25.261719 15.121094 24.960938 C 14.882812 24.359375 14.761719 22.734375 15.0625 22.195312 C 15.300781 21.832031 15.902344 21.59375 16.203125 21.652344 C 16.445312 21.714844 16.804688 22.496094 16.804688 22.496094 " clip-rule="nonzero"/></clipPath><clipPath id="eddce19271"><path d="M 15.214844 20 L 25 20 L 25 31.683594 L 15.214844 31.683594 Z M 15.214844 20 " clip-rule="nonzero"/></clipPath><clipPath id="e138304ec6"><path d="M 22.761719 30.675781 C 22.703125 21.230469 22.882812 20.929688 23.183594 20.808594 C 23.484375 20.691406 24.027344 20.75 24.328125 21.113281 C 25.050781 22.074219 24.808594 28.210938 24.207031 29.472656 C 23.964844 29.957031 23.605469 30.257812 23.304688 30.257812 C 22.941406 30.257812 22.523438 29.957031 22.160156 29.472656 C 21.378906 28.332031 20.355469 23.335938 20.597656 22.074219 C 20.65625 21.59375 20.898438 21.230469 21.199219 21.113281 C 21.5 20.992188 22.039062 20.992188 22.339844 21.292969 C 23.003906 22.074219 22.941406 26.886719 22.402344 27.96875 C 22.160156 28.453125 21.621094 28.753906 21.320312 28.691406 C 20.957031 28.632812 20.65625 28.269531 20.417969 27.730469 C 19.933594 26.527344 19.816406 22.074219 20.175781 20.992188 C 20.296875 20.570312 20.535156 20.269531 20.835938 20.207031 C 21.078125 20.148438 21.558594 20.207031 21.800781 20.507812 C 22.402344 21.292969 22.28125 25.441406 21.980469 27.066406 C 21.800781 28.089844 21.4375 29.234375 21.019531 29.414062 C 20.71875 29.535156 20.234375 29.292969 19.933594 28.992188 C 19.515625 28.632812 19.273438 27.910156 19.03125 27.128906 C 18.671875 25.984375 18.007812 23.578125 18.128906 22.554688 C 18.191406 22.015625 18.308594 21.53125 18.609375 21.351562 C 18.851562 21.171875 19.453125 21.171875 19.695312 21.472656 C 20.355469 22.132812 20.476562 26.828125 19.933594 27.730469 C 19.695312 28.152344 19.214844 28.332031 18.914062 28.269531 C 18.609375 28.210938 18.25 27.96875 18.070312 27.488281 C 17.707031 26.34375 18.609375 21.652344 19.273438 20.628906 C 19.515625 20.207031 19.875 20.027344 20.175781 20.027344 C 20.417969 20.027344 20.777344 20.148438 20.957031 20.449219 C 21.4375 21.230469 21.257812 24.601562 20.957031 25.984375 C 20.777344 26.828125 20.417969 27.789062 19.933594 27.96875 C 19.574219 28.152344 18.851562 27.851562 18.492188 27.488281 C 17.949219 26.949219 17.890625 25.382812 17.769531 24.300781 C 17.648438 23.15625 17.40625 21.53125 17.707031 20.808594 C 17.890625 20.449219 18.25 20.089844 18.550781 20.089844 C 18.851562 20.089844 19.332031 20.269531 19.515625 20.628906 C 19.996094 21.472656 19.515625 24.78125 19.152344 26.164062 C 18.914062 27.066406 18.492188 28.210938 18.070312 28.269531 C 17.769531 28.332031 17.289062 27.851562 17.046875 27.308594 C 16.566406 26.285156 16.566406 22.796875 16.988281 21.832031 C 17.167969 21.414062 17.527344 21.171875 17.828125 21.113281 C 18.128906 21.050781 18.609375 21.230469 18.792969 21.59375 C 19.214844 22.375 18.671875 25.5625 18.191406 26.585938 C 17.890625 27.1875 17.46875 27.667969 17.105469 27.730469 C 16.867188 27.789062 16.566406 27.550781 16.324219 27.308594 C 15.964844 26.886719 15.785156 25.984375 15.664062 25.140625 C 15.542969 24.058594 15.242188 21.714844 15.722656 21.414062 C 16.023438 21.230469 17.105469 21.714844 17.226562 22.015625 C 17.347656 22.253906 17.167969 22.675781 16.988281 22.855469 C 16.746094 23.097656 16.144531 23.21875 15.84375 23.097656 C 15.601562 22.976562 15.300781 22.617188 15.300781 22.316406 C 15.300781 22.074219 15.421875 21.59375 15.664062 21.472656 C 15.964844 21.292969 16.867188 21.472656 17.226562 21.894531 C 17.890625 22.675781 18.429688 25.984375 18.070312 26.886719 C 17.890625 27.367188 17.40625 27.730469 17.105469 27.730469 C 16.804688 27.730469 16.324219 27.308594 16.144531 26.828125 C 15.84375 25.863281 16.503906 22.375 17.046875 21.59375 C 17.289062 21.292969 17.527344 21.113281 17.828125 21.113281 C 18.128906 21.113281 18.550781 21.230469 18.792969 21.59375 C 19.332031 22.433594 19.273438 26.585938 18.851562 27.550781 C 18.671875 27.96875 18.371094 28.269531 18.070312 28.269531 C 17.769531 28.269531 17.226562 27.851562 17.046875 27.308594 C 16.625 26.164062 17.105469 21.832031 17.707031 20.808594 C 18.007812 20.328125 18.492188 20.027344 18.792969 20.089844 C 19.09375 20.148438 19.453125 20.570312 19.632812 21.050781 C 20.054688 22.074219 20.417969 25.503906 19.933594 26.226562 C 19.753906 26.585938 19.214844 26.765625 18.972656 26.644531 C 18.429688 26.285156 18.730469 21.53125 19.273438 20.628906 C 19.515625 20.207031 19.875 20.027344 20.175781 20.027344 C 20.417969 20.027344 20.777344 20.148438 20.957031 20.449219 C 21.4375 21.351562 20.65625 26.707031 19.933594 27.730469 C 19.632812 28.152344 19.214844 28.332031 18.914062 28.269531 C 18.609375 28.210938 18.25 27.910156 18.070312 27.488281 C 17.648438 26.527344 17.46875 22.734375 18.128906 21.894531 C 18.492188 21.472656 19.214844 21.230469 19.695312 21.472656 C 20.65625 22.015625 21.980469 27.308594 21.738281 28.511719 C 21.621094 28.992188 21.320312 29.355469 21.019531 29.414062 C 20.65625 29.472656 20.054688 29.113281 19.753906 28.570312 C 19.152344 27.367188 19.695312 22.195312 20.175781 20.992188 C 20.355469 20.570312 20.535156 20.269531 20.835938 20.207031 C 21.078125 20.148438 21.558594 20.207031 21.800781 20.507812 C 22.523438 21.351562 22.941406 26.828125 22.402344 27.96875 C 22.160156 28.453125 21.621094 28.753906 21.320312 28.691406 C 20.957031 28.632812 20.597656 28.269531 20.417969 27.730469 C 19.996094 26.644531 20.234375 22.796875 20.597656 21.832031 C 20.71875 21.414062 20.957031 21.230469 21.199219 21.113281 C 21.5 20.992188 21.980469 20.992188 22.339844 21.292969 C 23.242188 22.132812 24.566406 27.851562 24.207031 29.234375 C 24.085938 29.773438 23.664062 30.195312 23.304688 30.257812 C 22.941406 30.316406 22.402344 29.957031 22.160156 29.472656 C 21.558594 28.269531 22.101562 23.097656 22.523438 21.773438 C 22.703125 21.292969 22.882812 20.929688 23.183594 20.808594 C 23.484375 20.691406 24.027344 20.75 24.328125 21.113281 C 25.167969 22.132812 25.050781 29.234375 24.628906 30.675781 C 24.507812 31.160156 24.265625 31.519531 24.027344 31.578125 C 23.726562 31.640625 22.761719 30.675781 22.761719 30.675781 " clip-rule="nonzero"/></clipPath><clipPath id="a3be55df0f"><path d="M 30.503906 20.554688 L 41.800781 20.554688 L 41.800781 32 L 30.503906 32 Z M 30.503906 20.554688 " clip-rule="nonzero"/></clipPath><clipPath id="44b3999adb"><path d="M 33.109375 22.074219 C 32.871094 30.257812 31.96875 30.136719 31.96875 30.074219 C 31.90625 29.894531 39.128906 28.632812 39.96875 26.949219 C 40.632812 25.683594 38.464844 23.035156 38.644531 21.953125 C 38.765625 21.351562 39.1875 20.691406 39.546875 20.628906 C 39.910156 20.570312 40.511719 21.113281 40.75 21.652344 C 41.234375 22.675781 41.351562 25.863281 40.933594 26.765625 C 40.75 27.1875 40.332031 27.488281 39.96875 27.488281 C 39.667969 27.488281 39.246094 27.308594 38.945312 26.886719 C 38.34375 26.105469 37.503906 22.917969 37.863281 22.015625 C 38.042969 21.472656 38.765625 21.050781 39.128906 21.113281 C 39.429688 21.171875 39.789062 21.59375 39.910156 22.015625 C 40.089844 22.796875 39.488281 25.140625 39.066406 25.863281 C 38.886719 26.226562 38.644531 26.464844 38.34375 26.527344 C 37.984375 26.585938 37.382812 26.34375 37.140625 25.925781 C 36.660156 25.203125 36.78125 22.375 37.082031 21.59375 C 37.203125 21.230469 37.441406 20.929688 37.742188 20.871094 C 38.105469 20.808594 38.765625 21.113281 39.066406 21.59375 C 39.730469 22.675781 39.546875 27.25 39.066406 28.453125 C 38.886719 28.992188 38.464844 29.355469 38.164062 29.414062 C 37.863281 29.472656 37.503906 29.234375 37.203125 28.871094 C 36.601562 28.03125 35.816406 24.722656 36 23.636719 C 36.058594 23.097656 36.359375 22.554688 36.660156 22.496094 C 36.960938 22.433594 37.683594 22.734375 37.925781 23.21875 C 38.40625 24.121094 37.683594 27.550781 37.324219 28.570312 C 37.140625 29.054688 37.023438 29.414062 36.722656 29.535156 C 36.421875 29.65625 35.9375 29.59375 35.636719 29.292969 C 34.914062 28.390625 34.855469 22.496094 35.335938 21.351562 C 35.515625 20.929688 35.816406 20.691406 36.121094 20.691406 C 36.480469 20.691406 37.023438 21.050781 37.203125 21.59375 C 37.5625 22.855469 35.578125 29.113281 34.613281 29.472656 C 34.195312 29.65625 33.59375 29.234375 33.292969 28.691406 C 32.691406 27.609375 32.808594 23.277344 33.292969 22.253906 C 33.472656 21.832031 33.773438 21.59375 34.074219 21.59375 C 34.375 21.59375 34.855469 21.832031 35.097656 22.253906 C 35.636719 23.277344 35.578125 27.96875 35.097656 29.054688 C 34.914062 29.472656 34.613281 29.714844 34.3125 29.773438 C 34.011719 29.835938 33.652344 29.65625 33.351562 29.292969 C 32.628906 28.390625 31.726562 23.820312 31.96875 22.554688 C 32.089844 22.015625 32.449219 21.53125 32.75 21.472656 C 33.050781 21.414062 33.53125 21.773438 33.710938 22.195312 C 34.132812 23.15625 32.328125 27.308594 33.109375 28.03125 C 33.832031 28.691406 36.722656 26.949219 37.625 27.1875 C 38.105469 27.308594 38.464844 27.667969 38.527344 27.96875 C 38.585938 28.269531 38.285156 28.753906 37.863281 28.992188 C 37.140625 29.414062 34.496094 29.59375 34.074219 29.054688 C 33.710938 28.570312 34.3125 27.066406 34.855469 26.40625 C 35.398438 25.742188 36.601562 25.203125 37.441406 25.203125 C 38.34375 25.203125 39.910156 26.042969 40.148438 26.644531 C 40.332031 27.066406 40.03125 27.851562 39.730469 28.03125 C 39.488281 28.210938 38.765625 28.03125 38.585938 27.789062 C 38.40625 27.488281 38.644531 26.40625 38.945312 26.226562 C 39.1875 26.105469 39.910156 26.34375 40.089844 26.585938 C 40.269531 26.765625 40.332031 27.25 40.210938 27.488281 C 40.089844 27.730469 39.847656 28.03125 39.546875 28.089844 C 39.128906 28.152344 38.40625 27.1875 37.742188 27.066406 C 37.082031 26.949219 35.636719 27.488281 35.636719 27.550781 C 35.636719 27.609375 37.625 27.007812 38.042969 27.308594 C 38.34375 27.488281 38.644531 28.089844 38.464844 28.453125 C 38.164062 29.054688 35.757812 29.714844 34.613281 29.894531 C 33.773438 30.074219 32.808594 30.074219 32.269531 29.894531 C 31.90625 29.773438 31.605469 29.65625 31.425781 29.234375 C 31.003906 28.390625 31.367188 25.683594 31.488281 24.359375 C 31.605469 23.457031 31.605469 22.617188 31.96875 22.132812 C 32.207031 21.773438 32.691406 21.472656 32.992188 21.472656 C 33.230469 21.472656 33.472656 21.652344 33.652344 21.953125 C 34.253906 22.917969 35.457031 28.332031 34.976562 29.292969 C 34.796875 29.65625 34.375 29.835938 34.074219 29.773438 C 33.773438 29.714844 33.472656 29.472656 33.292969 29.054688 C 32.808594 27.96875 32.808594 23.277344 33.292969 22.253906 C 33.472656 21.832031 33.773438 21.59375 34.074219 21.59375 C 34.375 21.59375 34.855469 21.832031 35.097656 22.253906 C 35.636719 23.335938 35.335938 28.933594 34.613281 29.472656 C 34.375 29.65625 33.832031 29.472656 33.59375 29.292969 C 33.410156 29.113281 33.292969 28.871094 33.292969 28.511719 C 33.230469 27.550781 34.011719 24.480469 34.613281 23.097656 C 35.035156 22.074219 35.636719 20.75 36.121094 20.691406 C 36.480469 20.628906 36.960938 21.050781 37.203125 21.59375 C 37.804688 22.796875 37.742188 27.667969 37.261719 28.8125 C 37.082031 29.292969 36.78125 29.535156 36.480469 29.59375 C 36.179688 29.65625 35.699219 29.472656 35.515625 29.113281 C 35.035156 28.269531 35.578125 24.121094 36 23.15625 C 36.179688 22.796875 36.359375 22.554688 36.660156 22.496094 C 36.960938 22.433594 37.5625 22.617188 37.863281 23.035156 C 38.527344 23.878906 39.429688 27.730469 39.007812 28.691406 C 38.828125 29.171875 38.226562 29.472656 37.925781 29.414062 C 37.625 29.355469 37.261719 28.992188 37.082031 28.453125 C 36.601562 27.25 36.660156 22.675781 37.082031 21.59375 C 37.261719 21.171875 37.441406 20.929688 37.742188 20.871094 C 38.105469 20.808594 38.765625 21.113281 39.066406 21.59375 C 39.546875 22.375 39.429688 25.082031 39.066406 25.863281 C 38.886719 26.226562 38.644531 26.464844 38.34375 26.527344 C 37.984375 26.585938 37.324219 26.34375 37.140625 25.925781 C 36.78125 25.203125 37.382812 22.496094 37.925781 21.773438 C 38.226562 21.351562 38.765625 21.050781 39.128906 21.113281 C 39.429688 21.171875 39.609375 21.414062 39.847656 21.773438 C 40.332031 22.617188 41.234375 25.863281 40.933594 26.765625 C 40.75 27.1875 40.332031 27.488281 39.96875 27.488281 C 39.667969 27.488281 39.1875 27.308594 38.945312 26.886719 C 38.40625 26.042969 38.226562 22.433594 38.644531 21.472656 C 38.828125 20.992188 39.1875 20.691406 39.546875 20.628906 C 39.847656 20.570312 40.332031 20.75 40.632812 21.171875 C 41.292969 22.015625 41.773438 25.382812 41.65625 26.765625 C 41.59375 27.609375 41.535156 28.152344 40.933594 28.753906 C 39.667969 30.015625 33.894531 32.121094 32.390625 31.941406 C 31.789062 31.878906 31.546875 31.699219 31.246094 31.160156 C 30.523438 29.835938 30.703125 23.519531 31.246094 22.074219 C 31.425781 21.53125 31.789062 21.113281 32.089844 21.113281 C 32.390625 21.113281 33.109375 22.074219 33.109375 22.074219 " clip-rule="nonzero"/></clipPath><clipPath id="a88e3732f2"><path d="M 31 29.648438 L 32.957031 29.648438 L 32.957031 31.65625 L 31 31.65625 Z M 31 29.648438 " clip-rule="nonzero"/></clipPath><clipPath id="307bade83a"><path d="M 31.003906 30.558594 C 32.269531 29.65625 32.871094 30.316406 32.871094 30.617188 C 32.871094 30.917969 32.390625 31.398438 32.089844 31.460938 C 31.847656 31.519531 31.488281 31.339844 31.304688 31.160156 C 31.125 30.976562 31.003906 30.558594 31.066406 30.316406 C 31.125 30.074219 31.605469 29.65625 31.90625 29.65625 C 32.207031 29.65625 32.691406 29.957031 32.808594 30.257812 C 32.929688 30.558594 32.808594 31.160156 32.570312 31.339844 C 32.328125 31.519531 31.789062 31.640625 31.546875 31.519531 C 31.304688 31.398438 31.003906 30.796875 31.003906 30.796875 " clip-rule="nonzero"/></clipPath><clipPath id="9c2e87cd3e"><path d="M 31.339844 28.269531 L 33.296875 28.269531 L 33.296875 30.078125 L 31.339844 30.078125 Z M 31.339844 28.269531 " clip-rule="nonzero"/></clipPath><clipPath id="1fc75338da"><path d="M 32.390625 28.269531 C 33.292969 29.535156 32.871094 30.074219 32.570312 30.074219 C 32.269531 30.074219 31.425781 29.355469 31.488281 29.054688 C 31.546875 28.753906 32.628906 28.269531 32.871094 28.390625 C 33.109375 28.511719 33.171875 29.714844 32.929688 29.894531 C 32.691406 30.074219 31.488281 29.65625 31.425781 29.355469 C 31.367188 29.113281 32.269531 28.269531 32.269531 28.269531 " clip-rule="nonzero"/></clipPath><clipPath id="8725b0fcc3"><path d="M 14.355469 16.410156 L 23.699219 16.410156 L 23.699219 24.75 L 14.355469 24.75 Z M 14.355469 16.410156 " clip-rule="nonzero"/></clipPath><clipPath id="ab3e26200b"><path d="M 19.910156 19.59375 C 19.542969 20.402344 18.878906 19.816406 18.660156 19.960938 C 18.4375 20.109375 18.878906 21.214844 18.660156 21.363281 C 18.363281 21.507812 16.597656 20.402344 16.667969 20.183594 C 16.667969 20.035156 17.480469 20.257812 17.847656 19.960938 C 18.363281 19.59375 18.511719 17.898438 19.101562 17.457031 C 19.542969 17.164062 20.058594 17.015625 20.574219 17.089844 C 21.089844 17.164062 21.824219 17.382812 22.121094 17.972656 C 22.636719 18.855469 22.339844 21.65625 21.753906 22.835938 C 21.308594 23.71875 20.425781 24.457031 19.761719 24.601562 C 19.175781 24.75 18.4375 24.601562 18.070312 24.160156 C 17.480469 23.496094 17.332031 21.214844 17.554688 20.109375 C 17.699219 19.300781 18.214844 18.5625 18.804688 18.121094 C 19.46875 17.679688 20.722656 17.308594 21.457031 17.53125 C 22.195312 17.753906 23.152344 18.785156 23.371094 19.59375 C 23.667969 20.550781 23.226562 22.320312 22.710938 22.980469 C 22.339844 23.425781 21.753906 23.867188 21.308594 23.792969 C 20.722656 23.644531 19.910156 22.246094 19.691406 21.363281 C 19.46875 20.550781 19.46875 19.371094 19.835938 18.636719 C 20.207031 17.972656 21.164062 17.164062 21.753906 17.164062 C 22.195312 17.164062 22.710938 17.457031 23.003906 17.898438 C 23.519531 18.785156 23.445312 21.878906 22.929688 22.761719 C 22.636719 23.203125 22.121094 23.425781 21.679688 23.496094 C 21.164062 23.570312 20.351562 23.277344 19.835938 22.910156 C 19.246094 22.464844 18.585938 21.804688 18.363281 21.066406 C 18.144531 20.109375 18.363281 18.339844 19.027344 17.605469 C 19.617188 16.941406 21.015625 16.425781 21.679688 16.722656 C 22.414062 17.089844 23.226562 19.078125 23.152344 20.109375 C 23.078125 20.992188 22.414062 22.171875 21.753906 22.613281 C 21.089844 23.054688 20.058594 23.203125 19.246094 22.910156 C 18.289062 22.613281 16.300781 20.476562 16.449219 20.257812 C 16.523438 20.109375 17.921875 20.402344 17.996094 20.625 C 18.070312 20.847656 17.40625 21.730469 17.039062 21.730469 C 16.667969 21.730469 15.859375 20.917969 15.785156 20.476562 C 15.710938 20.109375 16.082031 19.59375 16.375 19.371094 C 16.742188 19.152344 17.480469 19.078125 17.847656 19.300781 C 18.144531 19.445312 18.4375 19.960938 18.4375 20.332031 C 18.4375 20.699219 18.214844 21.214844 17.921875 21.433594 C 17.628906 21.65625 17.039062 21.804688 16.667969 21.65625 C 16.300781 21.507812 15.785156 20.773438 15.785156 20.332031 C 15.785156 19.960938 16.152344 19.519531 16.449219 19.300781 C 16.742188 19.078125 17.40625 19.078125 17.699219 19.226562 C 18.070312 19.371094 18.363281 19.886719 18.4375 20.257812 C 18.511719 20.625 18.214844 21.214844 17.921875 21.433594 C 17.628906 21.65625 17.113281 21.804688 16.742188 21.65625 C 16.375 21.507812 15.859375 20.917969 15.785156 20.476562 C 15.710938 19.886719 16.300781 18.636719 16.816406 18.339844 C 17.257812 18.121094 17.921875 18.269531 18.4375 18.5625 C 19.027344 18.855469 19.691406 20.402344 20.132812 20.402344 C 20.425781 20.402344 20.722656 19.445312 20.792969 19.445312 C 20.867188 19.445312 20.574219 20.625 20.648438 20.625 C 20.722656 20.625 20.792969 19.742188 21.089844 19.519531 C 21.382812 19.300781 22.121094 19.078125 22.339844 19.300781 C 22.636719 19.59375 22.488281 21.363281 22.121094 21.582031 C 21.898438 21.730469 21.089844 21.507812 20.941406 21.214844 C 20.792969 20.992188 21.164062 20.183594 21.015625 20.109375 C 20.792969 20.035156 19.320312 22.097656 19.246094 22.023438 C 19.101562 21.949219 21.015625 18.414062 21.164062 18.488281 C 21.308594 18.5625 21.089844 20.183594 20.722656 20.847656 C 20.351562 21.507812 19.617188 22.097656 18.878906 22.394531 C 18.144531 22.6875 17.039062 22.835938 16.300781 22.613281 C 15.636719 22.394531 14.976562 21.804688 14.679688 21.214844 C 14.386719 20.550781 14.460938 19.300781 14.753906 18.710938 C 14.976562 18.269531 15.34375 17.824219 15.785156 17.679688 C 16.449219 17.457031 17.628906 17.457031 18.4375 17.824219 C 19.246094 18.195312 20.425781 19.152344 20.574219 19.960938 C 20.722656 20.773438 19.835938 22.097656 19.175781 22.539062 C 18.511719 22.980469 17.183594 23.128906 16.667969 22.761719 C 16.152344 22.320312 16.152344 20.847656 16.300781 19.960938 C 16.449219 19.078125 17.113281 17.898438 17.699219 17.53125 C 18.144531 17.238281 18.804688 17.308594 19.320312 17.53125 C 19.984375 17.824219 20.941406 18.636719 21.164062 19.371094 C 21.382812 20.035156 21.164062 21.214844 20.648438 21.730469 C 20.132812 22.246094 18.585938 22.6875 18.070312 22.394531 C 17.628906 22.171875 17.480469 21.433594 17.40625 20.847656 C 17.332031 20.183594 17.480469 19.226562 17.847656 18.785156 C 18.144531 18.414062 18.878906 18.121094 19.246094 18.269531 C 19.617188 18.414062 19.910156 19.59375 19.910156 19.59375 " clip-rule="nonzero"/></clipPath><clipPath id="0ca169f7cc"><path d="M 32.027344 16.785156 L 40.921875 16.785156 L 40.921875 24.722656 L 32.027344 24.722656 Z M 32.027344 16.785156 " clip-rule="nonzero"/></clipPath><clipPath id="9556cb8c84"><path d="M 36.484375 18.785156 C 35.894531 22.097656 36.777344 22.023438 37 21.804688 C 37.222656 21.582031 37.222656 20.847656 37 20.625 C 36.707031 20.257812 34.714844 20.550781 34.714844 20.476562 C 34.714844 20.402344 38.253906 20.257812 38.253906 20.332031 C 38.253906 20.402344 37.148438 20.402344 37 20.625 C 36.851562 20.847656 37.074219 21.804688 37.222656 21.804688 C 37.367188 21.804688 37.589844 19.886719 38.03125 19.667969 C 38.324219 19.519531 38.988281 19.667969 39.136719 19.960938 C 39.355469 20.332031 38.398438 22.171875 38.179688 22.171875 C 37.957031 22.171875 38.472656 19.816406 38.03125 19.519531 C 37.589844 19.226562 35.746094 19.816406 35.527344 20.257812 C 35.378906 20.550781 35.96875 21.289062 35.894531 21.363281 C 35.820312 21.433594 35.085938 20.332031 34.9375 20.402344 C 34.789062 20.476562 35.085938 21.363281 34.9375 21.507812 C 34.714844 21.65625 34.054688 21.289062 33.757812 20.992188 C 33.390625 20.625 32.949219 19.816406 32.949219 19.300781 C 32.949219 18.929688 33.242188 18.414062 33.539062 18.269531 C 33.90625 18.046875 34.789062 18.121094 35.160156 18.414062 C 35.453125 18.636719 35.675781 19.226562 35.601562 19.59375 C 35.527344 20.035156 34.863281 20.625 34.421875 20.699219 C 34.054688 20.773438 33.464844 20.550781 33.242188 20.257812 C 33.023438 19.960938 32.800781 19.445312 32.949219 19.078125 C 33.097656 18.710938 33.757812 18.121094 34.199219 18.046875 C 34.570312 18.046875 35.085938 18.269531 35.304688 18.636719 C 35.746094 19.300781 36.042969 21.582031 35.601562 22.394531 C 35.230469 23.054688 33.90625 23.570312 33.316406 23.496094 C 32.949219 23.425781 32.582031 23.054688 32.433594 22.613281 C 32.136719 21.804688 32.066406 19.519531 32.652344 18.710938 C 33.097656 18.046875 34.128906 17.679688 34.9375 17.753906 C 35.894531 17.824219 37.664062 19.078125 38.03125 19.960938 C 38.324219 20.625 38.03125 21.730469 37.738281 22.246094 C 37.515625 22.6875 37.222656 22.910156 36.777344 23.128906 C 36.191406 23.351562 34.9375 23.496094 34.347656 23.277344 C 33.90625 23.128906 33.683594 22.835938 33.464844 22.394531 C 33.167969 21.582031 32.800781 19.519531 33.464844 18.636719 C 34.199219 17.605469 37.292969 16.792969 38.546875 17.015625 C 39.355469 17.164062 40.09375 17.753906 40.460938 18.414062 C 40.832031 19.152344 40.902344 20.332031 40.609375 21.214844 C 40.316406 22.246094 39.210938 23.867188 38.324219 24.160156 C 37.589844 24.382812 36.335938 24.011719 35.894531 23.425781 C 35.378906 22.6875 35.675781 20.625 36.042969 19.667969 C 36.335938 18.929688 36.925781 18.195312 37.589844 17.898438 C 38.253906 17.605469 39.578125 17.605469 40.09375 17.972656 C 40.460938 18.195312 40.609375 18.710938 40.683594 19.226562 C 40.757812 19.886719 40.609375 20.847656 40.167969 21.507812 C 39.652344 22.320312 38.472656 23.570312 37.515625 23.71875 C 36.707031 23.867188 35.527344 23.496094 35.011719 22.910156 C 34.421875 22.171875 34.347656 20.332031 34.714844 19.445312 C 35.085938 18.710938 36.117188 18.121094 36.925781 17.898438 C 37.664062 17.679688 38.839844 17.679688 39.355469 18.046875 C 39.945312 18.414062 40.242188 19.667969 40.242188 20.332031 C 40.242188 20.773438 40.019531 21.140625 39.652344 21.507812 C 38.988281 22.171875 37.148438 23.203125 35.96875 23.277344 C 35.011719 23.351562 33.832031 23.054688 33.316406 22.464844 C 32.800781 21.878906 32.582031 20.625 32.652344 19.886719 C 32.652344 19.371094 32.875 18.855469 33.167969 18.5625 C 33.539062 18.195312 34.054688 17.972656 34.714844 17.898438 C 35.675781 17.753906 37.738281 17.605469 38.546875 18.195312 C 39.210938 18.710938 39.578125 19.816406 39.578125 20.699219 C 39.578125 21.804688 38.988281 23.792969 38.105469 24.234375 C 37.148438 24.675781 34.863281 23.867188 34.054688 23.277344 C 33.539062 22.910156 33.242188 22.394531 33.167969 21.804688 C 33.097656 21.066406 33.464844 19.886719 33.980469 19.226562 C 34.496094 18.5625 35.453125 17.824219 36.261719 17.679688 C 37.148438 17.53125 38.621094 17.753906 39.0625 18.339844 C 39.503906 18.929688 39.136719 20.476562 38.839844 21.140625 C 38.621094 21.582031 38.253906 21.949219 37.738281 22.097656 C 37.074219 22.320312 35.601562 22.539062 35.011719 22.023438 C 34.347656 21.433594 33.90625 19.226562 34.199219 18.488281 C 34.347656 17.972656 35.085938 17.53125 35.453125 17.605469 C 35.820312 17.679688 36.484375 18.785156 36.484375 18.785156 " clip-rule="nonzero"/></clipPath><clipPath id="e995b04805"><path d="M 14.089844 17.277344 L 24.34375 17.277344 L 24.34375 23.382812 L 14.089844 23.382812 Z M 14.089844 17.277344 " clip-rule="nonzero"/></clipPath><clipPath id="e73f291017"><path d="M 24.109375 19.519531 C 23.960938 22.023438 23.667969 21.140625 23.371094 21.066406 C 23.003906 20.992188 22.269531 21.804688 22.046875 21.65625 C 21.824219 21.507812 22.121094 20.402344 21.972656 20.332031 C 21.824219 20.257812 21.53125 20.992188 21.089844 21.214844 C 20.277344 21.582031 17.921875 21.730469 16.964844 21.507812 C 16.449219 21.363281 16.082031 21.214844 15.785156 20.773438 C 15.34375 20.109375 14.828125 17.824219 15.121094 17.53125 C 15.34375 17.308594 16.082031 17.53125 16.300781 17.824219 C 16.523438 18.195312 16.375 19.59375 16.007812 19.886719 C 15.785156 20.109375 15.195312 20.035156 14.902344 19.886719 C 14.535156 19.667969 14.089844 18.855469 14.238281 18.488281 C 14.386719 18.121094 15.710938 17.605469 16.152344 17.753906 C 16.449219 17.898438 16.742188 18.414062 16.742188 18.785156 C 16.742188 19.152344 15.710938 19.886719 15.785156 19.960938 C 15.859375 20.109375 16.964844 19.300781 17.847656 19.078125 C 19.246094 18.785156 22.5625 18.046875 23.519531 18.785156 C 24.257812 19.300781 24.332031 20.917969 24.257812 21.65625 C 24.257812 22.171875 24.035156 22.6875 23.742188 22.910156 C 23.445312 23.128906 22.710938 23.351562 22.414062 23.128906 C 21.898438 22.6875 21.605469 19.742188 21.972656 19.003906 C 22.195312 18.636719 22.710938 18.339844 23.078125 18.414062 C 23.445312 18.488281 24.109375 19.519531 24.109375 19.519531 " clip-rule="nonzero"/></clipPath><clipPath id="60b60e6b8e"><path d="M 31.4375 16.46875 L 41.882812 16.46875 L 41.882812 23.894531 L 31.4375 23.894531 Z M 31.4375 16.46875 " clip-rule="nonzero"/></clipPath><clipPath id="6bcdd297bb"><path d="M 34.054688 19.226562 C 34.789062 21.878906 38.253906 21.878906 38.914062 21.214844 C 39.355469 20.773438 38.695312 18.929688 38.914062 18.855469 C 39.0625 18.785156 39.945312 19.960938 39.800781 20.257812 C 39.726562 20.476562 39.136719 20.550781 38.546875 20.550781 C 37.441406 20.550781 34.054688 19.886719 33.390625 19.152344 C 33.023438 18.710938 33.023438 18.046875 33.167969 17.679688 C 33.316406 17.308594 34.128906 16.867188 34.496094 16.941406 C 34.9375 17.089844 35.746094 18.269531 35.601562 18.710938 C 35.453125 19.078125 34.199219 19.59375 33.832031 19.445312 C 33.390625 19.300781 33.023438 18.046875 33.167969 17.605469 C 33.316406 17.238281 34.199219 16.867188 34.644531 16.941406 C 35.011719 17.015625 35.453125 17.382812 35.601562 17.753906 C 35.746094 18.121094 35.675781 18.710938 35.453125 19.003906 C 35.230469 19.300781 34.714844 19.667969 34.347656 19.59375 C 33.90625 19.519531 33.023438 18.710938 33.023438 18.269531 C 33.023438 17.824219 33.539062 17.164062 34.199219 16.941406 C 35.453125 16.5 40.09375 16.867188 41.050781 18.121094 C 41.863281 19.226562 41.347656 22.464844 40.609375 23.277344 C 40.09375 23.867188 39.136719 23.71875 38.105469 23.71875 C 36.558594 23.71875 33.167969 23.570312 32.210938 22.539062 C 31.476562 21.65625 31.550781 19.371094 31.917969 18.710938 C 32.136719 18.339844 32.652344 18.046875 33.023438 18.121094 C 33.390625 18.195312 34.054688 19.226562 34.054688 19.226562 " clip-rule="nonzero"/></clipPath></defs><g clip-path="url(#80d32cd5b5)"><path stroke-linecap="round" transform="matrix(0.694042, 0.246771, -0.246771, 0.694042, 6.936179, 27.752418)" fill="none" stroke-linejoin="miter" d="M 0.998355 0.997955 L 30.473481 0.997709 " stroke="#ffffff" stroke-width="2" stroke-opacity="1" stroke-miterlimit="4"/></g><g clip-path="url(#580db075d9)"><path stroke-linecap="round" transform="matrix(0.693926, -0.247096, 0.247096, 0.693926, 26.974066, 35.528288)" fill="none" stroke-linejoin="miter" d="M 0.998031 1.00138 L 30.473496 0.998662 " stroke="#ffffff" stroke-width="2" stroke-opacity="1" stroke-miterlimit="4"/></g><g clip-path="url(#1aef374438)"><g clip-path="url(#6fdc380a1d)"><path fill="#ffffff" d="M 5.851562 12.988281 L 11.105469 12.988281 L 11.105469 27.003906 L 5.851562 27.003906 Z M 5.851562 12.988281 " fill-opacity="1" fill-rule="nonzero"/></g></g><g clip-path="url(#bf501a983d)"><g clip-path="url(#c723dc6e60)"><path fill="#ffffff" d="M 44.605469 12.988281 L 49.859375 12.988281 L 49.859375 27.003906 L 44.605469 27.003906 Z M 44.605469 12.988281 " fill-opacity="1" fill-rule="nonzero"/></g></g><g clip-path="url(#31d1a3e781)"><g clip-path="url(#6ee8828b01)"><path fill="#ffffff" d="M 6.441406 18.253906 L 49.308594 18.253906 L 49.308594 23.066406 L 6.441406 23.066406 Z M 6.441406 18.253906 " fill-opacity="1" fill-rule="nonzero"/></g></g><g clip-path="url(#e3b990922e)"><path stroke-linecap="round" transform="matrix(0.694042, 0.246771, -0.246771, 0.694042, 14.214176, 27.784449)" fill="none" stroke-linejoin="miter" d="M 0.998941 1.002251 L 14.735908 0.997687 " stroke="#ffffff" stroke-width="2" stroke-opacity="1" stroke-miterlimit="4"/></g><g clip-path="url(#6d24b2a5fe)"><path stroke-linecap="round" transform="matrix(0.694686, -0.244951, 0.244951, 0.694686, 30.760973, 31.634194)" fill="none" stroke-linejoin="miter" d="M 0.999076 0.996943 L 14.718663 0.998745 " stroke="#ffffff" stroke-width="2" stroke-opacity="1" stroke-miterlimit="4"/></g><path stroke-linecap="round" transform="matrix(0, 0.736607, -0.736607, 0, 14.901305, 5.722703)" fill="none" stroke-linejoin="miter" d="M 1.002209 1.000862 L 31.22418 1.000862 " stroke="#ffffff" stroke-width="2" stroke-opacity="1" stroke-miterlimit="4"/><path stroke-linecap="round" transform="matrix(0, 0.736607, -0.736607, 0, 25.523406, 5.719967)" fill="none" stroke-linejoin="miter" d="M 1.000621 1.002231 L 35.947592 1.002231 " stroke="#ffffff" stroke-width="2" stroke-opacity="1" stroke-miterlimit="4"/><path stroke-linecap="round" transform="matrix(0, 0.736607, -0.736607, 0, 32.140733, 5.719967)" fill="none" stroke-linejoin="miter" d="M 1.000621 1.00242 L 35.947592 1.00242 " stroke="#ffffff" stroke-width="2" stroke-opacity="1" stroke-miterlimit="4"/><path stroke-linecap="round" transform="matrix(0, 0.736607, -0.736607, 0, 42.258353, 5.722703)" fill="none" stroke-linejoin="miter" d="M 1.002209 0.997703 L 31.22418 0.997703 " stroke="#ffffff" stroke-width="2" stroke-opacity="1" stroke-miterlimit="4"/><path stroke-linecap="round" transform="matrix(-0.736604, -0.002081, 0.002081, -0.736604, 17.340935, 7.068819)" fill="none" stroke-linejoin="miter" d="M 1.001273 0.99742 L 4.130079 0.999187 " stroke="#ffffff" stroke-width="2" stroke-opacity="1" stroke-miterlimit="4"/><path stroke-linecap="round" transform="matrix(-0.736603, -0.00243623, 0.00243623, -0.736603, 24.779565, 7.068815)" fill="none" stroke-linejoin="miter" d="M 0.998002 1.002247 L 3.38437 0.999658 " stroke="#ffffff" stroke-width="2" stroke-opacity="1" stroke-miterlimit="4"/><path stroke-linecap="round" transform="matrix(-0.736602, -0.00265291, 0.00265291, -0.736602, 34.364632, 7.068811)" fill="none" stroke-linejoin="miter" d="M 1.002419 1.001934 L 3.022879 0.99996 " stroke="#ffffff" stroke-width="2" stroke-opacity="1" stroke-miterlimit="4"/><path stroke-linecap="round" transform="matrix(-0.736604, -0.00208158, 0.00208158, -0.736604, 42.118277, 7.068821)" fill="none" stroke-linejoin="miter" d="M 1.001272 0.997422 L 4.130077 0.999186 " stroke="#ffffff" stroke-width="2" stroke-opacity="1" stroke-miterlimit="4"/><path stroke-linecap="round" transform="matrix(-0.736605, -0.00186774, 0.00186774, -0.736605, 21.521779, 8.282776)" fill="none" stroke-linejoin="miter" d="M 1.002565 1.001805 L 4.719991 0.997682 " stroke="#ffffff" stroke-width="2" stroke-opacity="1" stroke-miterlimit="4"/><path stroke-linecap="round" transform="matrix(-0.736603, -0.00253007, 0.00253007, -0.736603, 47.642864, 17.909106)" fill="none" stroke-linejoin="miter" d="M 0.998137 0.997425 L 3.220131 1.000399 " stroke="#ffffff" stroke-width="2" stroke-opacity="1" stroke-miterlimit="4"/><path stroke-linecap="round" transform="matrix(-0.736605, -0.00186774, 0.00186774, -0.736605, 38.559358, 8.282776)" fill="none" stroke-linejoin="miter" d="M 1.00055 1.00181 L 4.717976 0.997687 " stroke="#ffffff" stroke-width="2" stroke-opacity="1" stroke-miterlimit="4"/><path stroke-linecap="round" transform="matrix(0, 0.736607, -0.736607, 0, 18.084777, 5.717951)" fill="none" stroke-linejoin="miter" d="M 0.998055 1.000697 L 2.302601 1.000697 " stroke="#ffffff" stroke-width="2" stroke-opacity="1" stroke-miterlimit="4"/><path stroke-linecap="round" transform="matrix(0, 0.736607, -0.736607, 0, 22.292604, 5.717951)" fill="none" stroke-linejoin="miter" d="M 0.998055 1.001777 L 2.302601 1.001777 " stroke="#ffffff" stroke-width="2" stroke-opacity="1" stroke-miterlimit="4"/><path stroke-linecap="round" transform="matrix(0, 0.736607, -0.736607, 0, 35.150975, 5.717951)" fill="none" stroke-linejoin="miter" d="M 0.998055 1.000414 L 2.302601 1.000414 " stroke="#ffffff" stroke-width="2" stroke-opacity="1" stroke-miterlimit="4"/><path stroke-linecap="round" transform="matrix(0, 0.736607, -0.736607, 0, 39.358803, 5.717951)" fill="none" stroke-linejoin="miter" d="M 0.998055 1.001497 L 2.302601 1.001497 " stroke="#ffffff" stroke-width="2" stroke-opacity="1" stroke-miterlimit="4"/><path stroke-linecap="round" transform="matrix(-0.736607, 0, 0, -0.736607, 22.426887, 16.695149)" fill="none" stroke-linejoin="miter" d="M 0.998471 1.002051 L 7.171199 1.002051 " stroke="#ffffff" stroke-width="2" stroke-opacity="1" stroke-miterlimit="4"/><path stroke-linecap="round" transform="matrix(-0.736607, 0, 0, -0.736607, 39.464464, 16.695149)" fill="none" stroke-linejoin="miter" d="M 1.001757 1.002051 L 7.169182 1.002051 " stroke="#ffffff" stroke-width="2" stroke-opacity="1" stroke-miterlimit="4"/><path stroke-linecap="round" transform="matrix(0, 0.736607, -0.736607, 0, 17.609892, 11.160621)" fill="none" stroke-linejoin="miter" d="M 1.001642 0.997672 L 6.331188 0.997672 " stroke="#ffffff" stroke-width="2" stroke-opacity="1" stroke-miterlimit="4"/><path stroke-linecap="round" transform="matrix(0, 0.736607, -0.736607, 0, 22.872374, 11.160621)" fill="none" stroke-linejoin="miter" d="M 1.001642 0.998708 L 6.331188 0.998708 " stroke="#ffffff" stroke-width="2" stroke-opacity="1" stroke-miterlimit="4"/><path stroke-linecap="round" transform="matrix(0, 0.736607, -0.736607, 0, 34.793148, 11.160621)" fill="none" stroke-linejoin="miter" d="M 1.001642 1.002517 L 6.331188 1.002517 " stroke="#ffffff" stroke-width="2" stroke-opacity="1" stroke-miterlimit="4"/><path stroke-linecap="round" transform="matrix(0, 0.736607, -0.736607, 0, 39.960206, 11.160621)" fill="none" stroke-linejoin="miter" d="M 1.001642 1.00128 L 6.331188 1.00128 " stroke="#ffffff" stroke-width="2" stroke-opacity="1" stroke-miterlimit="4"/><g clip-path="url(#b3dc04fb0c)"><g clip-path="url(#97e8ad7f7d)"><g clip-path="url(#61030eed84)"><g clip-path="url(#da2bd23f56)"><path fill="#000000" d="M 22.328125 11.90625 C 22.242188 11.992188 22.101562 11.992188 22.015625 11.90625 C 20.550781 10.441406 18.167969 10.441406 16.699219 11.90625 C 16.613281 11.992188 16.476562 11.992188 16.390625 11.90625 C 16.304688 11.820312 16.304688 11.679688 16.390625 11.59375 C 16.789062 11.195312 17.257812 10.882812 17.777344 10.671875 C 18.28125 10.46875 18.8125 10.367188 19.359375 10.367188 C 19.902344 10.367188 20.433594 10.46875 20.9375 10.671875 C 21.460938 10.882812 21.925781 11.195312 22.328125 11.59375 C 22.414062 11.679688 22.414062 11.820312 22.328125 11.90625 Z M 22.328125 11.90625 " fill-opacity="1" fill-rule="nonzero"/></g></g></g></g><g clip-path="url(#d1af677d9c)"><g clip-path="url(#b916a23988)"><g clip-path="url(#b34ed2f873)"><g clip-path="url(#a24fa4ec73)"><path fill="#000000" d="M 39.71875 11.90625 C 39.632812 11.992188 39.492188 11.992188 39.40625 11.90625 C 37.941406 10.441406 35.554688 10.441406 34.089844 11.90625 C 34.003906 11.992188 33.863281 11.992188 33.777344 11.90625 C 33.691406 11.820312 33.691406 11.679688 33.777344 11.59375 C 34.179688 11.195312 34.644531 10.882812 35.167969 10.671875 C 35.671875 10.46875 36.203125 10.367188 36.746094 10.367188 C 37.292969 10.367188 37.824219 10.46875 38.328125 10.671875 C 38.847656 10.882812 39.316406 11.195312 39.714844 11.59375 C 39.804688 11.679688 39.804688 11.820312 39.71875 11.90625 Z M 39.71875 11.90625 " fill-opacity="1" fill-rule="nonzero"/></g></g></g></g><g clip-path="url(#b9925fced4)"><g clip-path="url(#c332a5372e)"><path fill="#ffffff" d="M 29.863281 6.613281 L 43.097656 6.613281 L 43.097656 15.273438 L 29.863281 15.273438 Z M 29.863281 6.613281 " fill-opacity="1" fill-rule="nonzero"/></g></g><g clip-path="url(#326d84e5eb)"><g clip-path="url(#af03967e84)"><path fill="#ffffff" d="M 30.222656 7.332031 L 37.863281 7.332031 L 37.863281 15.335938 L 30.222656 15.335938 Z M 30.222656 7.332031 " fill-opacity="1" fill-rule="nonzero"/></g></g><g clip-path="url(#5e205738f1)"><g clip-path="url(#9ab4631a94)"><path fill="#ffffff" d="M 28.597656 3.722656 L 43.460938 3.722656 L 43.460938 13.890625 L 28.597656 13.890625 Z M 28.597656 3.722656 " fill-opacity="1" fill-rule="nonzero"/></g></g><g clip-path="url(#64bc9403a5)"><g clip-path="url(#263dc37b05)"><path fill="#ffffff" d="M 35.9375 3.964844 L 44.121094 3.964844 L 44.121094 21.59375 L 35.9375 21.59375 Z M 35.9375 3.964844 " fill-opacity="1" fill-rule="nonzero"/></g></g><g clip-path="url(#b0ed5e2e89)"><g clip-path="url(#5037ea0147)"><path fill="#ffffff" d="M 29.261719 7.816406 L 36.601562 7.816406 L 36.601562 19.789062 L 29.261719 19.789062 Z M 29.261719 7.816406 " fill-opacity="1" fill-rule="nonzero"/></g></g><g clip-path="url(#9690813b99)"><g clip-path="url(#07ad134a7a)"><path fill="#ffffff" d="M 29.441406 10.582031 L 41.835938 10.582031 L 41.835938 21.472656 L 29.441406 21.472656 Z M 29.441406 10.582031 " fill-opacity="1" fill-rule="nonzero"/></g></g><g clip-path="url(#6d02fc21a0)"><g clip-path="url(#e6d71e15d2)"><path fill="#ffffff" d="M 13.136719 5.589844 L 26.734375 5.589844 L 26.734375 14.914062 L 13.136719 14.914062 Z M 13.136719 5.589844 " fill-opacity="1" fill-rule="nonzero"/></g></g><g clip-path="url(#f6800217d7)"><g clip-path="url(#d38c607fb1)"><path fill="#ffffff" d="M 14.339844 6.25 L 25.230469 6.25 L 25.230469 14.253906 L 14.339844 14.253906 Z M 14.339844 6.25 " fill-opacity="1" fill-rule="nonzero"/></g></g><g clip-path="url(#4f814b0f9d)"><g clip-path="url(#973a6d2b45)"><path fill="#ffffff" d="M 13.859375 6.972656 L 20.535156 6.972656 L 20.535156 13.589844 L 13.859375 13.589844 Z M 13.859375 6.972656 " fill-opacity="1" fill-rule="nonzero"/></g></g><g clip-path="url(#3ed368d562)"><g clip-path="url(#39165eb8db)"><path fill="#ffffff" d="M 13.496094 6.792969 L 20.898438 6.792969 L 20.898438 14.191406 L 13.496094 14.191406 Z M 13.496094 6.792969 " fill-opacity="1" fill-rule="nonzero"/></g></g><g clip-path="url(#67201ca4a2)"><g clip-path="url(#e484000317)"><path fill="#ffffff" d="M 13.4375 6.730469 L 20.898438 6.730469 L 20.898438 14.792969 L 13.4375 14.792969 Z M 13.4375 6.730469 " fill-opacity="1" fill-rule="nonzero"/></g></g><g clip-path="url(#7b53eb656a)"><g clip-path="url(#c7d00fdd34)"><path fill="#ffffff" d="M 14.097656 7.332031 L 20.777344 7.332031 L 20.777344 13.953125 L 14.097656 13.953125 Z M 14.097656 7.332031 " fill-opacity="1" fill-rule="nonzero"/></g></g><g clip-path="url(#d41f80351a)"><g clip-path="url(#ebadb5a39e)"><path fill="#ffffff" d="M 13.496094 6.730469 L 22.101562 6.730469 L 22.101562 14.371094 L 13.496094 14.371094 Z M 13.496094 6.730469 " fill-opacity="1" fill-rule="nonzero"/></g></g><g clip-path="url(#128e121454)"><g clip-path="url(#7f44170738)"><path fill="#ffffff" d="M 11.933594 6.792969 L 19.152344 6.792969 L 19.152344 19.125 L 11.933594 19.125 Z M 11.933594 6.792969 " fill-opacity="1" fill-rule="nonzero"/></g></g><g clip-path="url(#154e9722a6)"><g clip-path="url(#dfe14183c2)"><path fill="#ffffff" d="M 11.570312 3.902344 L 19.875 3.902344 L 19.875 18.945312 L 11.570312 18.945312 Z M 11.570312 3.902344 " fill-opacity="1" fill-rule="nonzero"/></g></g><g clip-path="url(#39536e2ea0)"><g clip-path="url(#1f1077b449)"><path fill="#ffffff" d="M 13.074219 3.964844 L 23.964844 3.964844 L 23.964844 11.964844 L 13.074219 11.964844 Z M 13.074219 3.964844 " fill-opacity="1" fill-rule="nonzero"/></g></g><g clip-path="url(#81772cb59b)"><g clip-path="url(#92a781dbaa)"><path fill="#ffffff" d="M 19.152344 4.085938 L 26.972656 4.085938 L 26.972656 14.671875 L 19.152344 14.671875 Z M 19.152344 4.085938 " fill-opacity="1" fill-rule="nonzero"/></g></g><g clip-path="url(#f066862cbd)"><g clip-path="url(#3ff2e8804b)"><path fill="#ffffff" d="M 11.753906 6.550781 L 18.191406 6.550781 L 18.191406 12.867188 L 11.753906 12.867188 Z M 11.753906 6.550781 " fill-opacity="1" fill-rule="nonzero"/></g></g><g clip-path="url(#2218144816)"><g clip-path="url(#24443f6fac)"><path fill="#ffffff" d="M 11.570312 5.949219 L 18.25 5.949219 L 18.25 12.75 L 11.570312 12.75 Z M 11.570312 5.949219 " fill-opacity="1" fill-rule="nonzero"/></g></g><g clip-path="url(#7594262766)"><g clip-path="url(#46f3e47fe9)"><path fill="#ffffff" d="M 20.777344 7.632812 L 27.273438 7.632812 L 27.273438 15.636719 L 20.777344 15.636719 Z M 20.777344 7.632812 " fill-opacity="1" fill-rule="nonzero"/></g></g><g clip-path="url(#d7ca60442b)"><g clip-path="url(#8b275c4249)"><path fill="#ffffff" d="M 11.992188 8.117188 L 27.515625 8.117188 L 27.515625 21.953125 L 11.992188 21.953125 Z M 11.992188 8.117188 " fill-opacity="1" fill-rule="nonzero"/></g></g><g clip-path="url(#0cff4de004)"><g clip-path="url(#c447dd6181)"><path fill="#ffffff" d="M 11.632812 19.003906 L 27.09375 19.003906 L 27.09375 34.105469 L 11.632812 34.105469 Z M 11.632812 19.003906 " fill-opacity="1" fill-rule="nonzero"/></g></g><g clip-path="url(#eddce19271)"><g clip-path="url(#e138304ec6)"><path fill="#ffffff" d="M 12.894531 17.621094 L 27.035156 17.621094 L 27.035156 33.988281 L 12.894531 33.988281 Z M 12.894531 17.621094 " fill-opacity="1" fill-rule="nonzero"/></g></g><g clip-path="url(#a3be55df0f)"><g clip-path="url(#44b3999adb)"><path fill="#ffffff" d="M 28.839844 18.222656 L 44.0625 18.222656 L 44.0625 34.347656 L 28.839844 34.347656 Z M 28.839844 18.222656 " fill-opacity="1" fill-rule="nonzero"/></g></g><g clip-path="url(#a88e3732f2)"><g clip-path="url(#307bade83a)"><path fill="#ffffff" d="M 28.597656 27.25 L 35.277344 27.25 L 35.277344 33.925781 L 28.597656 33.925781 Z M 28.597656 27.25 " fill-opacity="1" fill-rule="nonzero"/></g></g><g clip-path="url(#9c2e87cd3e)"><g clip-path="url(#1fc75338da)"><path fill="#ffffff" d="M 29.019531 25.863281 L 35.699219 25.863281 L 35.699219 32.484375 L 29.019531 32.484375 Z M 29.019531 25.863281 " fill-opacity="1" fill-rule="nonzero"/></g></g><g fill="#ffffff" fill-opacity="1"><g transform="translate(52.433506, 26.883673)"><g><path d="M 1.671875 -9.515625 L 1.671875 -11.53125 C 1.679688 -12.957031 2.015625 -14.097656 2.671875 -14.953125 C 3.328125 -15.804688 4.234375 -16.234375 5.390625 -16.234375 C 5.890625 -16.234375 6.363281 -16.160156 6.8125 -16.015625 C 7.269531 -15.867188 7.597656 -15.722656 7.796875 -15.578125 L 8.109375 -15.375 L 6.953125 -13.0625 C 6.660156 -13.226562 6.332031 -13.3125 5.96875 -13.3125 C 5.5625 -13.3125 5.289062 -13.171875 5.15625 -12.890625 C 5.019531 -12.617188 4.953125 -12.132812 4.953125 -11.4375 L 4.953125 -9.515625 L 7.140625 -9.515625 L 7.140625 -7.015625 L 4.953125 -7.015625 L 4.953125 0 L 1.671875 0 L 1.671875 -7.015625 L 0.296875 -7.015625 L 0.296875 -9.515625 Z M 1.671875 -9.515625 "/></g></g></g><g fill="#ffffff" fill-opacity="1"><g transform="translate(59.869784, 26.883673)"><g><path d="M 2 -1.125 C 0.945312 -2.070312 0.421875 -3.28125 0.421875 -4.75 C 0.421875 -6.21875 0.972656 -7.425781 2.078125 -8.375 C 3.179688 -9.320312 4.539062 -9.796875 6.15625 -9.796875 C 7.75 -9.796875 9.09375 -9.316406 10.1875 -8.359375 C 11.28125 -7.410156 11.828125 -6.207031 11.828125 -4.75 C 11.828125 -3.289062 11.289062 -2.085938 10.21875 -1.140625 C 9.15625 -0.191406 7.800781 0.28125 6.15625 0.28125 C 4.445312 0.28125 3.0625 -0.1875 2 -1.125 Z M 4.546875 -6.359375 C 4.117188 -5.941406 3.90625 -5.40625 3.90625 -4.75 C 3.90625 -4.09375 4.109375 -3.554688 4.515625 -3.140625 C 4.929688 -2.722656 5.472656 -2.515625 6.140625 -2.515625 C 6.785156 -2.515625 7.3125 -2.722656 7.71875 -3.140625 C 8.132812 -3.566406 8.34375 -4.101562 8.34375 -4.75 C 8.34375 -5.40625 8.128906 -5.941406 7.703125 -6.359375 C 7.273438 -6.773438 6.753906 -6.984375 6.140625 -6.984375 C 5.503906 -6.984375 4.972656 -6.773438 4.546875 -6.359375 Z M 4.546875 -6.359375 "/></g></g></g><g fill="#ffffff" fill-opacity="1"><g transform="translate(72.609626, 26.883673)"><g><path d="M 1.109375 0 L 1.109375 -9.515625 L 4.390625 -9.515625 L 4.390625 -8.140625 L 4.4375 -8.140625 C 4.457031 -8.191406 4.492188 -8.253906 4.546875 -8.328125 C 4.609375 -8.398438 4.726562 -8.53125 4.90625 -8.71875 C 5.09375 -8.90625 5.289062 -9.070312 5.5 -9.21875 C 5.71875 -9.363281 5.992188 -9.492188 6.328125 -9.609375 C 6.660156 -9.734375 7 -9.796875 7.34375 -9.796875 C 7.695312 -9.796875 8.046875 -9.742188 8.390625 -9.640625 C 8.742188 -9.546875 9 -9.445312 9.15625 -9.34375 L 9.421875 -9.203125 L 8.046875 -6.421875 C 7.640625 -6.765625 7.070312 -6.9375 6.34375 -6.9375 C 5.945312 -6.9375 5.601562 -6.847656 5.3125 -6.671875 C 5.03125 -6.503906 4.832031 -6.296875 4.71875 -6.046875 C 4.601562 -5.796875 4.519531 -5.582031 4.46875 -5.40625 C 4.414062 -5.238281 4.390625 -5.101562 4.390625 -5 L 4.390625 0 Z M 1.109375 0 "/></g></g></g><g fill="#ffffff" fill-opacity="1"><g transform="translate(82.326807, 26.883673)"><g><path d="M 1.671875 -9.515625 L 1.671875 -13.0625 L 4.953125 -13.0625 L 4.953125 -9.515625 L 6.953125 -9.515625 L 6.953125 -7.015625 L 4.953125 -7.015625 L 4.953125 -3.984375 C 4.953125 -3.109375 5.195312 -2.671875 5.6875 -2.671875 C 5.8125 -2.671875 5.941406 -2.691406 6.078125 -2.734375 C 6.210938 -2.785156 6.320312 -2.835938 6.40625 -2.890625 L 6.515625 -2.96875 L 7.328125 -0.3125 C 6.617188 0.0820312 5.816406 0.28125 4.921875 0.28125 C 4.296875 0.28125 3.757812 0.171875 3.3125 -0.046875 C 2.875 -0.265625 2.539062 -0.554688 2.3125 -0.921875 C 2.082031 -1.285156 1.914062 -1.664062 1.8125 -2.0625 C 1.71875 -2.46875 1.671875 -2.898438 1.671875 -3.359375 L 1.671875 -7.015625 L 0.296875 -7.015625 L 0.296875 -9.515625 Z M 1.671875 -9.515625 "/></g></g></g><g fill="#ffffff" fill-opacity="1"><g transform="translate(90.133959, 26.883673)"><g><path d="M 1.671875 -12.3125 L 5.4375 -15.578125 L 7.125 -13.453125 L 2.703125 -10.890625 Z M 1.109375 -9.515625 L 1.109375 0 L 4.390625 0 L 4.390625 -9.515625 Z M 1.109375 -9.515625 "/></g></g></g><g fill="#ffffff" fill-opacity="1"><g transform="translate(96.123803, 26.883673)"><g><path d="M 5.25 -9.796875 C 5.789062 -9.796875 6.328125 -9.734375 6.859375 -9.609375 C 7.390625 -9.484375 7.785156 -9.359375 8.046875 -9.234375 L 8.4375 -9.046875 L 7.359375 -6.90625 C 6.617188 -7.300781 5.914062 -7.5 5.25 -7.5 C 4.875 -7.5 4.609375 -7.457031 4.453125 -7.375 C 4.304688 -7.289062 4.234375 -7.140625 4.234375 -6.921875 C 4.234375 -6.867188 4.238281 -6.816406 4.25 -6.765625 C 4.257812 -6.722656 4.28125 -6.675781 4.3125 -6.625 C 4.351562 -6.582031 4.390625 -6.546875 4.421875 -6.515625 C 4.453125 -6.484375 4.503906 -6.445312 4.578125 -6.40625 C 4.648438 -6.375 4.707031 -6.347656 4.75 -6.328125 C 4.800781 -6.316406 4.875 -6.289062 4.96875 -6.25 C 5.070312 -6.207031 5.144531 -6.175781 5.1875 -6.15625 C 5.238281 -6.144531 5.320312 -6.117188 5.4375 -6.078125 C 5.5625 -6.046875 5.65625 -6.023438 5.71875 -6.015625 C 6.09375 -5.898438 6.421875 -5.773438 6.703125 -5.640625 C 6.992188 -5.503906 7.296875 -5.316406 7.609375 -5.078125 C 7.929688 -4.847656 8.175781 -4.550781 8.34375 -4.1875 C 8.519531 -3.832031 8.609375 -3.425781 8.609375 -2.96875 C 8.609375 -0.800781 7.101562 0.28125 4.09375 0.28125 C 3.414062 0.28125 2.769531 0.175781 2.15625 -0.03125 C 1.550781 -0.25 1.109375 -0.460938 0.828125 -0.671875 L 0.421875 -1 L 1.765625 -3.25 C 1.859375 -3.15625 1.984375 -3.050781 2.140625 -2.9375 C 2.304688 -2.820312 2.597656 -2.660156 3.015625 -2.453125 C 3.441406 -2.253906 3.8125 -2.15625 4.125 -2.15625 C 4.800781 -2.15625 5.140625 -2.382812 5.140625 -2.84375 C 5.140625 -3.050781 5.050781 -3.210938 4.875 -3.328125 C 4.707031 -3.441406 4.414062 -3.570312 4 -3.71875 C 3.582031 -3.875 3.253906 -4.015625 3.015625 -4.140625 C 2.429688 -4.441406 1.960938 -4.785156 1.609375 -5.171875 C 1.265625 -5.566406 1.09375 -6.085938 1.09375 -6.734375 C 1.09375 -7.691406 1.46875 -8.441406 2.21875 -8.984375 C 2.96875 -9.523438 3.976562 -9.796875 5.25 -9.796875 Z M 5.25 -9.796875 "/></g></g></g><g clip-path="url(#8725b0fcc3)"><g clip-path="url(#ab3e26200b)"><path fill="#ffffff" d="M 11.734375 13.773438 L 26.320312 13.773438 L 26.320312 27.550781 L 11.734375 27.550781 Z M 11.734375 13.773438 " fill-opacity="1" fill-rule="nonzero"/></g></g><g clip-path="url(#0ca169f7cc)"><g clip-path="url(#9556cb8c84)"><path fill="#ffffff" d="M 29.488281 14.070312 L 43.628906 14.070312 L 43.628906 27.179688 L 29.488281 27.179688 Z M 29.488281 14.070312 " fill-opacity="1" fill-rule="nonzero"/></g></g><g clip-path="url(#e995b04805)"><g clip-path="url(#e73f291017)"><path fill="#ffffff" d="M 11.292969 14.585938 L 27.203125 14.585938 L 27.203125 26.074219 L 11.292969 26.074219 Z M 11.292969 14.585938 " fill-opacity="1" fill-rule="nonzero"/></g></g><g clip-path="url(#60b60e6b8e)"><g clip-path="url(#6bcdd297bb)"><path fill="#ffffff" d="M 28.972656 13.996094 L 43.996094 13.996094 L 43.996094 26.664062 L 28.972656 26.664062 Z M 28.972656 13.996094 " fill-opacity="1" fill-rule="nonzero"/></g></g></svg>