<svg cache-id="b17577fb3fd24db289b13b23f1e3bbaf" id="eLUCq3R2fdA1" xmlns="http://www.w3.org/2000/svg" xmlns:xlink="http://www.w3.org/1999/xlink" viewBox="0 0 300 525.000007" shape-rendering="geometricPrecision" text-rendering="geometricPrecision"><g display="none" clip-path="url(#eLUCq3R2fdA5)"><g><path d="M268.289062,268.117188c-.664062-.703126-4.226562-2.996094-5.09375-3.902344-.863281-.898438-.863281-1.589844-3.265624-5.722656-2.394532-4.136719-11.335938-7.796876-12.335938-7.992188-1-.203125-2.949219-2.652344-3.449219-4.003906-2.0625-5.558594-6.890625-24.578125-8.988281-41.566406-2.101562-16.976563-9.996094-26.578126-14.289062-32.46875.195312-16.292969-3.539063-19.675782-5.59375-24.882813.195312-4.097656,1.617187-12.992187.65625-24.703125-.757813-9.265625-12.355469-20.324219-19.550782-21.324219-4.648437-.644531-7.21875.464844-13.25,0-6.027344-.46875-17.320312-10.597656-17.921875-11.789062-.601562-1.203125-1.859375-11.1875-.933593-12.457031.933593-1.265626,1.074218-.0625,2.007812-2.664063.921875-2.597656.425781-7.265625.425781-7.265625s.25-1,.414063-.316406c.101562.398437.304687.824218.75,1.054687.703125.359375,1.570312-1.320312,2.488281-2.914062c2.429687-4.242188,4.707031-12.324219,1.347656-13.34375-.617187-.183594-1.496093,1.398437-1.496093,1.398437c0-.796875.792968-8.195312-.40625-12.789062-.964844-3.683594-4.550782-7.363282-7.390626-9.589844-3.46875-2.71875-10.542968-2.914062-12.296874-2.921875v-.011719c-.039063,0-.101563,0-.160157,0-.054687,0-.117187,0-.15625,0v.011719c-1.765625.007813-8.832031.203125-12.296875,2.921875-2.839844,2.226562-6.4375,5.90625-7.398437,9.589844-1.195313,4.59375-.398438,11.992187-.398438,12.789062c0,0-.886719-1.582031-1.5-1.398437-3.363281,1.019531-1.082031,9.101562,1.351563,13.34375.914062,1.59375,1.785156,3.273437,2.476562,2.914062.453125-.230469.660156-.65625.75-1.054687.175782-.683594.425782.316406.425782.316406s-.507813,4.667969.425781,7.265625c.933593,2.601563,1.0625,1.398437,1.996093,2.664063.933594,1.269531-.332031,11.253906-.933593,12.457031-.589844,1.191406-11.882813,11.320312-17.910157,11.789062-6.03125.464844-8.601562-.644531-13.261718,0-7.195313,1-18.78125,12.058594-19.539063,21.324219-.964843,11.710938.453125,20.605469.65625,24.703125-2.0625,5.207031-5.800781,8.589844-5.59375,24.882813-4.300781,5.890624-12.191406,15.492187-14.289062,32.46875-2.097657,16.988281-6.9375,36.007812-8.988281,41.566406-.507813,1.351562-2.449219,3.800781-3.449219,4.003906-1,.195312-9.941407,3.855469-12.347657,7.992188-2.394531,4.132812-2.394531,4.824218-3.261718,5.722656-.859375.90625-4.429688,3.199218-5.097656,3.902344-.664063.703124-1.125,3.328124.742187,3.765624c1.859375.433594,6.84375-.648437,8.46875-4.300781C42.78125,266.304688,43.25,266.285156,43.25,266.285156s.660156,2,.558594,3.597656c-.09375,1.601563-3.378906,6.492188-4.679688,9.386719-1.296875,2.902344-5.1875,8.25-4.144531,9.746094c1.054687,1.5,2.550781,1.25,3.199219.75s4.347656-6.769531,5.066406-7.871094c.824219-1.070312,3.921875-5.066406,4.476562-5.667969-.886718,3.644532-2.320312,7.945313-2.882812,9.636719-.566406,1.703125-3.210938,6.816407-3.230469,8.5625-.035156,2.433594,1.648438,2.96875,2.765625,2.238281c3.125-2.070312,4.882813-7.359374,5.660156-8.894531c1.3125-2.609375,2.726563-7.234375,4.058594-9.359375-.332031,2.597656-1.136718,6.175782-1.578125,9.199219-.222656,1.535156-1.566406,9.433594.144531,9.953125c2.65625.792969,3.007813-2.257812,4.050782-5.84375c1.054687-3.609375,2.351562-12.496094,3.144531-13.84375c1.203125.25,1.027344,1.097656,1.257813,3.496094.296874,3.152344.046874,10.992187,2.351562,10.992187c2.292969,0,2.457031-7.894531,2.753906-12.695312.304688-4.789063,1.867188-7.324219,2.664063-11.253907.804687-3.929687,2.664062-9.386718,2.53125-13.984374-.054688-2.132813-.960938-4.03125.871093-10.863282c1.128907-4.191406,15.25-31.839844,16.839844-34.4375c1.71875-2.8125,4.9375-11.191406,5.742188-17.589844.796875-6.390624.664062-6.65625,1.0625-9.71875.398437-3.070312,1.636718-4.410156,3.199218-6.261718c1.796876-2.136719,4.394532-8.460938,6.390626-17.089844.933593-.035156,1.222656-.804688,1.664062-.496094c0,0,1.203125,13.65625,3.671875,17.449219c2.460937,3.800781,1.730469,5.195313,2.257813,6.59375.535156,1.40625.265624,10.53125-.128907,15.589844-.398437,5.066406-1.5625,22.710937-2.664062,26.910156s-2.460938,5.992187-3.53125,11.328125c-1.066407,5.328125-2.765625,12.300781-3.128907,18.847656c0,0-2.246093,15.535156-2.03125,21.378906.21875,6.269532-1.398437,48.863282,7.589844,59.257813-.433594,2.035156-.027344,5.558594.039063,6.628906.0625,1.066407-2.535157,12.125-1.535157,19.515625.996094,7.394532.601563,4.835938.394532,6.675782-.191406,1.847656-8.191406,26.632812,3.800781,72.257812.714844,2.730469,1,8.230469,1,11.125s-1,8.601562-1,11.292969c0,2.699219-.101563,3.992187.5,5.695312s.5,4.496094.101563,6.59375c-.394532,2.097657-8.496094,7.796875-9.191407,10.894531-.703125,3.097657-1.597656,4.890626-.304687,5.789063c1.304687.90625,1.90625,0,1.90625,0s-.5,1.503906.292968,2.300781c.796876.804688,3.203126.703125,3.203126.703125s.792968.195313,1.292968,1c.5.792969,2.597656,1.199219,3.097656.691407.5-.5.804688-.453126,1.203126.222656.210937.371094,1.101562.804687,1.875,1.117187.742187.308594,1.582031.242188,2.257812-.171875l1.5625-.964844c0,0,1.296875,1.5,1.601562,1.601563.292969.101563,3.390626,1.191406,4.1875,0c.804688-1.203125,4.597657-4.097656,4.402344-7.492187-.203125-3.402344-.5-5.296876-.398437-6.5.09375-1.191407.398437-2.996094.898437-4.789063.5-1.804687,1.097656-2.609375.703125-6.003906-.40625-3.390625-.101562-3.597657-.101562-4.195313c0-.601562.496093-2.191406.589843-3.996094.101563-1.792968-1.292968-5.492187-1.292968-5.492187s-.601563-3.597656-.898438-8.492187c-.304687-4.898438.695313-24.179688,2.699219-30.578126c2-6.390624,3.164063-8.398437,3.394531-9.988281c2.394532-16.886719-1.496094-35.066406-2.199218-41.503906-.398438-3.660156,1.203124-4.058594,2.199218-7.757813c1-3.699218,1.792969-12.890624.695313-16.988281C135.394531,341.515625,139,330.527344,139.5,327.136719c.5-3.40625,7.359375-29.675781,7.730469-34.375.359375-4.699219.832031-19.261719-.40625-21.464844.589843,0,2.273437,1.167969,2.984375,1.378906.03125.027344.085937.027344.148437.027344.066407,0,.113281,0,.148438-.027344.714843-.210937,2.394531-1.378906,2.980469-1.378906-1.230469,2.203125-.769532,16.765625-.398438,21.464844.367188,4.699219,7.230469,30.96875,7.730469,34.375.5,3.390625,4.097656,14.378906,3.292969,17.382812-1.101563,4.097657-.296876,13.289063.703124,16.988281.996094,3.699219,2.597657,4.097657,2.199219,7.757813-.703125,6.4375-4.597656,24.617187-2.199219,41.503906.21875,1.589844,1.394532,3.597657,3.390626,9.988281c2,6.398438,2.996093,25.679688,2.703124,30.578126-.296874,4.894531-.898437,8.492187-.898437,8.492187s-1.40625,3.699219-1.304687,5.492187c.101562,1.804688.601562,3.394532.601562,3.996094c0,.597656.304688.804688-.101562,4.195313-.398438,3.394531.203124,4.199219.703124,6.003906.5,1.792969.796876,3.597656.898438,4.789063.101562,1.203124-.195312,3.097656-.398438,6.5-.203124,3.394531,3.597657,6.289062,4.390626,7.492187.804687,1.191406,3.902343.101563,4.199218,0c.304688-.101563,1.601563-1.601563,1.601563-1.601563l1.550781.964844c.683594.414063,1.527344.480469,2.265625.171875.777344-.3125,1.664063-.746093,1.878906-1.117187.398438-.675782.703125-.722656,1.203125-.222656.496094.507812,2.597656.101562,3.097656-.691407.5-.804687,1.292969-1,1.292969-1s2.394531.101563,3.199219-.703125c.796875-.796875.296875-2.300781.296875-2.300781s.601563.90625,1.90625,0c1.292969-.898437.394531-2.691406-.304687-5.789063-.703126-3.097656-8.796876-8.796874-9.195313-10.894531-.394531-2.097656-.496094-4.890625.101563-6.59375.601562-1.703125.5-2.996093.5-5.695312c0-2.691407-.996094-8.398438-.996094-11.292969s.277344-8.394531.996094-11.125c11.984374-45.625,3.996093-70.410156,3.792968-72.257812-.195312-1.839844-.59375.71875.40625-6.675782c1-7.390625-1.601562-18.449218-1.535156-19.515625.066406-1.070312.460938-4.59375.039062-6.628906c8.988282-10.394531,7.367188-52.988281,7.589844-59.257813.203125-5.84375-2.035156-21.378906-2.035156-21.378906-.367188-6.546875-2.0625-13.519531-3.125-18.847656-1.070312-5.335938-2.429688-7.128906-3.53125-11.328125s-2.265625-21.84375-2.664062-26.910156c-.40625-5.058594-.664063-14.183594-.136719-15.589844.535156-1.398437-.195313-2.792969,2.265625-6.59375c2.46875-3.792969,3.660156-17.449219,3.660156-17.449219.453125-.308594.738281.460938,1.664062.496094c1.996094,8.628906,4.597657,14.953125,6.398438,17.089844c1.554688,1.851562,2.792969,3.191406,3.199219,6.261718.398437,3.0625.261719,3.328126,1.066406,9.71875.792969,6.398438,4.011719,14.777344,5.730469,17.589844c1.59375,2.597656,15.722656,30.246094,16.851562,34.4375c1.828125,6.832032.921875,8.730469.859375,10.863282-.128906,4.597656,1.738281,10.054687,2.535157,13.984374.804687,3.929688,2.367187,6.464844,2.660156,11.253907.304687,4.800781.472656,12.695312,2.765625,12.695312c2.304687,0,2.054687-7.839843,2.351562-10.992187.230469-2.398438.054688-3.246094,1.246094-3.496094.804687,1.347656,2.097656,10.234375,3.152344,13.84375c1.046875,3.585938,1.398437,6.636719,4.042969,5.84375c1.71875-.519531.371093-8.417969.148437-9.953125-.433594-3.023437-1.25-6.601563-1.582031-9.199219c1.332031,2.125,2.753906,6.75,4.070312,9.359375.765625,1.535157,2.523438,6.824219,5.65625,8.894531c1.121094.730469,2.804688.195313,2.765625-2.238281-.027343-1.746093-2.664062-6.859375-3.226562-8.5625-.574219-1.691406-1.996094-5.992187-2.886719-9.636719.546875.601563,3.644531,4.597657,4.476562,5.667969.722657,1.101563,4.421876,7.371094,5.070313,7.871094.644531.5,2.144531.75,3.199219-.75c1.042968-1.496094-2.851563-6.84375-4.152344-9.746094-1.296875-2.894531-4.578125-7.785156-4.679688-9.386719-.101562-1.597656.5625-3.597656.5625-3.597656s.472657.019532,2.421876,1.296875c1.621093,3.652344,6.613281,4.734375,8.472656,4.300781c1.867187-.4375,1.40625-3.0625.730468-3.765624" fill="#d9d9d9"/></g><clipPath id="eLUCq3R2fdA5"><path d="M31.035156,27.75h237.84375v471.101562h-237.84375v-471.101562Zm0,0"/></clipPath></g><g display="none" transform="translate(.000001 0)" opacity="0.3"><g clip-path="url(#eLUCq3R2fdA11)"><g><path d="M163.191406,27.941406c-4.253906-1.523437-8.257812-2.910156-13.269531-2.476562-.027344,0-.054687.035156-.082031.0625-.019532-.027344-.046875-.0625-.074219-.0625-5.011719-.433594-9.019531.953125-13.28125,2.476562-6.601563,2.378906-8.582031,11.246094-8.441406,17.644532c0,2.644531.683593,5.273437,1.265625,7.832031.601562,2.617187,1.765625,2.601562,2.21875,2.757812c6.9375,2.292969,7.378906,11.363281,10.441406,11.484375c2.183594.09375,4.660156-.007812,6.863281-.007812.070313.027344.144531.046875.230469.046875.25-.019531.515625-.019531.777344-.03125.265625.011719.535156.011719.785156.03125.082031,0,.15625-.019531.222656-.046875c2.207032,0,4.6875.101562,6.871094.007812c3.058594-.121094,3.492188-9.191406,10.4375-11.484375.453125-.15625,1.621094-.140625,2.21875-2.757812.585938-2.558594,1.269531-5.1875,1.269531-7.832031.136719-6.398438-1.839843-15.265626-8.453125-17.644532" fill="#a6a6a6"/></g><clipPath id="eLUCq3R2fdA11"><path d="M128,25.144531h44L172,68h-44v-42.855469Zm0,0"/></clipPath></g><path d="M105.257812,488.390625c2.003907,0,20.785157-.40625,21.453126,1.195313.664062,1.597656,2.847656,5.464843-1.175782,5.464843s-15.082031-1.867187-17.078125-2.664062c-2-.804688-4.394531-2.800781-4.394531-2.800781l1.195312-1.195313" fill="#737373"/><path d="M115.855469,468.769531c1.46875,6.527344,1.117187,9.46875,3.929687,10.0625c5.132813,1.0625,6.128906-3.070312,6.398438-6.269531.257812-3.191406,1.730468-4.523438,1.730468-4.523438s-.046874,11.855469-.667968,14.785157c-.535156,2.535156-.507813,4.0625-3.234375,4.0625-3.847657,0-6.59375.636719-8.492188,0-2.144531-.714844-1.300781-9.636719-1.597656-13.789063-.34375-4.789062-.566406-5.761718-.296875-6.953125.269531-1.203125,2.230469,2.625,2.230469,2.625" fill="#737373"/><path d="M140.515625,72.691406c-.398437.757813-.265625,1.820313-.210937,2.792969.128906,2.199219-.433594,4.871094-.742188,7.0625-.394531,2.851563-1.71875,6.59375-3.097656,9.09375-1.238282,2.265625-2.652344,2.273437-4.863282,3.679687-1.320312.839844-1.914062.867188-3.246093,1.699219-.296875.1875-1.765625,1.027344-1.617188,1.445313.128907.367187,2.265625.433594,2.652344.46875c3.921875.4375,7.871094.296875,11.800781.160156c1.183594-.046875,2.367188-.085938,3.550782-.121094.519531-.027344,1.0625-.054687,1.5-.34375.738281-.5.832031-1.542968.847656-2.441406.132812-7.664062.261718-14.230469.390625-21.90625.019531-.65625,0-1.386719-.433594-1.878906-.277344-.320313-.703125-.488282-1.109375-.609375-1.378906-.398438-2.878906-.398438-4.253906.011719-.601563.175781-.953125.488281-1.167969.886718" fill="#737373"/><path d="M57.519531,250.382812c.546875-.09375,1.101563-.121093,1.65625-.058593c3.179688.378906,8.710938,1.019531,9.96875,4.605469.148438.417968.15625.871093.15625,1.3125.046875,4.671874-.515625,9.371093-1.726562,13.890624-.222657.851563-.492188,1.710938-.992188,2.433594-2.835937,4.066406-10.496093,1.304688-13.703125-.730468-2.894531-1.832032-7.25-4.671876-7.445312-8.386719-.183594-3.320313,1.792968-6.871094,4.46875-8.757813c2.179687-1.546875,4.84375-3.828125,7.617187-4.308594" fill="#737373"/><path d="M62.144531,276.226562c-.035156,2.117188-.066406,4.238282-.054687,6.355469.019531,1.359375.054687,2.71875.191406,4.078125.113281,1.125.140625,3.214844.851562,4.105469.425782.527344,1.621094-2.730469,1.65625-2.921875.183594-.925781.15625-12.394531.65625-12.449219-1.117187.121094-2.238281.464844-3.300781.832031" fill="#737373"/><path d="M55.515625,276.050781c-.878906,3.699219-1.195313,7.566407-1.8125,11.3125-.214844,1.226563-.417969,2.457031-.613281,3.6875-.25,1.617188-.527344,2.960938-.339844,4.632813.007812.15625.035156.324218.136719.445312.464843.542969,1.5625-.019531,1.90625-.433594.371093-.464843.519531-1.066406.609375-1.65625.269531-1.628906.65625-3.246093.988281-4.863281.5-2.460937.972656-4.929687,1.472656-7.398437.304688-1.507813.609375-3.023438.914063-4.53125.039062-.1875.074218-.390625-.007813-.554688-.167969-.351562-3.246093-.675781-3.253906-.640625" fill="#737373"/><path d="M49.660156,274.414062c-.527344.546876-.886718,2.5625-1.054687,3.070313-.460938,1.378906-.953125,2.738281-1.449219,4.105469-.992188,2.675781-2.035156,5.320312-3.054688,7.980468-.675781,1.777344-1.550781,3.488282-1.535156,5.4375.011719,1.046876,1.304688.527344,1.851563.269532c1.738281-.824219,1.960937-2.191406,2.617187-3.808594.507813-1.257812,1.027344-2.5,1.550782-3.746094c1.621093-3.855468,3.265624-7.695312,5.117187-11.449218.074219-.136719.136719-.285157.15625-.445313.136719-1.375-3.109375-1.523437-3.921875-1.550781-.101562,0-.195312.046875-.277344.136718" fill="#737373"/><path d="M45.046875,270.144531c-.933594.785157-2.921875,5.277344-3.273437,5.917969-1,1.839844-1.988282,3.6875-2.988282,5.527344-.796875,1.488281-2.375,3.449218-2.550781,5.160156-.066406.425781-.453125,2.746094.582031,2.277344.15625-.066406.277344-.195313.386719-.324219c2.730469-3.097656,4.855469-6.539063,7.203125-9.914063.6875-.988281,1.34375-2.007812,2.0625-2.96875.640625-.832031,1.710938-1.597656,2.203125-2.488281.222656-.378906.191406-.847656.15625-1.292969-.007813-.15625-.019531-.324218-.109375-.453124-.074219-.128907-.203125-.214844-.324219-.289063-.953125-.570313-1.988281-1.007813-3.0625-1.265625-.082031-.019531-.175781.019531-.285156.113281" fill="#737373"/><path d="M44.289062,256.308594c-1.664062,1.601562-4.394531,4.714844-5.53125,7.09375-1.128906,2.367187-5.992187,3.300781-6.058593,4.761718-.074219,1.46875-.40625,2.394532.261719,2.46875.671874.066407,3.199218.195313,4.734374-1.203124c1.535157-1.394532,2.664063-2.199219,3.660157-3.597657c1-1.394531,1.867187-3.058593,2.332031-5.261719.46875-2.199218,1.800781-5.261718,1.800781-5.261718l-1.199219,1" fill="#737373"/><path d="M194.890625,488.390625c-1.996094,0-20.777344-.40625-21.445313,1.195313-.664062,1.597656-2.855468,5.464843,1.167969,5.464843s15.082031-1.867187,17.078125-2.664062c2-.804688,4.402344-2.800781,4.402344-2.800781l-1.203125-1.195313" fill="#737373"/><path d="M183.832031,468.769531c-1.46875,6.527344-1.128906,9.46875-3.929687,10.0625-5.132813,1.0625-6.132813-3.070312-6.398438-6.269531-.269531-3.191406-1.730468-4.523438-1.730468-4.523438s.046874,11.855469.664062,14.785157c.527344,2.535156.511719,4.0625,3.238281,4.0625c3.847657,0,6.59375.636719,8.488281,0c2.144532-.714844,1.304688-9.636719,1.589844-13.789063.34375-4.789062.574219-5.761718.304688-6.953125-.265625-1.203125-2.226563,2.625-2.226563,2.625" fill="#737373"/><path d="M159.167969,72.691406c.398437.757813.269531,1.820313.214843,2.792969-.128906,2.199219.425782,4.871094.738282,7.0625.390625,2.851563,1.71875,6.59375,3.089844,9.09375c1.246093,2.265625,2.664062,2.273437,4.863281,3.679687c1.332031.839844,1.921875.867188,3.253906,1.699219.296875.1875,1.765625,1.027344,1.621094,1.445313-.132813.367187-2.265625.433594-2.664063.46875-3.914062.4375-7.859375.296875-11.792968.160156-1.183594-.046875-2.367188-.085938-3.550782-.121094-.515625-.027344-1.0625-.054687-1.496094-.34375-.75-.5-.832031-1.542968-.851562-2.441406-.128906-7.664062-.257812-14.230469-.398438-21.90625-.007812-.65625.011719-1.386719.445313-1.878906.277344-.320313.691406-.488282,1.109375-.609375c1.378906-.398438,2.875-.398438,4.253906.011719.589844.175781.953125.488281,1.164063.886718" fill="#737373"/><path d="M242.164062,250.382812c-.542968-.09375-1.097656-.121093-1.664062-.058593-3.171875.378906-8.703125,1.019531-9.960938,4.605469-.144531.417968-.15625.871093-.164062,1.3125-.039062,4.671874.527344,9.371093,1.730469,13.890624.230469.851563.488281,1.710938.996093,2.433594c2.839844,4.066406,10.496094,1.304688,13.707032-.730468c2.894531-1.832032,7.238281-4.671876,7.441406-8.386719.175781-3.320313-1.800781-6.871094-4.464844-8.757813-2.183594-1.546875-4.847656-3.828125-7.621094-4.308594" fill="#737373"/><path d="M237.53125,276.226562c.046875,2.117188.074219,4.238282.054688,6.355469-.007813,1.359375-.042969,2.71875-.183594,4.078125-.109375,1.125-.136719,3.214844-.851563,4.105469-.425781.527344-1.617187-2.730469-1.65625-2.921875-.183593-.925781-.15625-12.394531-.65625-12.449219c1.121094.121094,2.238281.464844,3.292969.832031" fill="#737373"/><path d="M244.171875,276.050781c.878906,3.699219,1.183594,7.566407,1.8125,11.3125.210937,1.226563.414063,2.457031.601563,3.6875.257812,1.617188.535156,2.960938.351562,4.632813-.019531.15625-.039062.324218-.140625.445312-.460937.542969-1.5625-.019531-1.902344-.433594-.371093-.464843-.519531-1.066406-.621093-1.65625-.269532-1.628906-.648438-3.246093-.980469-4.863281-.5-2.460937-.972657-4.929687-1.46875-7.398437-.304688-1.507813-.613281-3.023438-.917969-4.53125-.035156-.1875-.074219-.390625.011719-.554688.164062-.351562,3.246093-.675781,3.253906-.640625" fill="#737373"/><path d="M250.023438,274.414062c.527343.546876.890624,2.5625,1.054687,3.070313.464844,1.378906.953125,2.738281,1.453125,4.105469.988281,2.675781,2.035156,5.320312,3.050781,7.980468.667969,1.777344,1.554688,3.488282,1.535157,5.4375-.019532,1.046876-1.304688.527344-1.847657.269532-1.75-.824219-1.96875-2.191406-2.617187-3.808594-.507813-1.257812-1.027344-2.5-1.554688-3.746094-1.617187-3.855468-3.265625-7.695312-5.113281-11.449218-.074219-.136719-.140625-.285157-.15625-.445313-.140625-1.375,3.105469-1.523437,3.917969-1.550781.101562,0,.195312.046875.277344.136718" fill="#737373"/><path d="M254.628906,270.144531c.945313.785157,2.933594,5.277344,3.273438,5.917969c1,1.839844,2,3.6875,2.988281,5.527344.804687,1.488281,2.378906,3.449218,2.5625,5.160156.054687.425781.453125,2.746094-.582031,2.277344-.160156-.066406-.277344-.195313-.390625-.324219-2.734375-3.097656-4.855469-6.539063-7.203125-9.914063-.683594-.988281-1.339844-2.007812-2.070313-2.96875-.628906-.832031-1.703125-1.597656-2.203125-2.488281-.210937-.378906-.183594-.847656-.144531-1.292969.007813-.15625.015625-.324218.101563-.453124.082031-.128907.203124-.214844.332031-.289063.941406-.570313,1.988281-1.007813,3.058593-1.265625.085938-.019531.175782.019531.277344.113281" fill="#737373"/><path d="M255.398438,256.308594c1.664062,1.601562,4.390624,4.714844,5.53125,7.09375c1.125,2.367187,5.992187,3.300781,6.054687,4.761718.066406,1.46875.398437,2.394532-.265625,2.46875-.667969.066407-3.203125.195313-4.726562-1.203124-1.535157-1.394532-2.664063-2.199219-3.664063-3.597657-.996094-1.394531-1.867187-3.058593-2.328125-5.261719-.472656-2.199218-1.804688-5.261718-1.804688-5.261718l1.203126,1" fill="#737373"/></g><g><path d="M124.785156,234.53125c-7.25,4.328125-11.335937,7.386719-13.796875,11.382812-2.457031,4.003907-1.996093,11.191407,1.332031,18.382813c3.328126,7.195313,10.257813,15.261719,13.855469,15.261719c3.59375,0,9.496094,4.566406,15.589844,2.226562c5.289063-2.023437,3.246094-5.6875,3.78125-10.46875.757813-6.667968,2.414063-6.277344,3.3125-22.101562.210937-3.808594-.648437-10.160156-1.710937-12.289063-1.066407-2.125-3.257813-4.863281-4.179688-6.066406-.933594-1.203125-1.535156-3.828125-9.332031-.398437-3.226563,1.425781-4.199219,1.296874-8.851563,4.070312" fill="#c32e67"/><path d="M174.890625,234.53125c7.257813,4.328125,11.34375,7.386719,13.804687,11.382812c2.453126,4.003907,2,11.191407-1.332031,18.382813-3.328125,7.195313-10.261719,15.261719-13.859375,15.261719s-9.488281,4.566406-15.582031,2.226562c-5.289063-2.023437-3.246094-5.6875-3.785156-10.46875-.757813-6.667968-2.410157-6.277344-3.308594-22.101562-.222656-3.808594.648437-10.160156,1.710937-12.289063c1.0625-2.125,3.246094-4.863281,4.179688-6.066406s1.535156-3.828125,9.332031-.398437c3.226563,1.425781,4.195313,1.296874,8.839844,4.070312" fill="#c32e67"/></g></svg>
