<svg id="eBkgxnXputA1" xmlns="http://www.w3.org/2000/svg" xmlns:xlink="http://www.w3.org/1999/xlink" viewBox="0 0 300 525.000007" shape-rendering="geometricPrecision" text-rendering="geometricPrecision"><g clip-path="url(#eBkgxnXputA5)"><g><path d="M268.289062,268.117188c-.664062-.703126-4.226562-2.996094-5.09375-3.902344-.863281-.898438-.863281-1.589844-3.265624-5.722656-2.394532-4.136719-11.335938-7.796876-12.335938-7.992188-1-.203125-2.949219-2.652344-3.449219-4.003906-2.0625-5.558594-6.890625-24.578125-8.988281-41.566406-2.101562-16.976563-9.996094-26.578126-14.289062-32.46875.195312-16.292969-3.539063-19.675782-5.59375-24.882813.195312-4.097656,1.617187-12.992187.65625-24.703125-.757813-9.265625-12.355469-20.324219-19.550782-21.324219-4.648437-.644531-7.21875.464844-13.25,0-6.027344-.46875-17.320312-10.597656-17.921875-11.789062-.601562-1.203125-1.859375-11.1875-.933593-12.457031.933593-1.265626,1.074218-.0625,2.007812-2.664063.921875-2.597656.425781-7.265625.425781-7.265625s.25-1,.414063-.316406c.101562.398437.304687.824218.75,1.054687.703125.359375,1.570312-1.320312,2.488281-2.914062c2.429687-4.242188,4.707031-12.324219,1.347656-13.34375-.617187-.183594-1.496093,1.398437-1.496093,1.398437c0-.796875.792968-8.195312-.40625-12.789062-.964844-3.683594-4.550782-7.363282-7.390626-9.589844-3.46875-2.71875-10.542968-2.914062-12.296874-2.921875v-.011719c-.039063,0-.101563,0-.160157,0-.054687,0-.117187,0-.15625,0v.011719c-1.765625.007813-8.832031.203125-12.296875,2.921875-2.839844,2.226562-6.4375,5.90625-7.398437,9.589844-1.195313,4.59375-.398438,11.992187-.398438,12.789062c0,0-.886719-1.582031-1.5-1.398437-3.363281,1.019531-1.082031,9.101562,1.351563,13.34375.914062,1.59375,1.785156,3.273437,2.476562,2.914062.453125-.230469.660156-.65625.75-1.054687.175782-.683594.425782.316406.425782.316406s-.507813,4.667969.425781,7.265625c.933593,2.601563,1.0625,1.398437,1.996093,2.664063.933594,1.269531-.332031,11.253906-.933593,12.457031-.589844,1.191406-11.882813,11.320312-17.910157,11.789062-6.03125.464844-8.601562-.644531-13.261718,0-7.195313,1-18.78125,12.058594-19.539063,21.324219-.964843,11.710938.453125,20.605469.65625,24.703125-2.0625,5.207031-5.800781,8.589844-5.59375,24.882813-4.300781,5.890624-12.191406,15.492187-14.289062,32.46875-2.097657,16.988281-6.9375,36.007812-8.988281,41.566406-.507813,1.351562-2.449219,3.800781-3.449219,4.003906-1,.195312-9.941407,3.855469-12.347657,7.992188-2.394531,4.132812-2.394531,4.824218-3.261718,5.722656-.859375.90625-4.429688,3.199218-5.097656,3.902344-.664063.703124-1.125,3.328124.742187,3.765624c1.859375.433594,6.84375-.648437,8.46875-4.300781C42.78125,266.304688,43.25,266.285156,43.25,266.285156s.660156,2,.558594,3.597656c-.09375,1.601563-3.378906,6.492188-4.679688,9.386719-1.296875,2.902344-5.1875,8.25-4.144531,9.746094c1.054687,1.5,2.550781,1.25,3.199219.75s4.347656-6.769531,5.066406-7.871094c.824219-1.070312,3.921875-5.066406,4.476562-5.667969-.886718,3.644532-2.320312,7.945313-2.882812,9.636719-.566406,1.703125-3.210938,6.816407-3.230469,8.5625-.035156,2.433594,1.648438,2.96875,2.765625,2.238281c3.125-2.070312,4.882813-7.359374,5.660156-8.894531c1.3125-2.609375,2.726563-7.234375,4.058594-9.359375-.332031,2.597656-1.136718,6.175782-1.578125,9.199219-.222656,1.535156-1.566406,9.433594.144531,9.953125c2.65625.792969,3.007813-2.257812,4.050782-5.84375c1.054687-3.609375,2.351562-12.496094,3.144531-13.84375c1.203125.25,1.027344,1.097656,1.257813,3.496094.296874,3.152344.046874,10.992187,2.351562,10.992187c2.292969,0,2.457031-7.894531,2.753906-12.695312.304688-4.789063,1.867188-7.324219,2.664063-11.253907.804687-3.929687,2.664062-9.386718,2.53125-13.984374-.054688-2.132813-.960938-4.03125.871093-10.863282c1.128907-4.191406,15.25-31.839844,16.839844-34.4375c1.71875-2.8125,4.9375-11.191406,5.742188-17.589844.796875-6.390624.664062-6.65625,1.0625-9.71875.398437-3.070312,1.636718-4.410156,3.199218-6.261718c1.796876-2.136719,4.394532-8.460938,6.390626-17.089844.933593-.035156,1.222656-.804688,1.664062-.496094c0,0,1.203125,13.65625,3.671875,17.449219c2.460937,3.800781,1.730469,5.195313,2.257813,6.59375.535156,1.40625.265624,10.53125-.128907,15.589844-.398437,5.066406-1.5625,22.710937-2.664062,26.910156s-2.460938,5.992187-3.53125,11.328125c-1.066407,5.328125-2.765625,12.300781-3.128907,18.847656c0,0-2.246093,15.535156-2.03125,21.378906.21875,6.269532-1.398437,48.863282,7.589844,59.257813-.433594,2.035156-.027344,5.558594.039063,6.628906.0625,1.066407-2.535157,12.125-1.535157,19.515625.996094,7.394532.601563,4.835938.394532,6.675782-.191406,1.847656-8.191406,26.632812,3.800781,72.257812.714844,2.730469,1,8.230469,1,11.125s-1,8.601562-1,11.292969c0,2.699219-.101563,3.992187.5,5.695312s.5,4.496094.101563,6.59375c-.394532,2.097657-8.496094,7.796875-9.191407,10.894531-.703125,3.097657-1.597656,4.890626-.304687,5.789063c1.304687.90625,1.90625,0,1.90625,0s-.5,1.503906.292968,2.300781c.796876.804688,3.203126.703125,3.203126.703125s.792968.195313,1.292968,1c.5.792969,2.597656,1.199219,3.097656.691407.5-.5.804688-.453126,1.203126.222656.210937.371094,1.101562.804687,1.875,1.117187.742187.308594,1.582031.242188,2.257812-.171875l1.5625-.964844c0,0,1.296875,1.5,1.601562,1.601563.292969.101563,3.390626,1.191406,4.1875,0c.804688-1.203125,4.597657-4.097656,4.402344-7.492187-.203125-3.402344-.5-5.296876-.398437-6.5.09375-1.191407.398437-2.996094.898437-4.789063.5-1.804687,1.097656-2.609375.703125-6.003906-.40625-3.390625-.101562-3.597657-.101562-4.195313c0-.601562.496093-2.191406.589843-3.996094.101563-1.792968-1.292968-5.492187-1.292968-5.492187s-.601563-3.597656-.898438-8.492187c-.304687-4.898438.695313-24.179688,2.699219-30.578126c2-6.390624,3.164063-8.398437,3.394531-9.988281c2.394532-16.886719-1.496094-35.066406-2.199218-41.503906-.398438-3.660156,1.203124-4.058594,2.199218-7.757813c1-3.699218,1.792969-12.890624.695313-16.988281C135.394531,341.515625,139,330.527344,139.5,327.136719c.5-3.40625,7.359375-29.675781,7.730469-34.375.359375-4.699219.832031-19.261719-.40625-21.464844.589843,0,2.273437,1.167969,2.984375,1.378906.03125.027344.085937.027344.148437.027344.066407,0,.113281,0,.148438-.027344.714843-.210937,2.394531-1.378906,2.980469-1.378906-1.230469,2.203125-.769532,16.765625-.398438,21.464844.367188,4.699219,7.230469,30.96875,7.730469,34.375.5,3.390625,4.097656,14.378906,3.292969,17.382812-1.101563,4.097657-.296876,13.289063.703124,16.988281.996094,3.699219,2.597657,4.097657,2.199219,7.757813-.703125,6.4375-4.597656,24.617187-2.199219,41.503906.21875,1.589844,1.394532,3.597657,3.390626,9.988281c2,6.398438,2.996093,25.679688,2.703124,30.578126-.296874,4.894531-.898437,8.492187-.898437,8.492187s-1.40625,3.699219-1.304687,5.492187c.101562,1.804688.601562,3.394532.601562,3.996094c0,.597656.304688.804688-.101562,4.195313-.398438,3.394531.203124,4.199219.703124,6.003906.5,1.792969.796876,3.597656.898438,4.789063.101562,1.203124-.195312,3.097656-.398438,6.5-.203124,3.394531,3.597657,6.289062,4.390626,7.492187.804687,1.191406,3.902343.101563,4.199218,0c.304688-.101563,1.601563-1.601563,1.601563-1.601563l1.550781.964844c.683594.414063,1.527344.480469,2.265625.171875.777344-.3125,1.664063-.746093,1.878906-1.117187.398438-.675782.703125-.722656,1.203125-.222656.496094.507812,2.597656.101562,3.097656-.691407.5-.804687,1.292969-1,1.292969-1s2.394531.101563,3.199219-.703125c.796875-.796875.296875-2.300781.296875-2.300781s.601563.90625,1.90625,0c1.292969-.898437.394531-2.691406-.304687-5.789063-.703126-3.097656-8.796876-8.796874-9.195313-10.894531-.394531-2.097656-.496094-4.890625.101563-6.59375.601562-1.703125.5-2.996093.5-5.695312c0-2.691407-.996094-8.398438-.996094-11.292969s.277344-8.394531.996094-11.125c11.984374-45.625,3.996093-70.410156,3.792968-72.257812-.195312-1.839844-.59375.71875.40625-6.675782c1-7.390625-1.601562-18.449218-1.535156-19.515625.066406-1.070312.460938-4.59375.039062-6.628906c8.988282-10.394531,7.367188-52.988281,7.589844-59.257813.203125-5.84375-2.035156-21.378906-2.035156-21.378906-.367188-6.546875-2.0625-13.519531-3.125-18.847656-1.070312-5.335938-2.429688-7.128906-3.53125-11.328125s-2.265625-21.84375-2.664062-26.910156c-.40625-5.058594-.664063-14.183594-.136719-15.589844.535156-1.398437-.195313-2.792969,2.265625-6.59375c2.46875-3.792969,3.660156-17.449219,3.660156-17.449219.453125-.308594.738281.460938,1.664062.496094c1.996094,8.628906,4.597657,14.953125,6.398438,17.089844c1.554688,1.851562,2.792969,3.191406,3.199219,6.261718.398437,3.0625.261719,3.328126,1.066406,9.71875.792969,6.398438,4.011719,14.777344,5.730469,17.589844c1.59375,2.597656,15.722656,30.246094,16.851562,34.4375c1.828125,6.832032.921875,8.730469.859375,10.863282-.128906,4.597656,1.738281,10.054687,2.535157,13.984374.804687,3.929688,2.367187,6.464844,2.660156,11.253907.304687,4.800781.472656,12.695312,2.765625,12.695312c2.304687,0,2.054687-7.839843,2.351562-10.992187.230469-2.398438.054688-3.246094,1.246094-3.496094.804687,1.347656,2.097656,10.234375,3.152344,13.84375c1.046875,3.585938,1.398437,6.636719,4.042969,5.84375c1.71875-.519531.371093-8.417969.148437-9.953125-.433594-3.023437-1.25-6.601563-1.582031-9.199219c1.332031,2.125,2.753906,6.75,4.070312,9.359375.765625,1.535157,2.523438,6.824219,5.65625,8.894531c1.121094.730469,2.804688.195313,2.765625-2.238281-.027343-1.746093-2.664062-6.859375-3.226562-8.5625-.574219-1.691406-1.996094-5.992187-2.886719-9.636719.546875.601563,3.644531,4.597657,4.476562,5.667969.722657,1.101563,4.421876,7.371094,5.070313,7.871094.644531.5,2.144531.75,3.199219-.75c1.042968-1.496094-2.851563-6.84375-4.152344-9.746094-1.296875-2.894531-4.578125-7.785156-4.679688-9.386719-.101562-1.597656.5625-3.597656.5625-3.597656s.472657.019532,2.421876,1.296875c1.621093,3.652344,6.613281,4.734375,8.472656,4.300781c1.867187-.4375,1.40625-3.0625.730468-3.765624" fill="#d9d9d9"/></g><clipPath id="eBkgxnXputA5"><path d="M31.035156,27.75h237.84375v471.101562h-237.84375v-471.101562Zm0,0"/></clipPath></g><g transform="translate(.000001 0)" opacity="0.3"><g clip-path="url(#eBkgxnXputA11)"><g><path d="M163.191406,27.941406c-4.253906-1.523437-8.257812-2.910156-13.269531-2.476562-.027344,0-.054687.035156-.082031.0625-.019532-.027344-.046875-.0625-.074219-.0625-5.011719-.433594-9.019531.953125-13.28125,2.476562-6.601563,2.378906-8.582031,11.246094-8.441406,17.644532c0,2.644531.683593,5.273437,1.265625,7.832031.601562,2.617187,1.765625,2.601562,2.21875,2.757812c6.9375,2.292969,7.378906,11.363281,10.441406,11.484375c2.183594.09375,4.660156-.007812,6.863281-.007812.070313.027344.144531.046875.230469.046875.25-.019531.515625-.019531.777344-.03125.265625.011719.535156.011719.785156.03125.082031,0,.15625-.019531.222656-.046875c2.207032,0,4.6875.101562,6.871094.007812c3.058594-.121094,3.492188-9.191406,10.4375-11.484375.453125-.15625,1.621094-.140625,2.21875-2.757812.585938-2.558594,1.269531-5.1875,1.269531-7.832031.136719-6.398438-1.839843-15.265626-8.453125-17.644532" fill="#a6a6a6"/></g><clipPath id="eBkgxnXputA11"><path d="M128,25.144531h44L172,68h-44v-42.855469Zm0,0"/></clipPath></g><path d="M105.257812,488.390625c2.003907,0,20.785157-.40625,21.453126,1.195313.664062,1.597656,2.847656,5.464843-1.175782,5.464843s-15.082031-1.867187-17.078125-2.664062c-2-.804688-4.394531-2.800781-4.394531-2.800781l1.195312-1.195313" fill="#737373"/><path d="M115.855469,468.769531c1.46875,6.527344,1.117187,9.46875,3.929687,10.0625c5.132813,1.0625,6.128906-3.070312,6.398438-6.269531.257812-3.191406,1.730468-4.523438,1.730468-4.523438s-.046874,11.855469-.667968,14.785157c-.535156,2.535156-.507813,4.0625-3.234375,4.0625-3.847657,0-6.59375.636719-8.492188,0-2.144531-.714844-1.300781-9.636719-1.597656-13.789063-.34375-4.789062-.566406-5.761718-.296875-6.953125.269531-1.203125,2.230469,2.625,2.230469,2.625" fill="#737373"/><path d="M140.515625,72.691406c-.398437.757813-.265625,1.820313-.210937,2.792969.128906,2.199219-.433594,4.871094-.742188,7.0625-.394531,2.851563-1.71875,6.59375-3.097656,9.09375-1.238282,2.265625-2.652344,2.273437-4.863282,3.679687-1.320312.839844-1.914062.867188-3.246093,1.699219-.296875.1875-1.765625,1.027344-1.617188,1.445313.128907.367187,2.265625.433594,2.652344.46875c3.921875.4375,7.871094.296875,11.800781.160156c1.183594-.046875,2.367188-.085938,3.550782-.121094.519531-.027344,1.0625-.054687,1.5-.34375.738281-.5.832031-1.542968.847656-2.441406.132812-7.664062.261718-14.230469.390625-21.90625.019531-.65625,0-1.386719-.433594-1.878906-.277344-.320313-.703125-.488282-1.109375-.609375-1.378906-.398438-2.878906-.398438-4.253906.011719-.601563.175781-.953125.488281-1.167969.886718" fill="#737373"/><path d="M57.519531,250.382812c.546875-.09375,1.101563-.121093,1.65625-.058593c3.179688.378906,8.710938,1.019531,9.96875,4.605469.148438.417968.15625.871093.15625,1.3125.046875,4.671874-.515625,9.371093-1.726562,13.890624-.222657.851563-.492188,1.710938-.992188,2.433594-2.835937,4.066406-10.496093,1.304688-13.703125-.730468-2.894531-1.832032-7.25-4.671876-7.445312-8.386719-.183594-3.320313,1.792968-6.871094,4.46875-8.757813c2.179687-1.546875,4.84375-3.828125,7.617187-4.308594" fill="#737373"/><path d="M62.144531,276.226562c-.035156,2.117188-.066406,4.238282-.054687,6.355469.019531,1.359375.054687,2.71875.191406,4.078125.113281,1.125.140625,3.214844.851562,4.105469.425782.527344,1.621094-2.730469,1.65625-2.921875.183594-.925781.15625-12.394531.65625-12.449219-1.117187.121094-2.238281.464844-3.300781.832031" fill="#737373"/><path d="M55.515625,276.050781c-.878906,3.699219-1.195313,7.566407-1.8125,11.3125-.214844,1.226563-.417969,2.457031-.613281,3.6875-.25,1.617188-.527344,2.960938-.339844,4.632813.007812.15625.035156.324218.136719.445312.464843.542969,1.5625-.019531,1.90625-.433594.371093-.464843.519531-1.066406.609375-1.65625.269531-1.628906.65625-3.246093.988281-4.863281.5-2.460937.972656-4.929687,1.472656-7.398437.304688-1.507813.609375-3.023438.914063-4.53125.039062-.1875.074218-.390625-.007813-.554688-.167969-.351562-3.246093-.675781-3.253906-.640625" fill="#737373"/><path d="M49.660156,274.414062c-.527344.546876-.886718,2.5625-1.054687,3.070313-.460938,1.378906-.953125,2.738281-1.449219,4.105469-.992188,2.675781-2.035156,5.320312-3.054688,7.980468-.675781,1.777344-1.550781,3.488282-1.535156,5.4375.011719,1.046876,1.304688.527344,1.851563.269532c1.738281-.824219,1.960937-2.191406,2.617187-3.808594.507813-1.257812,1.027344-2.5,1.550782-3.746094c1.621093-3.855468,3.265624-7.695312,5.117187-11.449218.074219-.136719.136719-.285157.15625-.445313.136719-1.375-3.109375-1.523437-3.921875-1.550781-.101562,0-.195312.046875-.277344.136718" fill="#737373"/><path d="M45.046875,270.144531c-.933594.785157-2.921875,5.277344-3.273437,5.917969-1,1.839844-1.988282,3.6875-2.988282,5.527344-.796875,1.488281-2.375,3.449218-2.550781,5.160156-.066406.425781-.453125,2.746094.582031,2.277344.15625-.066406.277344-.195313.386719-.324219c2.730469-3.097656,4.855469-6.539063,7.203125-9.914063.6875-.988281,1.34375-2.007812,2.0625-2.96875.640625-.832031,1.710938-1.597656,2.203125-2.488281.222656-.378906.191406-.847656.15625-1.292969-.007813-.15625-.019531-.324218-.109375-.453124-.074219-.128907-.203125-.214844-.324219-.289063-.953125-.570313-1.988281-1.007813-3.0625-1.265625-.082031-.019531-.175781.019531-.285156.113281" fill="#737373"/><path d="M44.289062,256.308594c-1.664062,1.601562-4.394531,4.714844-5.53125,7.09375-1.128906,2.367187-5.992187,3.300781-6.058593,4.761718-.074219,1.46875-.40625,2.394532.261719,2.46875.671874.066407,3.199218.195313,4.734374-1.203124c1.535157-1.394532,2.664063-2.199219,3.660157-3.597657c1-1.394531,1.867187-3.058593,2.332031-5.261719.46875-2.199218,1.800781-5.261718,1.800781-5.261718l-1.199219,1" fill="#737373"/><path d="M194.890625,488.390625c-1.996094,0-20.777344-.40625-21.445313,1.195313-.664062,1.597656-2.855468,5.464843,1.167969,5.464843s15.082031-1.867187,17.078125-2.664062c2-.804688,4.402344-2.800781,4.402344-2.800781l-1.203125-1.195313" fill="#737373"/><path d="M183.832031,468.769531c-1.46875,6.527344-1.128906,9.46875-3.929687,10.0625-5.132813,1.0625-6.132813-3.070312-6.398438-6.269531-.269531-3.191406-1.730468-4.523438-1.730468-4.523438s.046874,11.855469.664062,14.785157c.527344,2.535156.511719,4.0625,3.238281,4.0625c3.847657,0,6.59375.636719,8.488281,0c2.144532-.714844,1.304688-9.636719,1.589844-13.789063.34375-4.789062.574219-5.761718.304688-6.953125-.265625-1.203125-2.226563,2.625-2.226563,2.625" fill="#737373"/><path d="M159.167969,72.691406c.398437.757813.269531,1.820313.214843,2.792969-.128906,2.199219.425782,4.871094.738282,7.0625.390625,2.851563,1.71875,6.59375,3.089844,9.09375c1.246093,2.265625,2.664062,2.273437,4.863281,3.679687c1.332031.839844,1.921875.867188,3.253906,1.699219.296875.1875,1.765625,1.027344,1.621094,1.445313-.132813.367187-2.265625.433594-2.664063.46875-3.914062.4375-7.859375.296875-11.792968.160156-1.183594-.046875-2.367188-.085938-3.550782-.121094-.515625-.027344-1.0625-.054687-1.496094-.34375-.75-.5-.832031-1.542968-.851562-2.441406-.128906-7.664062-.257812-14.230469-.398438-21.90625-.007812-.65625.011719-1.386719.445313-1.878906.277344-.320313.691406-.488282,1.109375-.609375c1.378906-.398438,2.875-.398438,4.253906.011719.589844.175781.953125.488281,1.164063.886718" fill="#737373"/><path d="M242.164062,250.382812c-.542968-.09375-1.097656-.121093-1.664062-.058593-3.171875.378906-8.703125,1.019531-9.960938,4.605469-.144531.417968-.15625.871093-.164062,1.3125-.039062,4.671874.527344,9.371093,1.730469,13.890624.230469.851563.488281,1.710938.996093,2.433594c2.839844,4.066406,10.496094,1.304688,13.707032-.730468c2.894531-1.832032,7.238281-4.671876,7.441406-8.386719.175781-3.320313-1.800781-6.871094-4.464844-8.757813-2.183594-1.546875-4.847656-3.828125-7.621094-4.308594" fill="#737373"/><path d="M237.53125,276.226562c.046875,2.117188.074219,4.238282.054688,6.355469-.007813,1.359375-.042969,2.71875-.183594,4.078125-.109375,1.125-.136719,3.214844-.851563,4.105469-.425781.527344-1.617187-2.730469-1.65625-2.921875-.183593-.925781-.15625-12.394531-.65625-12.449219c1.121094.121094,2.238281.464844,3.292969.832031" fill="#737373"/><path d="M244.171875,276.050781c.878906,3.699219,1.183594,7.566407,1.8125,11.3125.210937,1.226563.414063,2.457031.601563,3.6875.257812,1.617188.535156,2.960938.351562,4.632813-.019531.15625-.039062.324218-.140625.445312-.460937.542969-1.5625-.019531-1.902344-.433594-.371093-.464843-.519531-1.066406-.621093-1.65625-.269532-1.628906-.648438-3.246093-.980469-4.863281-.5-2.460937-.972657-4.929687-1.46875-7.398437-.304688-1.507813-.613281-3.023438-.917969-4.53125-.035156-.1875-.074219-.390625.011719-.554688.164062-.351562,3.246093-.675781,3.253906-.640625" fill="#737373"/><path d="M250.023438,274.414062c.527343.546876.890624,2.5625,1.054687,3.070313.464844,1.378906.953125,2.738281,1.453125,4.105469.988281,2.675781,2.035156,5.320312,3.050781,7.980468.667969,1.777344,1.554688,3.488282,1.535157,5.4375-.019532,1.046876-1.304688.527344-1.847657.269532-1.75-.824219-1.96875-2.191406-2.617187-3.808594-.507813-1.257812-1.027344-2.5-1.554688-3.746094-1.617187-3.855468-3.265625-7.695312-5.113281-11.449218-.074219-.136719-.140625-.285157-.15625-.445313-.140625-1.375,3.105469-1.523437,3.917969-1.550781.101562,0,.195312.046875.277344.136718" fill="#737373"/><path d="M254.628906,270.144531c.945313.785157,2.933594,5.277344,3.273438,5.917969c1,1.839844,2,3.6875,2.988281,5.527344.804687,1.488281,2.378906,3.449218,2.5625,5.160156.054687.425781.453125,2.746094-.582031,2.277344-.160156-.066406-.277344-.195313-.390625-.324219-2.734375-3.097656-4.855469-6.539063-7.203125-9.914063-.683594-.988281-1.339844-2.007812-2.070313-2.96875-.628906-.832031-1.703125-1.597656-2.203125-2.488281-.210937-.378906-.183594-.847656-.144531-1.292969.007813-.15625.015625-.324218.101563-.453124.082031-.128907.203124-.214844.332031-.289063.941406-.570313,1.988281-1.007813,3.058593-1.265625.085938-.019531.175782.019531.277344.113281" fill="#737373"/><path d="M255.398438,256.308594c1.664062,1.601562,4.390624,4.714844,5.53125,7.09375c1.125,2.367187,5.992187,3.300781,6.054687,4.761718.066406,1.46875.398437,2.394532-.265625,2.46875-.667969.066407-3.203125.195313-4.726562-1.203124-1.535157-1.394532-2.664063-2.199219-3.664063-3.597657-.996094-1.394531-1.867187-3.058593-2.328125-5.261719-.472656-2.199218-1.804688-5.261718-1.804688-5.261718l1.203126,1" fill="#737373"/></g><g><path d="M124.785156,234.53125c-7.25,4.328125-11.335937,7.386719-13.796875,11.382812-2.457031,4.003907-1.996093,11.191407,1.332031,18.382813c3.328126,7.195313,10.257813,15.261719,13.855469,15.261719c3.59375,0,9.496094,4.566406,15.589844,2.226562c5.289063-2.023437,3.246094-5.6875,3.78125-10.46875.757813-6.667968,2.414063-6.277344,3.3125-22.101562.210937-3.808594-.648437-10.160156-1.710937-12.289063-1.066407-2.125-3.257813-4.863281-4.179688-6.066406-.933594-1.203125-1.535156-3.828125-9.332031-.398437-3.226563,1.425781-4.199219,1.296874-8.851563,4.070312" fill="#737373"/><path d="M174.890625,234.53125c7.257813,4.328125,11.34375,7.386719,13.804687,11.382812c2.453126,4.003907,2,11.191407-1.332031,18.382813-3.328125,7.195313-10.261719,15.261719-13.859375,15.261719s-9.488281,4.566406-15.582031,2.226562c-5.289063-2.023437-3.246094-5.6875-3.785156-10.46875-.757813-6.667968-2.410157-6.277344-3.308594-22.101562-.222656-3.808594.648437-10.160156,1.710937-12.289063c1.0625-2.125,3.246094-4.863281,4.179688-6.066406s1.535156-3.828125,9.332031-.398437c3.226563,1.425781,4.195313,1.296874,8.839844,4.070312" fill="#737373"/></g><g transform="translate(.000001 0)"><path d="M119.183594,103.03125c3.597656,3.800781,7.664062,18.726562,9.996094,26.578125c2.671874,9.054687,4.605468,14.636719,11.585937,25.984375c4.699219,7.628906,4.394531,12.585938,5.390625,11.78125c1.40625-15.378906,4.597656-57.34375-.792969-61.746094-5.390625-4.398437-7.195312-3.597656-13.1875-4.398437-6-.796875-12.992187,1.800781-12.992187,1.800781" fill="#737373"/><path d="M105.671875,127.972656c.101563.210938.183594.378906.257813.5c1.277343,1.875,2.914062,3.496094,4.707031,4.882813c3.230469,2.496093,7.167969,5.046875,11.246093,5.714843c2.347657.386719,3.171876.65625,3.792969,1.007813.628907.351563-.546875,1.394531-.546875,1.523437c0,.121094-3.617187,2.0625-7.480468,2.527344-5.742188.691406-11.578126-1.824218-14.203126-7.132812-.992187-2.003906-1.492187-4.234375-1.601562-6.453125-.101562-1.847657-.472656-3.929688.777344-5.492188c1.238281-1.554687,2.394531,1.535157,3.050781,2.921875" fill="#737373"/><path d="M130.707031,140.269531c2.132813,3.941407,6.65625,14.863281,8.265625,17.933594c1.589844,3.058594,3.996094,4.253906,3.457032,7.453125-.535157,3.199219-4.824219,14.851562-6.65625,18.707031-1.839844,3.867188-4.53125,11.726563-6.003907,15.269531-1.5625,3.769532-2.929687,7.859376-3.59375,9.855469-.539062,1.617188-5.707031-5.761719-7.648437-8.628906-.492188-.710937-.824219-1.515625-.980469-2.355469-.527344-2.90625-1.867187-10.285156-2.960937-17.128906-.628907-3.964844-1.867188-5.59375-2.929688-14.386719-1.0625-8.785156-.527344-7.324219-3.199219-11.855469-2.664062-4.53125-3.332031-10.386718-2.792969-10.523437c3.597657,2.664063,7.425782,2.605469,10.058594,3.058594.722656.132812,2.960938.453125,5.660156-.453125c4.476563-1.507813,5.171876-2.265625,6.09375-4.003906.933594-1.726563,3.230469-2.941407,3.230469-2.941407" fill="#737373"/><path d="M144.300781,172.90625c-.527343-1.0625-1.332031,1.867188-2.933593,4.660156-1.597657,2.800782-7.195313,16.128906-8.265626,19.058594-.511718,1.425781-8.324218,20.214844-6.019531,21.714844c6.664063,4.355468,18.28125,11.789062,18.28125,11.789062c3.46875-13.519531,1.203125-52.5625-1.0625-57.222656" fill="#737373"/><path d="M180.503906,103.03125c-3.597656,3.800781-7.675781,18.726562-9.996094,26.578125-2.675781,9.054687-4.605468,14.636719-11.589843,25.984375-4.695313,7.628906-4.402344,12.585938-5.398438,11.78125-1.398437-15.378906-4.597656-57.34375.804688-61.746094c5.390625-4.398437,7.195312-3.597656,13.1875-4.398437c5.992187-.796875,12.992187,1.800781,12.992187,1.800781" fill="#737373"/><path d="M194.011719,127.972656c-.101563.210938-.183594.378906-.257813.5-1.277344,1.875-2.914062,3.496094-4.707031,4.882813-3.234375,2.496093-7.167969,5.046875-11.246094,5.714843-2.347656.386719-3.171875.65625-3.800781,1.007813-.617188.351563.558594,1.394531.558594,1.523437c0,.121094,3.613281,2.0625,7.46875,2.527344c5.742187.691406,11.589844-1.824218,14.214844-7.132812.988281-2.003906,1.488281-4.234375,1.601562-6.453125.089844-1.847657.46875-3.929688-.789062-5.492188-1.230469-1.554687-2.382813,1.535157-3.042969,2.921875" fill="#737373"/><path d="M168.980469,140.269531c-2.136719,3.941407-6.667969,14.863281-8.265625,17.933594-1.601563,3.058594-3.996094,4.253906-3.460938,7.453125.527344,3.199219,4.828125,14.851562,6.660156,18.707031c1.839844,3.867188,4.53125,11.726563,5.992188,15.269531c1.5625,3.769532,2.929688,7.859376,3.597656,9.855469.542969,1.617188,5.714844-5.761719,7.65625-8.628906.488282-.710937.8125-1.515625.96875-2.355469.539063-2.90625,1.878906-10.285156,2.96875-17.128906.628906-3.964844,1.859375-5.59375,2.933594-14.386719c1.0625-8.785156.527344-7.324219,3.1875-11.855469c2.675781-4.53125,3.339844-10.386718,2.804688-10.523437-3.597657,2.664063-7.425782,2.605469-10.0625,3.058594-.722657.132812-2.957032.453125-5.660157-.453125-4.476562-1.507813-5.167969-2.265625-6.101562-4.003906-.933594-1.726563-3.21875-2.941407-3.21875-2.941407" fill="#737373"/><path d="M155.386719,172.90625c.519531-1.0625,1.332031,1.867188,2.929687,4.660156c1.601563,2.800782,7.195313,16.128906,8.257813,19.058594.519531,1.425781,8.332031,20.214844,6.03125,21.714844-6.667969,4.355468-18.28125,11.789062-18.28125,11.789062-3.46875-13.519531-1.203125-52.5625,1.0625-57.222656" fill="#737373"/></g><g transform="translate(.000001 0)"><path d="M105.828125,117.089844c4.207031-2.324219,8.582031-4.367188,13.066406-6.113282.484375-.1875.980469-.371093,1.5-.324218c2.347657.210937,3.382813,7.527344,3.808594,9.21875c1.351563,5.410156,2.683594,10.820312,4.375,16.136718c2.054687,6.472657-7.507813,1-9.394531,0-3.0625-1.636718-6.011719-2.847656-8.554688-5.34375-3.042968-2.996093-4.558594-6.964843-6.296875-10.773437-.582031-1.285156-.832031-1.480469.453125-2.21875.351563-.195313.691406-.390625,1.042969-.582031" fill="#737373"/><path d="M110.019531,108.757812c-1.332031-.851562-3.171875-1.871093-3.441406-1.960937-2.015625-.6875-4.226563-.816406-6.316406-.453125-3.421875.582031-6.917969,3.4375-9.476563,5.6875-1.65625,1.449219-3.210937,4.039062-4.023437,6.09375-1.257813,3.171875-.777344,5.832031-.769531,9.164062.011718,3.929688.019531,7.859376.019531,11.796876c0,.03125,4.125-1.652344,4.503906-1.867188c2.144531-1.199219,4.03125-2.765625,5.84375-4.410156c1.582031-1.441406,3.707031-3.402344,3.707031-5.722656c0-3.507813.824219-7.046876,2.71875-10.027344c2.136719-3.347656,5.652344-4.6875,8.601563-7.148438.140625-.117187-.507813-.597656-1.367188-1.152344" fill="#737373"/><path d="M193.855469,117.089844c-4.214844-2.324219-8.589844-4.367188-13.066407-6.113282-.480468-.1875-.980468-.371093-1.496093-.324218-2.359375.210937-3.386719,7.527344-3.8125,9.21875-1.359375,5.410156-2.679688,10.820312-4.375,16.136718-2.058594,6.472657,7.511719,1,9.398437,0c3.058594-1.636718,6.007813-2.847656,8.554688-5.34375c3.039062-2.996093,4.558594-6.964843,6.296875-10.773437.582031-1.285156.832031-1.480469-.453125-2.21875-.351563-.195313-.695313-.390625-1.046875-.582031" fill="#737373"/><path d="M189.667969,108.757812c1.332031-.851562,3.171875-1.871093,3.4375-1.960937c2.019531-.6875,4.21875-.816406,6.308593-.453125c3.421876.582031,6.925782,3.4375,9.488282,5.6875c1.65625,1.449219,3.207031,4.039062,4.023437,6.09375c1.246094,3.171875.777344,5.832031.765625,9.164062-.007812,3.929688-.019531,7.859376-.027344,11.796876c0,.03125-4.113281-1.652344-4.492187-1.867188-2.148437-1.199219-4.035156-2.765625-5.847656-4.410156-1.578125-1.441406-3.707031-3.402344-3.707031-5.722656c0-3.507813-.824219-7.046876-2.71875-10.027344-2.136719-3.347656-5.648438-4.6875-8.601563-7.148438-.144531-.117187.511719-.597656,1.371094-1.152344" fill="#737373"/></g><g transform="translate(.000001 0)"><path d="M99.402344,132.808594c-13.519532,9.589844-13.324219,15.722656-12.125,23.582031c1.09375,7.15625,4.320312-.582031,6.476562-2.175781c1.578125-1.164063,3.171875-2.273438,4.722656-3.464844.511719-.398438,3.515626-2.238281,3.402344-3.015625-.082031-.675781-2.476562-14.925781-2.476562-14.925781" fill="#737373"/><path d="M101.398438,150.589844c-2.71875,2.277344-5.390626,4.625-7.914063,7.105468-2.542969,2.484376-3.070313,4.28125-3.117187,7.90625-.0625,5.234376-1.628907,10.273438-2.414063,15.40625-.398437,2.617188-.601563,5.269532-.265625,7.894532.40625,3.097656.996094,1.601562,2.375.09375.703125-.757813,1.386719-1.535156,2.035156-2.339844c1.976563-2.496094,2.007813-4.660156,2.402344-7.785156.4375-3.421875,3.0625-4.671875,4.597656-7.789063.960938-1.957031,1.488282-6.15625,2.449219-8.109375c2-4.058594,2.535156-8.691406,1.148437-12.972656c0,0-1.296874.589844-1.296874.589844" fill="#737373"/><path d="M83.914062,154.585938c-1.730468,4.789062-4.894531,20.585937-3.433593,27.382812.34375,1.589844,1.59375,5.03125,2.710937,1.792969c1.765625-5.085938,3.996094-10.207031,5.234375-15.460938.824219-3.449219-2.414062-9.414062-4.511719-13.714843" fill="#737373"/><path d="M200.28125,132.808594c13.523438,9.589844,13.328125,15.722656,12.125,23.582031-1.089844,7.15625-4.316406-.582031-6.480469-2.175781-1.574219-1.164063-3.164062-2.273438-4.71875-3.464844-.507812-.398438-3.511719-2.238281-3.410156-3.015625.089844-.675781,2.484375-14.925781,2.484375-14.925781" fill="#737373"/><path d="M198.285156,150.589844c2.71875,2.277344,5.390625,4.625,7.917969,7.105468c2.542969,2.484376,3.070313,4.28125,3.113281,7.90625.066406,5.234376,1.628906,10.273438,2.414063,15.40625.390625,2.617188.601562,5.269532.261719,7.894532-.398438,3.097656-.992188,1.601562-2.378907.09375-.691406-.757813-1.378906-1.535156-2.023437-2.339844-1.980469-2.496094-2.007813-4.660156-2.40625-7.785156-.441406-3.421875-3.058594-4.671875-4.59375-7.789063-.964844-1.957031-1.492188-6.15625-2.453125-8.109375-1.996094-4.058594-2.53125-8.691406-1.144531-12.972656c0,0,1.292968.589844,1.292968.589844" fill="#737373"/><path d="M215.773438,154.585938c1.726562,4.789062,4.890624,20.585937,3.429687,27.382812-.34375,1.589844-1.589844,5.03125-2.71875,1.792969-1.757813-5.085938-3.984375-10.207031-5.234375-15.460938-.824219-3.449219,2.421875-9.414062,4.523438-13.714843" fill="#737373"/></g><g transform="translate(0 0.000001)"><path d="M117.636719,203.394531c.371093.109375.703125.359375,1.046875.75c1.414062,1.570313,2.71875,3.234375,3.910156,4.984375c1.128906,1.636719,2.644531,3.570313,3.082031,5.546875.359375,1.589844-4.414062,3.726563-5.402343,4.367188-2.402344,1.542969-4.464844,3.390625-5.917969,5.890625-.867188,1.476562-1.175781.628906-1.367188-.601563-.574219-3.664062-1.007812-7.539062-.703125-11.3125.265625-3.1875.730469-8.164062,4.078125-9.503906.488281-.195313.90625-.230469,1.273438-.121094" transform="translate(-.977249 0)" fill="#737373"/><path d="M135.503906,225.265625c-2.136718-1.195313-12.234375-4.265625-16.257812-2-3.660156,2.074219-8.921875,13.957031-8.652344,18.054687c4.355469-2.664062,12.824219-9.628906,16.679688-11.191406c3.867187-1.5625,9.832031-3.132812,9.832031-3.132812l-1.601563-1.730469" fill="#737373"/><path d="M182.046875,203.394531c-.371094.109375-.703125.359375-1.054687.75-1.40625,1.570313-2.71875,3.234375-3.910157,4.984375-1.121093,1.636719-2.636719,3.570313-3.082031,5.546875-.347656,1.589844,4.421875,3.726563,5.410156,4.367188c2.40625,1.542969,4.457032,3.390625,5.917969,5.890625.871094,1.476562,1.175781.628906,1.371094-.601563.5625-3.664062,1.007812-7.539062.691406-11.3125-.257813-3.1875-.71875-8.164062-4.066406-9.503906-.492188-.195313-.90625-.230469-1.277344-.121094" transform="translate(-.977249 0)" fill="#737373"/><path d="M164.179688,225.265625c2.128906-1.195313,12.234374-4.265625,16.257812-2c3.664062,2.074219,8.925781,13.957031,8.65625,18.054687-4.355469-2.664062-12.828125-9.628906-16.683594-11.191406-3.863281-1.5625-9.828125-3.132812-9.828125-3.132812l1.597657-1.730469" transform="translate(-.977249 0)" fill="#737373"/></g><g transform="translate(.000001 0)"><path d="M133.007812,285.816406c2.394532,2.128906,9.097657,13.925782,6.964844,25.386719-2.128906,11.457031,3.308594-7.335937,4.519532-14.695313.960937-5.816406,1.5625-10.257812.472656-11.226562-1.71875-1.515625-11.957032.535156-11.957032.535156" fill="#737373"/><path d="M104.191406,272.296875c-.792968,5.199219,1.066406,44.5,4.136719,56.355469c3.058594,11.855468,2.367187,4.660156,1.71875-1.203125-.65625-5.863281,1.210937-20.917969,1.480469-26.242188.257812-5.328125-.804688-18.523437-3.070313-24.25-2.265625-5.722656-1.859375-5.992187-3.199219-7.988281-1.332031-2.007812-1.066406,3.328125-1.066406,3.328125" fill="#737373"/><path d="M112.359375,345.4375c-1.378906,6.785156-2.164063,18.789062-2.832031,19.316406c5.726562-6.132812,12.085937-28.6875,13.585937-36.242187c1.480469-7.453125,1.496094-31.984375,2.164063-35.980469.664062-4.003906-.054688-3.707031-.667969-5.84375-.90625-3.117188-4.566406-8.175781-6.453125-10.0625-7.183594-7.195312-1.570312,48.085938-5.796875,68.8125" fill="#737373"/><path d="M138.039062,311.332031c0,7.054688-6.398437,25.4375-6.003906,33.707031.410156,8.257813-1.265625,22.644532-1.535156,23.847657c2.804688-6.527344,4.125-20.648438,4.265625-27.574219.128906-6.9375,4.734375-18.921875,4.207031-22.925781-.535156-3.996094-.933594-7.054688-.933594-7.054688" fill="#737373"/><path d="M128.058594,291.632812c-1.265625,5.449219-6.285156,64.195313-1.265625,70.726563c2.136719-3.597656,3.699219-35.039063,8.5625-47.699219c2.527343-6.574218-.203125-15.121094-1.386719-19.652344-.378906-1.46875-4.199219-7.65625-4.199219-7.65625l-1.710937,4.28125" fill="#737373"/><path d="M166.679688,285.816406c-2.398438,2.128906-9.101563,13.925782-6.964844,25.386719c2.125,11.457031-3.3125-7.335937-4.53125-14.695313-.953125-5.816406-1.554688-10.257812-.460938-11.226562c1.71875-1.515625,11.957032.535156,11.957032.535156" fill="#737373"/><path d="M195.484375,272.296875c.804687,5.199219-1.0625,44.5-4.125,56.355469s-2.367187,4.660156-1.71875-1.203125c.65625-5.863281-1.210937-20.917969-1.480469-26.242188-.269531-5.328125.804688-18.523437,3.058594-24.25c2.265625-5.722656,1.871094-5.992187,3.203125-7.988281c1.328125-2.007812,1.0625,3.328125,1.0625,3.328125" fill="#737373"/><path d="M187.316406,345.4375c1.390625,6.785156,2.175782,18.789062,2.839844,19.316406-5.722656-6.132812-12.09375-28.6875-13.582031-36.242187-1.480469-7.453125-1.5-31.984375-2.164063-35.980469-.667968-4.003906.042969-3.707031.664063-5.84375.90625-3.117188,4.570312-8.175781,6.445312-10.0625c7.195313-7.195312,1.582031,48.085938,5.796875,68.8125" fill="#737373"/><path d="M161.648438,311.332031c0,7.054688,6.398437,25.4375,5.992187,33.707031-.398437,8.257813,1.273437,22.644532,1.542969,23.847657-2.800782-6.527344-4.132813-20.648438-4.261719-27.574219-.128906-6.9375-4.734375-18.921875-4.207031-22.925781.535156-3.996094.933594-7.054688.933594-7.054688" fill="#737373"/><path d="M171.625,291.632812c1.257812,5.449219,6.289062,64.195313,1.257812,70.726563-2.125-3.597656-3.691406-35.039063-8.554687-47.699219-2.53125-6.574218.195313-15.121094,1.386719-19.652344.378906-1.46875,4.191406-7.65625,4.191406-7.65625l1.71875,4.28125" fill="#737373"/></g><g transform="translate(0 0.000001)"><path d="M114.984375,362.027344c-10.792969,12.585937-8.089844,43.425781-6.296875,51.617187c1.800781,8.195313,2.035156,9.636719,5.808594,9.582031c1.476562-.019531,4.816406-2.117187,4.222656-8.914062-.597656-6.796875.132812-25.625.132812-33.171875c0-4.402344,1.199219-25.820313,1.199219-25.820313l-5.066406,6.707032" fill="#737373"/><path d="M122.003906,370.882812c1.488282,15.582032.3125,35.023438,0,40.902344-.296875,5.597656-.574218,10.914063,2.089844,11.441406c2.664062.535157,9.082031-7.945312,10.273438-15.742187.953124-6.195313-.710938-19.410156-1.792969-25.28125-1.535157-8.304687-3.449219-11.320313-5.523438-15.582031-2.070312-4.261719-4.039062-9.0625-4.390625-11.058594-.34375-2-.65625,15.320312-.65625,15.320312" fill="#737373"/><path d="M115.09375,427.175781c1.8125.042969,3.320312,1.421875,3.542969,3.214844c1.285156,10.339844,2.320312,35.9375,2.082031,37.609375-.269531,1.871094-1.175781,10.644531-2,6.632812-2.429688-11.792968-3.882812-28.898437-5.335938-35.972656-1.394531-6.824218-3.855468-8.488281-1.191406-10.625c1.359375-1.082031,1.121094-.90625,2.902344-.859375" fill="#737373"/><path d="M122.972656,428.570312c-2.21875,2.535157.140625,47.105469.539063,47.132813.398437.03125,1.46875-14.359375,3.464843-22.617187c2-8.257813,2.074219-21.816407,2.0625-21.851563-.804687-3.191406-4.390624-3.8125-6.066406-2.664063" fill="#737373"/><path d="M184.699219,362.027344c10.785156,12.585937,8.09375,43.425781,6.289062,51.617187-1.792969,8.195313-2.023437,9.636719-5.804687,9.582031-1.480469-.019531-4.820313-2.117187-4.21875-8.914062s-.128906-25.625-.128906-33.171875c0-4.402344-1.203126-25.820313-1.203126-25.820313l5.066407,6.707032" fill="#737373"/><path d="M177.683594,370.882812c-1.5,15.582032-.316406,35.023438,0,40.902344.292968,5.597656.570312,10.914063-2.089844,11.441406-2.664062.535157-9.082031-7.945312-10.285156-15.742187-.953125-6.195313.722656-19.410156,1.804687-25.28125c1.535157-8.304687,3.449219-11.320313,5.519531-15.582031s4.042969-9.0625,4.382813-11.058594c.351563-2,.667969,15.320312.667969,15.320312" fill="#737373"/><path d="M184.589844,427.175781c-1.8125.042969-3.320313,1.421875-3.542969,3.214844-1.285156,10.339844-2.320313,35.9375-2.078125,37.609375.265625,1.871094,1.171875,10.644531,1.996094,6.632812c2.433594-11.792968,3.882812-28.898437,5.328125-35.972656c1.40625-6.824218,3.863281-8.488281,1.199219-10.625-1.359376-1.082031-1.117188-.90625-2.902344-.859375" fill="#737373"/><path d="M176.710938,428.570312c2.21875,2.535157-.148438,47.105469-.535157,47.132813-.40625.03125-1.472656-14.359375-3.46875-22.617187s-2.070312-21.816407-2.0625-21.851563c.804688-3.191406,4.394531-3.8125,6.066407-2.664063" fill="#737373"/></g><g><path d="M72.492188,190.226562c-1.074219,8.921876-6.132813,49.234376-9.460938,57.890626-.265625,4.121093,12.539062-21.234376,14.039062-29.675782c1.183594-6.695312-.851562-19.6875-2.320312-22.878906-1.460938-3.199219-2.257812-5.335938-2.257812-5.335938" fill="#737373"/><path d="M86.410156,198.890625c-1.265625,1-1.980468,2.636719-2.042968,2.792969-6.003907,15.664062-8.445313,27.761718-15.609376,41.632812-.480468.925782-1.40625,3.523438-2.535156,3.863282c4.003906-1.199219,10.191406-18.417969,18.058594-32.140626c1.710938-2.980468,6.519531-14.945312,6.929688-16.554687.292968-1.203125-3.746094-.433594-4.800782.40625" fill="#737373"/><path d="M67.859375,198.828125c-1.996094,8.257813-4.632813,34-10.496094,49.289063c4.800781-3.203126,7.730469-14.585938,8.527344-19.253907c1.699219-9.878906,3.050781-20.761719,3.726563-30.75.0625-.988281.089843-2.765625-1.082032-3.078125-.574218,1.128906-.492187,2.550782-.675781,3.792969" fill="#737373"/><path d="M227.191406,190.226562c1.074219,8.921876,6.132813,49.234376,9.460938,57.890626.269531,4.121093-12.539063-21.234376-14.035156-29.675782-1.183594-6.695312.847656-19.6875,2.308593-22.878906c1.472657-3.199219,2.265625-5.335938,2.265625-5.335938" fill="#737373"/><path d="M213.277344,198.890625c1.265625,1,1.976562,2.636719,2.03125,2.792969c6.003906,15.664062,8.453125,27.761718,15.621094,41.632812.472656.925782,1.40625,3.523438,2.523437,3.863282-3.996094-1.199219-10.191406-18.417969-18.058594-32.140626-1.703125-2.980468-6.519531-14.945312-6.917969-16.554687-.296874-1.203125,3.734376-.433594,4.800782.40625" fill="#737373"/><path d="M231.828125,198.828125c1.996094,8.257813,4.632813,34,10.492187,49.289063-4.796874-3.203126-7.730468-14.585938-8.535156-19.253907-1.691406-9.878906-3.039062-20.761719-3.714844-30.75-.066406-.988281-.09375-2.765625,1.082032-3.078125.570312,1.128906.488281,2.550782.675781,3.792969" fill="#737373"/></g></svg>
