<svg id="em98dN6kMUb1" xmlns="http://www.w3.org/2000/svg" xmlns:xlink="http://www.w3.org/1999/xlink" viewBox="0 0 112.5 112.499997" shape-rendering="geometricPrecision" text-rendering="geometricPrecision">
<style><![CDATA[
#em98dN6kMUb318_ts {animation: em98dN6kMUb318_ts__ts 5000ms linear infinite normal forwards}@keyframes em98dN6kMUb318_ts__ts { 0% {transform: translate(56.25px,54.227111px) scale(0.928914,0.967317)} 30% {transform: translate(56.25px,54.227111px) scale(0.928914,0.967317)} 40% {transform: translate(56.25px,54.227111px) scale(1.022218,1.12689)} 50% {transform: translate(56.25px,54.227111px) scale(1,1)} 60% {transform: translate(56.25px,54.227111px) scale(0.9,0.93)} 70% {transform: translate(56.25px,54.227111px) scale(0.928937,0.97)} 100% {transform: translate(56.25px,54.227111px) scale(0.928937,0.97)}}
]]></style>
<g transform="translate(2 0)"><path d="M2.000718,2.001784l59.706135.000001" transform="matrix(0 0.753495-.75 0 29.505275 25.267898)" fill="none" stroke="#fff" stroke-width="4" stroke-linecap="round"/><path d="M2.002587,1.997887h69.034757" transform="matrix(0 0.749679-.75 0 50.885175 25.262398)" fill="none" stroke="#fff" stroke-width="4" stroke-linecap="round"/><path d="M2.000038,2.001156l6.142493-.001488" transform="matrix(-.739596-.002089 0.002119-.749997 34.400775 27.999198)" fill="none" stroke="#fff" stroke-width="4" stroke-linecap="round"/><path d="M2.000927,1.99984l4.66378-.000412" transform="matrix(-.779779-.002579 0.002481-.749996 49.371775 27.999198)" fill="none" stroke="#fff" stroke-width="4" stroke-linecap="round"/><path d="M2.002667,1.999278l7.301279.002807" transform="matrix(-.730288-.001852 0.001902-.749998 42.825875 30.442598)" fill="none" stroke="#fff" stroke-width="4" stroke-linecap="round"/><path d="M1.997618,2.001931h2.525774" transform="matrix(0 0.805755-.75 0 35.907675 25.263498)" fill="none" stroke="#fff" stroke-width="4" stroke-linecap="round"/><path d="M1.997618,1.997604h2.525774" transform="matrix(0 0.805755-.75 0 44.377075 25.263498)" fill="none" stroke="#fff" stroke-width="4" stroke-linecap="round"/><path d="M2.000401,2.002356h12.152757" transform="matrix(-.743466 0 0-.75 44.643475 47.374798)" fill="none" stroke="#fff" stroke-width="4" stroke-linecap="round"/><path d="M2.002236,1.998137h10.491473" transform="matrix(0 0.724919-.75 0 34.951775 36.218498)" fill="none" stroke="#fff" stroke-width="4" stroke-linecap="round"/><path d="M2.002236,2.001275h10.491473" transform="matrix(0 0.724919-.75 0 45.543975 36.218498)" fill="none" stroke="#fff" stroke-width="4" stroke-linecap="round"/><g transform="translate(-1.703125-4.666002)" clip-path="url(#em98dN6kMUb28)"><g><g clip-path="url(#em98dN6kMUb26)"><g><g clip-path="url(#em98dN6kMUb24)"><g><g clip-path="url(#em98dN6kMUb22)"><g><path d="M46.28125,42.386719c-.175781.175781-.460938.175781-.636719,0-2.984375-2.984375-7.839843-2.984375-10.824219,0-.175781.175781-.460937.175781-.632812,0-.175781-.171875-.175781-.457031,0-.632813C35,40.9375,35.953125,40.304688,37.015625,39.875c1.023437-.414062,2.105469-.625,3.214844-.625c1.113281,0,2.195312.210938,3.21875.625c1.0625.429688,2.011719,1.0625,2.828125,1.878906.175781.175782.175781.460938.003906.632813Zm0,0"/></g><clipPath id="em98dN6kMUb22" transform="translate(0 0.000001)"><path d="M33.867188,42.070312l6.367187-6.363281l6.363281,6.363281-6.363281,6.363282Zm0,0" transform="translate(0 0.000001)"/></clipPath></g></g><clipPath id="em98dN6kMUb24" transform="translate(0 0.000001)"><path d="M33.867188,42.070312l6.367187-6.363281l6.363281,6.363281-6.363281,6.363282Zm0,0" transform="translate(0 0.000001)"/></clipPath></g></g><clipPath id="em98dN6kMUb26" transform="translate(0 0.000001)"><path d="M33.867188,42.070312l6.367187-6.363281l6.363281,6.363281-6.363281,6.363282Zm0,0" transform="translate(0 0.000001)"/></clipPath></g></g><clipPath id="em98dN6kMUb28"><path d="M34,39h13v4h-13Zm0,0"/></clipPath></g><g transform="translate(-1.703125-4.666002)" clip-path="url(#em98dN6kMUb37)"><g><g clip-path="url(#em98dN6kMUb35)"><g><path d="M27.632812,29.667969h27.371094v18.769531h-27.371094Zm0,0" fill="#fff"/></g><clipPath id="em98dN6kMUb35"><path d="M32.476562,40.082031c4.601563-5.085937,8.476563-5.8125,10.777344-5.570312c1.816406.242187,3.511719.847656,4.601563,2.058593c1.210937,1.210938,2.664062,4.238282,2.300781,5.449219-.242188.847657-2.058594,1.816407-2.664062,1.574219s-1.332032-2.542969-1.089844-3.269531c.242187-.484375,1.210937-.847657,1.816406-.847657s1.453125.484376,1.695312.96875c.242188.605469.121094,2.058594-.363281,2.542969-.363281.484375-1.210937.847657-1.816406.605469-1.089844-.363281-1.9375-4.117188-3.511719-4.84375-1.695312-.726562-4.601562-.363281-6.296875.363281-1.453125.605469-2.542969,3.511719-3.511719,3.390625-.726562,0-1.9375-2.421875-1.9375-2.421875"/></clipPath></g></g><clipPath id="em98dN6kMUb37" transform="translate(0 0.000001)"><path d="M32.445312,34.214844h18.171876v9.679687h-18.171876Zm0,0" transform="translate(0 0.000001)"/></clipPath></g><g transform="translate(-1.703125-4.666002)" clip-path="url(#em98dN6kMUb46)"><g><g clip-path="url(#em98dN6kMUb44)"><g><path d="M30.054688,31h21.921874v16.105469h-21.921874Zm0,0" fill="#fff"/></g><clipPath id="em98dN6kMUb44"><path d="M43.617188,41.050781c-3.996094-2.300781-6.296876-1.210937-7.386719-1.574219-.605469-.242187-1.210938-.726562-1.332031-1.332031s.242187-2.058593.847656-2.300781s2.90625.726562,3.027344,1.332031-1.695313,2.421875-2.300782,2.300781-1.695312-2.421874-1.332031-3.027343c.605469-1.089844,6.660156-1.453125,8.71875-.363281c1.695313.847656,3.390625,3.753906,3.269531,4.84375-.121094.605468-1.089844,1.332031-1.695312,1.332031s-1.816406-1.210938-1.816406-1.210938"/></clipPath></g></g><clipPath id="em98dN6kMUb46"><path d="M34.765625,35h12.5v7.324219h-12.5Zm0,0"/></clipPath></g><g transform="translate(-1.703125-4.666002)" clip-path="url(#em98dN6kMUb55)"><g><g clip-path="url(#em98dN6kMUb53)"><g><path d="M29.085938,32.453125h13.441406v13.320313h-13.441406Zm0,0" fill="#fff"/></g><clipPath id="em98dN6kMUb53"><path d="M35.867188,37.296875c1.9375,1.9375.96875,3.511719.363281,3.632813s-2.300781-1.574219-2.179688-2.179688s2.300781-1.574219,2.785157-1.210938.605468,2.664063.121093,3.027344-2.90625-.484375-3.027343-1.089844c-.121094-.484374,1.695312-2.179687,1.695312-2.179687"/></clipPath></g></g><clipPath id="em98dN6kMUb55"><path d="M33.761719,37.136719h4.09375v3.863281h-4.09375Zm0,0"/></clipPath></g><g transform="translate(-1.703125-4.666002)" clip-path="url(#em98dN6kMUb64)"><g><g clip-path="url(#em98dN6kMUb62)"><g><path d="M28.359375,32.089844h14.894531v14.894531h-14.894531Zm0,0" fill="#fff"/></g><clipPath id="em98dN6kMUb62"><path d="M33.566406,38.992188c4.117188-1.9375,4.84375-.847657,4.84375-.242188s-.726562,1.695312-1.332031,1.816406-1.695313-.363281-2.058594-.847656-.242187-1.695312.121094-2.179688s1.695313-.726562,2.300781-.484374c.484375.242187.96875.847656.96875,1.453124-.121094.96875-2.179687,3.390626-3.269531,3.632813-.726563.121094-1.695313-.242187-1.9375-.726563-.363281-.484374.363281-2.421874.363281-2.421874"/></clipPath></g></g><clipPath id="em98dN6kMUb64" transform="translate(0 0.000001)"><path d="M33,36.804688h5.425781v5.46875h-5.425781Zm0,0" transform="translate(0 0.000001)"/></clipPath></g><g transform="translate(-1.703125-4.666002)" clip-path="url(#em98dN6kMUb73)"><g><g clip-path="url(#em98dN6kMUb71)"><g><path d="M28.238281,31.96875h15.015625v16.226562h-15.015625Zm0,0" fill="#fff"/></g><clipPath id="em98dN6kMUb71"><path d="M33.082031,40.929688c4.238281-4.117188,5.207031-3.269532,5.328125-2.664063s-.363281,1.695313-.847656,2.058594c-.484375.242187-1.332031.242187-1.816406,0-.484375-.363281-1.089844-1.453125-.96875-2.058594s1.089844-1.332031,1.695312-1.453125c.484375-.121094,1.332032.363281,1.695313.726562s.363281,1.089844.242187,1.695313c-.242187,1.089844-1.9375,3.753906-2.90625,4.117187-.605468.242188-1.695312,0-2.058594-.363281s-.363281-2.058593-.363281-2.058593"/></clipPath></g></g><clipPath id="em98dN6kMUb73"><path d="M33.050781,36.660156h5.511719v6.972656h-5.511719Zm0,0"/></clipPath></g><g transform="translate(-1.703125-4.666002)" clip-path="url(#em98dN6kMUb82)"><g><g clip-path="url(#em98dN6kMUb80)"><g><path d="M29.570312,33.179688h13.441407v13.320312h-13.441407Zm0,0" fill="#fff"/></g><clipPath id="em98dN6kMUb80"><path d="M36.351562,38.023438c1.9375,1.9375,1.089844,3.511718.484376,3.632812s-2.421876-1.453125-2.300782-2.058594s2.300782-1.574218,2.785156-1.332031.605469,2.664063.121094,3.027344-2.90625-.484375-3.027344-1.089844c-.121093-.484375,1.695313-2.179687,1.695313-2.179687"/></clipPath></g></g><clipPath id="em98dN6kMUb82"><path d="M34.246094,38.019531h3.753906v3.800781h-3.753906Zm0,0"/></clipPath></g><g transform="translate(-1.703125-4.666002)" clip-path="url(#em98dN6kMUb91)"><g><g clip-path="url(#em98dN6kMUb89)"><g><path d="M28.359375,31.96875h17.316406v15.378906h-17.316406Zm0,0" fill="#fff"/></g><clipPath id="em98dN6kMUb89"><path d="M34.292969,38.871094c5.085937-1.9375,6.417969-.605469,6.539062,0c0,.484375-.605469,1.210937-1.089843,1.453125-.605469.242187-1.9375.121093-2.179688-.363281-.363281-.484376.121094-2.785157.726562-3.027344s2.542969.96875,2.542969,1.695312c0,.96875-4.117187,3.875-5.570312,3.875-.847657,0-1.9375-.726562-2.058594-1.332031s1.089844-2.300781,1.089844-2.300781"/></clipPath></g></g><clipPath id="em98dN6kMUb91"><path d="M33.027344,36.65625h7.847656v5.886719h-7.847656Zm0,0"/></clipPath></g><g transform="translate(-1.703125-4.666002)" clip-path="url(#em98dN6kMUb100)"><g transform="translate(.000001 0)"><g clip-path="url(#em98dN6kMUb98)"><g transform="translate(.000001 0)"><path d="M25.210938,32.089844h14.53125v24.828125h-14.53125Zm0,0" transform="translate(.000001 0)" fill="#fff"/></g><clipPath id="em98dN6kMUb98"><path d="M31.144531,50.132812C30.539062,37.660156,31.75,36.8125,32.355469,36.933594s1.574219,2.300781,1.332031,3.027344c-.121094.484374-.96875.96875-1.574219.96875s-1.816406-.847657-2.058593-1.453126c-.121094-.605468.242187-1.9375.847656-2.179687.605468-.363281,2.058594-.121094,2.785156.605469c1.453125,1.574218,1.9375,9.929687,1.210938,12.230468-.363282.96875-1.089844,1.9375-1.695313,1.9375s-2.058594-1.9375-2.058594-1.9375"/></clipPath></g></g><clipPath id="em98dN6kMUb100"><path d="M30,36.746094h5.65625v15.417968h-5.65625Zm0,0"/></clipPath></g><g transform="translate(-1.703125-4.666002)" clip-path="url(#em98dN6kMUb109)"><g><g clip-path="url(#em98dN6kMUb107)"><g><path d="M24.484375,26.277344h16.710937v30.277344h-16.710937Zm0,0" fill="#fff"/></g><clipPath id="em98dN6kMUb107"><path d="M29.328125,49.890625C31.023438,31.96875,32.71875,31.605469,33.566406,31.96875c.96875.484375,1.9375,4.117188,1.695313,4.238281s-3.027344-2.058593-3.148438-3.027343c-.121093-.605469.484375-1.574219.96875-1.816407C33.6875,31,35.140625,31.242188,35.625,31.605469s.847656,1.210937.726562,1.816406-.605468,1.332031-1.089843,1.574219-1.574219.242187-2.058594,0-1.210937-1.089844-1.089844-1.574219c.121094-.726563,1.9375-2.421875,2.664063-2.300781.605468.121094,1.332031,1.210937,1.574218,2.058594.363282,1.089843.242188,3.269531-.121093,4.238281-.242188.726562-.847657,1.332031-1.453125,1.574219s-1.695313.242187-2.300782,0-.96875-.847657-1.332031-1.574219c-.484375-1.089844-1.453125-3.511719-.96875-4.480469.363281-.726562,2.179688-1.453125,2.90625-1.210938.605469.242188.847657,1.332032,1.089844,2.542969.484375,3.027344.242187,14.53125-1.332031,16.589844-.605469.847656-1.695313,1.089844-2.300782.847656s-1.210937-1.816406-1.210937-1.816406"/></clipPath></g></g><clipPath id="em98dN6kMUb109"><path d="M29.316406,31h7.441406v21h-7.441406Zm0,0"/></clipPath></g><g transform="translate(-1.703125-4.666002)" clip-path="url(#em98dN6kMUb118)"><g><g clip-path="url(#em98dN6kMUb116)"><g><path d="M27.511719,26.398438h21.917969v16.105468h-21.917969Zm0,0" fill="#fff"/></g><clipPath id="em98dN6kMUb116"><path d="M36.109375,32.816406c.847656,1.9375,5.8125.484375,7.144531,1.089844.726563.363281,1.210938.847656,1.332032,1.453125s-.363282,1.816406-.847657,2.179687-1.453125.363282-1.9375.121094-1.210937-1.089844-1.089843-1.574218c.121093-.726563,1.816406-2.300782,2.421874-2.179688s1.695313,2.300781,1.210938,3.027344c-.726562,1.089844-7.265625,1.089844-9.082031.605468-.96875-.242187-1.453125-.605468-1.9375-1.210937-.605469-.847656-1.210938-2.664063-.96875-3.511719.121093-.726562.847656-1.453125,1.453125-1.574218s2.300781,1.574218,2.300781,1.574218"/></clipPath></g></g><clipPath id="em98dN6kMUb118"><path d="M32.050781,31.117188h12.84375v6.882812h-12.84375Zm0,0"/></clipPath></g><g transform="translate(-1.703125-4.666002)" clip-path="url(#em98dN6kMUb127)"><g><g clip-path="url(#em98dN6kMUb125)"><g><path d="M39.742188,26.640625h15.746093v21.3125h-15.746093Zm0,0" fill="#fff"/></g><clipPath id="em98dN6kMUb125"><path d="M48.460938,33.058594c-.96875,5.570312-1.9375,5.691406-2.542969,5.570312-.484375-.121094-1.210938-.726562-1.332031-1.332031-.121094-1.210937,2.058593-5.207031,3.269531-5.691406.726562-.242188,1.9375.121093,2.421875.847656c1.089844,1.453125,1.089844,8.355469,0,9.808594-.484375.726562-1.816406.96875-2.421875.726562s-1.453125-1.453125-1.332031-2.179687c.121093-.605469,1.089843-1.695313,1.695312-1.816406s1.453125.242187,1.816406.605468.726563,1.332032.605469,1.9375c-.242187.605469-1.332031,1.574219-1.9375,1.574219-.726563,0-1.695313-.605469-2.058594-1.453125-.726562-1.453125-.847656-6.054688.121094-7.265625.605469-.726563,3.027344-.96875,3.269531-.605469.363282.484375-1.695312,4.359375-2.785156,4.722656-.847656.242188-2.179688-.363281-2.664062-1.210937-.605469-1.089844-.242188-4.601563.605468-5.449219.484375-.605468,1.816406-.605468,2.421875-.363281.484375.242187.847657,1.574219.847657,1.574219"/></clipPath></g></g><clipPath id="em98dN6kMUb127"><path d="M44,31.21875h7.429688v12.074219h-7.429688Zm0,0"/></clipPath></g><g transform="translate(-1.703125-4.666002)" clip-path="url(#em98dN6kMUb136)"><g><g clip-path="url(#em98dN6kMUb134)"><g><path d="M24.847656,31.605469h12.957032v12.714843h-12.957032Zm0,0" fill="#fff"/></g><clipPath id="em98dN6kMUb134"><path d="M32.960938,37.296875c-1.574219,2.421875-2.90625,1.9375-3.269532,1.453125s-.121094-1.9375.363282-2.300781s2.421874.121093,2.421874.121093"/></clipPath></g></g><clipPath id="em98dN6kMUb136"><path d="M29.304688,36.078125h3.691406v3.675781h-3.691406Zm0,0"/></clipPath></g><g transform="translate(-1.703125-4.666002)" clip-path="url(#em98dN6kMUb145)"><g><g clip-path="url(#em98dN6kMUb143)"><g><path d="M24.484375,30.394531h13.441406v13.683594h-13.441406Zm0,0" fill="#fff"/></g><clipPath id="em98dN6kMUb143"><path d="M29.328125,37.054688c2.542969-1.816407,3.753906-.363282,3.753906.242187s-.96875,1.453125-1.574219,1.574219c-.484374.121094-1.210937-.242188-1.574218-.605469-.363282-.484375-.484375-1.695313-.242188-2.179687s.96875-.847657,1.453125-.847657s1.332031.242188,1.574219.726563c.363281.484375.363281,1.816406,0,2.421875-.242188.484375-.96875.847656-1.453125.847656-.605469,0-1.9375-1.574219-1.9375-1.574219"/></clipPath></g></g><clipPath id="em98dN6kMUb145"><path d="M29.316406,35.207031h3.78125v4.0625h-3.78125Zm0,0"/></clipPath></g><g transform="translate(-1.703125-4.666002)" clip-path="url(#em98dN6kMUb154)"><g><g clip-path="url(#em98dN6kMUb152)"><g><path d="M43.011719,33.785156h13.082031v16.105469h-13.082031Zm0,0" fill="#fff"/></g><clipPath id="em98dN6kMUb152"><path d="M51.246094,40.324219c-.96875,4.722656-2.785156,4.84375-3.148438,4.359375-.484375-.484375-.121094-2.785156.363282-3.027344s2.664062.847656,2.785156,1.453125c.121094.484375-.605469,1.695313-1.210938,1.9375s-1.695312,0-2.179687-.605469c-.605469-.847656-.605469-4.480468.121093-5.328125.484376-.484375,1.453126-.726562,2.058594-.484375.484375.242188,1.210938,1.695313,1.210938,1.695313"/></clipPath></g></g><clipPath id="em98dN6kMUb154"><path d="M47.203125,38.378906h4.1875v6.921875h-4.1875Zm0,0"/></clipPath></g><g transform="translate(-1.703125-4.666002)" clip-path="url(#em98dN6kMUb163)"><g><g clip-path="url(#em98dN6kMUb161)"><g><path d="M25.332031,34.753906h31.246094v27.855469h-31.246094Zm0,0" fill="#fff"/></g><clipPath id="em98dN6kMUb161"><path d="M49.671875,41.414062c.484375,15.503907.242187,16.230469-.242187,16.351563-.726563.242187-2.542969-.242187-3.148438-1.332031-1.210938-1.941406,0-10.054688,1.210938-12.113282.605468-.96875,1.695312-1.695312,2.421874-1.574218s1.453126,1.089844,1.820313,2.058594c.605469,1.453124.484375,4.601562,0,6.539062-.488281,1.695312-1.335937,4.117188-2.546875,4.601562-1.089844.363282-2.179688-1.089843-3.875-1.332031-3.148438-.484375-11.625,1.210938-13.683594-.121093-.96875-.605469-1.574218-2.058594-1.332031-2.785157C30.539062,51.101562,31.75,50.375,32.476562,50.375c.605469,0,1.453126.605469,1.695313,1.089844s.242187,1.574218,0,2.058594-1.089844,1.089843-1.695313,1.089843-1.453124-.242187-1.816406-.726562-.726562-1.453125-.484375-2.058594s1.089844-1.210937,2.179688-1.574219c2.664062-.847656,11.382812-.847656,14.53125.121094c1.695312.605469,3.753906,2.058594,3.632812,2.542969-.121093.363281-2.664062.96875-3.390625.363281-1.089844-.96875-.605468-7.265625.363282-8.960938.484374-.96875,1.695312-1.574218,2.421874-1.574218.605469,0,1.210938.484375,1.574219,1.089844.488281.96875.488281,3.027343.246094,4.84375-.246094,2.542968-.972656,8.359374-2.304687,9.085937-.847657.484375-2.300782-.121094-3.027344-.96875-1.089844-1.335937-.605469-5.332031-.605469-8.117187s-.363281-7.386719.605469-8.597657c.484375-.605469,1.574218-.726562,2.058594-.484375.605468.242188,1.210937,1.816406,1.210937,1.816406"/></clipPath></g></g><clipPath id="em98dN6kMUb163"><path d="M30,39.324219h22.425781v18.675781L30,58Zm0,0"/></clipPath></g><g transform="translate(-1.703125-4.666002)" clip-path="url(#em98dN6kMUb172)"><g><g clip-path="url(#em98dN6kMUb170)"><g><path d="M27.148438,53.886719h28.460937v32.941406h-28.460937Zm0,0" fill="#fff"/></g><clipPath id="em98dN6kMUb170"><path d="M47.007812,80.167969c-.121093-19.011719.242188-19.617188.847657-19.859375s1.695312-.121094,2.300781.605468c1.457031,1.9375.96875,14.289063-.242188,16.832032-.484374.96875-1.210937,1.574218-1.816406,1.574218-.726562,0-1.574218-.605468-2.300781-1.574218-1.574219-2.300782-3.632813-12.351563-3.148437-14.894532.121093-.96875.605468-1.695312,1.210937-1.9375s1.695313-.242187,2.300781.363282c1.332032,1.574218,1.210938,11.261718.121094,13.441406-.484375.96875-1.574219,1.574219-2.179688,1.453125-.726562-.121094-1.332031-.847656-1.816406-1.9375-.96875-2.421875-1.210937-11.382813-.484375-13.5625.242188-.847656.726563-1.453125,1.332031-1.574219.484376-.121094,1.453126,0,1.9375.605469c1.210938,1.574219.96875,9.929687.363282,13.199219-.363282,2.058594-1.089844,4.359375-1.9375,4.722656-.605469.242188-1.574219-.242188-2.179688-.847656-.847656-.726563-1.332031-2.179688-1.816406-3.753906-.726562-2.300782-2.058594-7.144532-1.816406-9.203126.121094-1.089843.363281-2.058593.96875-2.421874.484375-.363282,1.695312-.363282,2.179687.242187c1.332031,1.332031,1.574219,10.777344.484375,12.59375-.484375.847656-1.453125,1.210937-2.058594,1.089844s-1.332031-.605469-1.695312-1.574219c-.726562-2.300781,1.089844-11.746094,2.421875-13.804688.484375-.847656,1.210937-1.210937,1.816406-1.210937.484375,0,1.210938.242187,1.574219.847656.96875,1.574219.605469,8.355469,0,11.140625-.363281,1.695313-1.089844,3.632813-2.058594,3.996094-.726562.363281-2.179687-.242188-2.90625-.96875-1.089844-1.089844-1.210937-4.238281-1.453125-6.417969-.242187-2.300781-.726562-5.570312-.121093-7.023437.363281-.726563,1.089843-1.453125,1.695312-1.453125s1.574219.363281,1.9375,1.089843c.96875,1.695313,0,8.355469-.726562,11.140626-.484376,1.816406-1.332032,4.117187-2.179688,4.238281-.605469.121093-1.574219-.847657-2.058594-1.9375-.96875-2.058594-.96875-9.082031-.121094-11.019531.363282-.847657,1.089844-1.332032,1.695313-1.453126s1.574219.242188,1.9375.96875c.847656,1.574219-.242187,7.992188-1.210937,10.050782-.605469,1.210937-1.453126,2.179687-2.179688,2.300781-.484375.121094-1.089844-.363281-1.574219-.847656-.726562-.847657-1.089843-2.664063-1.332031-4.359375-.242188-2.179688-.847656-6.902344.121094-7.507813.605468-.363281,2.785156.605469,3.027344,1.210938.242187.484375-.121094,1.332031-.484376,1.695312-.484374.484375-1.695312.726563-2.300781.484375-.484375-.242187-1.089843-.96875-1.089843-1.574218c0-.484376.242187-1.453126.726562-1.695313.605469-.363281,2.421875,0,3.148438.847656c1.332031,1.574219,2.421874,8.234375,1.695312,10.050781-.363281.96875-1.332031,1.695313-1.9375,1.695313s-1.574219-.847656-1.9375-1.816406c-.605469-1.9375.726562-8.960938,1.816406-10.535157.484375-.605468.96875-.96875,1.574219-.96875s1.453125.242188,1.9375.96875c1.089844,1.695313.96875,10.050782.121094,11.988282-.363281.847656-.96875,1.453125-1.574219,1.453125s-1.695312-.847657-2.058594-1.9375c-.847656-2.300781.121094-11.019531,1.332032-13.078125.605468-.96875,1.574218-1.574219,2.179687-1.453125s1.332031.96875,1.695313,1.9375c.847656,2.058593,1.574218,8.960937.605468,10.414062-.363281.726563-1.453125,1.089844-1.9375.847657-1.089844-.726563-.484375-10.292969.605469-12.109376.484375-.847656,1.210937-1.210937,1.816406-1.210937.484375,0,1.210938.242187,1.574219.847656.96875,1.816407-.605469,12.59375-2.058594,14.652344-.605468.847656-1.453125,1.210937-2.058594,1.089844s-1.332031-.726563-1.695312-1.574219c-.847656-1.9375-1.210938-9.566406.121094-11.261719.726562-.847656,2.179687-1.332031,3.148437-.847656c1.9375,1.089844,4.601563,11.746094,4.117188,14.167969-.242188.96875-.847657,1.695312-1.453125,1.816406-.726563.121094-1.9375-.605469-2.542969-1.695312-1.210937-2.421876-.121094-12.835938.847656-15.257813.363281-.847656.726563-1.453125,1.332031-1.574219.484376-.121094,1.453126,0,1.9375.605469c1.453126,1.695313,2.300782,12.714844,1.210938,15.015625-.484375.96875-1.574219,1.574219-2.179688,1.453125-.726562-.121094-1.453124-.847656-1.816406-1.9375-.847656-2.179687-.363281-9.929687.363282-11.867187.242187-.847657.726562-1.210938,1.210937-1.453126.605469-.242187,1.574219-.242187,2.300781.363282c1.816406,1.695312,4.480469,13.199218,3.753906,15.984375-.242187,1.089843-1.089843,1.9375-1.816406,2.058593s-1.816406-.605468-2.300781-1.574218c-1.210937-2.421875-.121094-12.835938.726563-15.5.363281-.96875.726562-1.695313,1.332031-1.9375s1.695312-.121094,2.300781.605468c1.699219,2.058594,1.457031,16.347657.605469,19.253907-.242188.96875-.726563,1.695312-1.210938,1.816406-.605469.121094-2.542969-1.816406-2.542969-1.816406"/></clipPath></g></g><clipPath id="em98dN6kMUb172"><path d="M31.820312,58.648438h20.117188v23.351562h-20.117188Zm0,0"/></clipPath></g><g transform="translate(-1.703125-4.666002)" clip-path="url(#em98dN6kMUb181)"><g><g clip-path="url(#em98dN6kMUb179)"><g><path d="M24.605469,56.675781h31.125v30.394531h-31.125Zm0,0" fill="#fff"/></g><clipPath id="em98dN6kMUb179"><path d="M35.019531,63.699219c.121094,5.328125-.605469,6.175781-1.210937,6.296875-.484375.121094-1.210938,0-1.695313-.484375-.96875-.847657-2.785156-4.480469-2.300781-5.328125.242188-.605469,1.695312-.96875,2.421875-.484375c1.574219.96875,3.996094,10.171875,3.148437,12.109375-.484374.96875-1.816406,1.453125-2.785156,1.453125-.847656,0-2.179687-.847657-2.664062-1.574219-.363282-.484375-.605469-1.210938-.484375-1.816406s.605469-1.332032,1.332031-1.574219c1.210938-.484375,3.632812-.121094,5.933594.484375c3.632812.847656,11.382812,3.996094,13.199218,5.570312.726563.605469.96875,1.089844.96875,1.695313s-.363281,1.453125-.847656,1.816406-1.453125.484375-2.058594.242188-1.210937-.847657-1.332031-1.453125.121094-1.453125.484375-1.9375s1.332032-.847656,1.9375-.726563c.726563.242188,1.9375,1.816407,1.816406,2.542969s-1.332031,1.574219-2.664062,1.695312c-3.269531.363282-16.710938-4.117187-18.285156-6.539062-.605469-.96875-.121094-2.785156.363281-3.148438s2.421875.363282,2.664063.96875c.242187.484376-.847657,2.300782-1.332032,2.300782-.605468,0-1.332031-2.542969-1.695312-4.238282-.605469-2.542968-1.574219-8.476562-.484375-9.6875.605469-.605468,1.9375-.605468,2.664062-.363281s1.453125.726563,1.9375,1.574219c.726563,1.089844,1.816407,3.875,1.332031,5.085938-.363281.96875-1.816406,1.9375-2.542968,1.816406-.484375,0-.96875-.726563-1.210938-1.332032-.484375-1.210937-.726562-4.480468-.121094-5.570312.484376-.726562,1.695313-1.210938,2.300782-1.089844.484375.121094,1.210937,1.695313,1.210937,1.695313"/></clipPath></g></g><clipPath id="em98dN6kMUb181"><path d="M28.253906,61.1875h22.746094v21.488281h-22.746094Zm0,0"/></clipPath></g><path d="M1.998695,1.999306l27.113062.001614" transform="matrix(.70453 0.2505-.251258 0.706661 28.105875 69.662698)" fill="none" stroke="#fff" stroke-width="4" stroke-linecap="round"/><g transform="translate(-1.703125-4.666002)" clip-path="url(#em98dN6kMUb191)"><g><g clip-path="url(#em98dN6kMUb189)"><g><path d="M26.847656,49.644531h26.550782v18.449219h-26.550782Zm0,0" fill="#fff"/></g><clipPath id="em98dN6kMUb189"><path d="M46.722656,55.945312c-.898437,8.476563-1.875,8.175782-2.175781,7.648438-.675781-1.046875.152344-6.074219.902344-7.347656.375-.601563.972656-1.125,1.421875-1.050782.375.074219.828125.675782,1.050781,1.273438.375.976562.675781,3.675781.152344,4.203125-.300781.296875-1.351563.148437-1.652344-.152344-.222656-.300781-.222656-1.050781,0-1.5.226563-.597656,1.125-1.648437,1.5-1.574219.527344.074219,1.277344,3.148438,1.125,3.226563-.074219.074219-.523437-.828125-.898437-.902344s-1.199219.601563-1.425782.375c-.300781-.300781.300782-2.925781.824219-3.300781.375-.222656,1.125,0,1.5.300781.449219.375.601563,1.574219.75,2.175781.074219.449219.226563,1.199219.074219,1.273438-.148438.078125-.523438-.671875-.824219-.75-.375-.074219-1.050781.75-1.425781.601562-.75-.300781-1.875-3.675781-1.574219-4.425781.152344-.375.675781-.597656,1.050781-.597656.523438.074219,1.425782.972656,1.875,1.5.300782.375.75.972656.601563,1.273437-.152344.375-1.050781.75-1.578125.675782-.75-.074219-1.796875-1.875-2.324219-1.726563-.523437.152344-.148437,2.324219-.675781,2.851563-.375.449218-1.199219.75-1.648438.597656-.375-.148438-.75-.75-.824218-1.273438-.074219-.898437,1.347656-3.675781,1.425781-3.675781.074219,0-1.050781,4.875-1.875,5.851563-.375.449218-.976563.75-1.351563.675781-.449218-.078125-.898437-.527344-1.125-1.050781-.300781-.902344.148438-4.050782.675782-4.425782.300781-.148437.898437.074219,1.125.375.375.601563-.152344,3-.527344,3.898438-.222656.527344-.449219.976562-.824219,1.125-.375.152344-1.125.078125-1.5-.375-.75-.824219-.898437-4.648438-.523437-6.148438.222656-.898437.75-1.800781,1.273437-2.101562.375-.222656.902344-.074219,1.351563.078125.75.296875,2.097656,1.273437,2.398437,1.949219.226563.449218.226563,1.125,0,1.5-.222656.300781-.75.449218-1.347656.523437-1.351563.152344-6.078125-.375-6.300781-.972656-.074219-.300781.675781-1.050781.898437-.976563.601563.148438,1.726563,5.324219,1.125,6.375-.300781.601563-1.5.898438-1.949219.75-.300781-.148437-.523437-.523437-.601562-1.050781-.148438-1.050781.453125-4.125,1.050781-5.023437.300781-.527344.824219-.902344,1.199219-.824219.453125.074219,1.203125.75,1.351562,1.421875.300782,1.203125-.824218,4.726562-1.648437,5.625-.453125.453125-1.050781.601562-1.5.527344-.527344-.074219-1.125-.675782-1.425781-1.199219-.300782-.527344-.300782-1.050781-.375-1.875-.152344-1.578125-.527344-5.550781-.074219-6.75.148437-.453125.449219-.828125.75-.902344.449219-.074219,1.421875.300781,1.722656.902344.601563,1.199219-.375,5.097656-.824219,7.125-.300781,1.574219-.601562,3.523437-1.273437,4.125-.375.375-.976563.449219-1.351563.296875-.375-.148438-.75-.449219-1.050781-1.046875-.75-1.351563-2.097656-6.527344-1.425781-7.953125.375-.75,1.5-1.273438,2.101562-1.199219.523438.074219,1.273438.75,1.273438,1.199219c0,.453125-.75,1.277344-1.273438,1.425781-.523437.152344-1.574218-.375-1.949218-.824219-.300782-.300781-.449219-.824218-.300782-1.199218.148438-.449219.898438-.976563,1.5-1.050782.675782-.074218,1.726563.226563,2.25.824219.75.902344,1.199219,3.75.898438,4.800781-.222656.601563-.824219,1.199219-1.273438,1.199219-.375,0-1.050781-.449219-1.199218-.824219-.152344-.375.375-.976562.300781-1.425781-.152344-.523437-1.203125-1.050781-1.125-1.5.074219-.375.75-1.050781,1.199219-1.050781s1.199218.453125,1.347656.828125c.152344.296875.078125.898437-.148438,1.199219s-.75.597656-1.125.523437c-.449218-.148437-1.273437-1.347656-1.199218-1.800781.074218-.375.972656-.898438,1.425781-.75.671875.226562,1.796875,2.476562,1.796875,3.300781c0,.527344-.296875,1.125-.671875,1.351563-.300781.222656-.902344.222656-1.203125,0-.597656-.449219-1.199219-2.550782-1.125-3.375.078125-.527344.828125-1.050782.75-1.199219-.148438-.152344-1.199219.597656-1.574219.449219-.375-.152344-.898437-1.125-.824219-1.5.074219-.449219.898438-.976563,1.425782-.976563.597656,0,1.800781.75,2.023437,1.277344.152344.375,0,1.046875-.300781,1.347656-.296875.300781-1.421875.601563-1.5.449219-.074219-.148438.527344-1.046875.75-1.046875.226562,0,.601562.523437.75,1.046875.375,1.125.75,4.875.152344,5.625-.300782.375-1.125.527344-1.351563.226562-.75-.75,1.199219-10.273437,2.402344-10.800781.523437-.222656,1.347656.300781,1.722656.902344.75,1.273437.824219,7.273437.226563,7.648437-.300782.148438-1.050782-.300781-1.199219-.75-.300781-.824218.671875-3.675781,1.347656-4.273437.375-.375,1.050781-.375,1.425781-.226563s.675782.675782.75,1.273438c.148438,1.050781-.375,3.828125-1.050781,4.726562-.449219.601563-1.273437.976563-1.722656.898438-.375-.074219-.601563-.597656-.828125-1.199219-.523438-1.347656-1.722656-6-.75-7.199219.828125-.976562,3.527344-.601562,5.101562-.375c1.425782.226563,3.449219.675782,3.824219,1.425782.226563.523437-.375,1.800781-.75,2.023437-.300781.152344-.898437-.074219-1.199219-.300781-.300781-.296875-.375-1.347656-.523437-1.347656-.226563,0,.148437,3.824218-.453125,4.347656-.375.300781-1.347656.226562-1.648438-.148438-.449218-.523437,0-2.773437.523438-3.675781.453125-.75,1.425781-1.722656,2.101562-1.648437.601563,0,1.425782.898437,1.726563,1.722656.375,1.203125-.152344,4.203125-.75,5.027344-.375.449218-.976563.75-1.351563.675781-.449218-.078125-.976562-.675781-1.125-1.050781s-.074218-.75.074219-1.277344c.300781-1.199219,1.574219-4.273438,2.699219-5.171875.75-.601563,1.726562-.902344,2.402344-.75.675781.148437,1.574218,1.046875,1.800781,1.796875.222656.75,0,1.800781-.375,2.550781-.453125.902344-1.875,2.402344-2.550781,2.402344-.449219,0-.976563-.601563-1.125-1.050781-.152344-.449219-.074219-.902344,0-1.5.148437-.902344.449218-2.777344,1.199218-3.300782.601563-.449218,1.800782-.375,2.625-.148437.824219.222656,1.574219.824219,2.175782,1.5.75.824219,1.800781,2.398437,1.875,3.222656.074218.449219-.074219.902344-.375,1.125-.300782.300781-1.125.601563-1.574219.449219-.527344-.222656-1.125-1.421875-1.351563-2.023438-.148437-.449218-.300781-.898437-.074218-1.199218.222656-.375,1.273437-.75,1.722656-.527344.675781.375,1.5,3.601562,1.125,4.425781-.222656.449219-1.046875.75-1.5.675781-.375-.074218-.824219-.449218-1.046875-.976562-.375-.75-.828125-2.699219-.527344-3.523438.226563-.601562.976563-1.125,1.425781-1.125s.976563.675782,1.199219,1.273438c.300781.828125.152344,2.625-.300781,3.226562-.375.449219-1.199219.824219-1.648438.675782-.449218-.152344-.898437-1.125-.976562-1.652344-.074219-.449219.152344-1.125.300781-1.199219.152344-.074219.449219.75.75.824219.375.152344,1.125-.449219,1.351563-.222656.222656.222656,0,1.050781-.152344,1.5-.148438.375-.222656.898437-.523438,1.125-.375.300781-1.425781.449218-1.875.222656-.300781-.148438-.449218-.449219-.601562-.972656-.296875-1.125-.375-5.476563.300781-6.152344.300781-.296875.824219-.222656,1.125-.074219.375.152344.601563.601563.75,1.199219.300781,1.351562-.375,5.851562-1.125,6.976562-.375.523438-.972656.824219-1.347656.824219-.300781,0-.675781-.222656-.902344-.675781-.597656-1.125-.675781-6.296875-.148437-7.648438.222656-.601562.675781-1.125,1.050781-1.125s1.273437,1.125,1.273437,1.125"/></clipPath></g></g><clipPath id="em98dN6kMUb191"><path d="M29.234375,52.382812h21.257813v12.902344h-21.257813Zm0,0"/></clipPath></g></g><g transform="translate(-2 0)"><path d="M2.000737,1.998019h59.706135" transform="matrix(0 0.753495-.75 0 86.189875 24.783498)" fill="none" stroke="#fff" stroke-width="4" stroke-linecap="round"/><path d="M1.998056,2.000319l27.076184.001497" transform="matrix(.705894-.248903 0.249405 0.707317 63.020375 76.924298)" fill="none" stroke="#fff" stroke-width="4" stroke-linecap="round"/><path d="M1.997398,2.00157h69.039967" transform="matrix(0 0.749679-.75 0 65.825375 24.777998)" fill="none" stroke="#fff" stroke-width="4" stroke-linecap="round"/><path d="M1.997844,1.999464l3.96106.001275" transform="matrix(-.754415-.002717 0.002701-.749995 70.290875 27.514798)" fill="none" stroke="#fff" stroke-width="4" stroke-linecap="round"/><path d="M2.000194,2.001137l6.142493-.001492" transform="matrix(-.739596-.00209 0.002119-.749997 85.893075 27.514798)" fill="none" stroke="#fff" stroke-width="4" stroke-linecap="round"/><path d="M2.00244,1.999257l7.301279.002806" transform="matrix(-.730288-.001852 0.001902-.749998 78.739775 29.958198)" fill="none" stroke="#fff" stroke-width="4" stroke-linecap="round"/><path d="M1.997638,2.000388h2.525774" transform="matrix(0 0.805755-.75 0 71.879175 24.779098)" fill="none" stroke="#fff" stroke-width="4" stroke-linecap="round"/><path d="M1.997638,2.001274h2.525774" transform="matrix(0 0.805755-.75 0 80.348575 24.779098)" fill="none" stroke="#fff" stroke-width="4" stroke-linecap="round"/><path d="M2.000169,2.00234h12.152757" transform="matrix(-.743466 0 0-.75 80.557375 46.890398)" fill="none" stroke="#fff" stroke-width="4" stroke-linecap="round"/><path d="M2.002256,1.998245h10.491473" transform="matrix(0 0.724919-.75 0 71.158875 35.734098)" fill="none" stroke="#fff" stroke-width="4" stroke-linecap="round"/><path d="M2.002256,2.000497h10.491473" transform="matrix(0 0.724919-.75 0 81.558975 35.734098)" fill="none" stroke="#fff" stroke-width="4" stroke-linecap="round"/><g transform="translate(-1.703125-4.666002)" clip-path="url(#em98dN6kMUb220)"><g><g clip-path="url(#em98dN6kMUb218)"><g><g clip-path="url(#em98dN6kMUb216)"><g><g clip-path="url(#em98dN6kMUb214)"><g><path d="M82.902344,41.902344c-.175782.175781-.460938.175781-.636719,0-2.984375-2.984375-7.839844-2.984375-10.824219,0-.175781.175781-.460937.175781-.632812,0-.175782-.171875-.175782-.457032,0-.632813.8125-.816406,1.765625-1.449219,2.828125-1.878906c1.023437-.414063,2.105469-.625,3.214843-.625c1.113282,0,2.195313.210937,3.21875.625c1.0625.429687,2.011719,1.0625,2.828126,1.878906.175781.175781.175781.460938.003906.632813Zm0,0"/></g><clipPath id="em98dN6kMUb214" transform="translate(0 0.000001)"><path d="M70.488281,41.585938l6.367188-6.363282l6.363281,6.363282-6.363281,6.363281Zm0,0" transform="translate(0 0.000001)"/></clipPath></g></g><clipPath id="em98dN6kMUb216" transform="translate(0 0.000001)"><path d="M70.488281,41.585938l6.367188-6.363282l6.363281,6.363282-6.363281,6.363281Zm0,0" transform="translate(0 0.000001)"/></clipPath></g></g><clipPath id="em98dN6kMUb218" transform="translate(0 0.000001)"><path d="M70.488281,41.585938l6.367188-6.363282l6.363281,6.363282-6.363281,6.363281Zm0,0" transform="translate(0 0.000001)"/></clipPath></g></g><clipPath id="em98dN6kMUb220"><path d="M70,38h14v5h-14Zm0,0"/></clipPath></g><g transform="translate(-1.703125-4.666002)" clip-path="url(#em98dN6kMUb229)"><g transform="translate(.000001 0.000001)"><g clip-path="url(#em98dN6kMUb227)"><g transform="translate(.000001 0.000001)"><path d="M62.921875,31.242188h26.640625v17.4375h-26.640625Zm0,0" transform="translate(.000001 0.000001)" fill="#fff"/></g><clipPath id="em98dN6kMUb227"><path d="M67.765625,40.929688c5.933594-5.207032,9.6875-5.691407,11.867187-4.84375c2.058594.726562,4.601563,3.632812,4.964844,5.085937.242188.847656-.242187,2.058594-.847656,2.421875s-2.664062-.121094-2.90625-.726562.96875-3.027344,1.574219-3.148438s2.421875,1.816406,2.300781,2.542969c0,.605469-1.210938,1.574219-2.058594,1.574219-1.210937,0-2.542968-3.027344-4.117187-3.632813-1.695313-.605469-4.117188-.726563-5.691407-.121094s-2.90625,3.753907-3.753906,3.632813c-.726562-.121094-1.332031-2.785156-1.332031-2.785156"/></clipPath></g></g><clipPath id="em98dN6kMUb229"><path d="M67.707031,35.195312h17.171875v8.785157h-17.171875Zm0,0"/></clipPath></g><g transform="translate(-1.703125-4.666002)" clip-path="url(#em98dN6kMUb238)"><g><g clip-path="url(#em98dN6kMUb236)"><g><path d="M63.648438,32.695312h15.378906v16.105469h-15.378906Zm0,0" fill="#fff"/></g><clipPath id="em98dN6kMUb236"><path d="M68.492188,41.171875c4.238281-3.753906,5.449218-3.148437,5.570312-2.542969s-1.089844,2.664063-1.695312,2.664063-1.9375-1.9375-1.816407-2.542969s1.332031-1.210938,1.9375-1.210938s1.574219.726563,1.695313,1.453126c.121094,1.089843-2.421875,4.601562-3.511719,4.964843-.605469.242188-1.574219-.121093-1.9375-.605469s-.242187-2.179687-.242187-2.179687"/></clipPath></g></g><clipPath id="em98dN6kMUb238" transform="translate(.000001 0)"><path d="M68.332031,37.414062h6.007813v6.796876h-6.007813Zm0,0" transform="translate(.000001 0)"/></clipPath></g><g transform="translate(-1.703125-4.666002)" clip-path="url(#em98dN6kMUb247)"><g><g clip-path="url(#em98dN6kMUb245)"><g><path d="M60.378906,25.429688h29.910156v20.464843h-29.910156Zm0,0" transform="translate(-.221937 0)" fill="#fff"/></g><clipPath id="em98dN6kMUb245"><path d="M69.703125,32.332031c-1.210937,8.355469-2.179687,8.839844-2.785156,8.71875s-1.574219-1.089843-1.695313-2.058593c-.242187-1.816407,2.542969-8.113282,3.996094-8.71875.847656-.363282,2.179688.363281,2.542969,1.089843.484375.726563-.121094,2.300781-.242188,3.511719-.121093,1.453125,0,3.511719-.726562,4.480469-.605469.847656-2.542969,1.695312-3.148438,1.453125s-1.089843-1.816406-.847656-2.664063c.242187-1.210937,2.300781-3.269531,3.753906-3.753906c1.574219-.484375,4.601563-.121094,5.328125.726563.484375.605468.242188,2.179687-.242187,2.785156-.484375.484375-1.816407.847656-2.542969.605468s-1.9375-1.210937-2.058594-1.9375.605469-1.695312,1.574219-2.300781c1.9375-1.089843,9.6875-1.574219,11.503906-.605469.847657.484376,1.332031,1.453126,1.332031,2.179688s-1.089843,1.9375-1.695312,1.9375c-.726562,0-2.542969-1.695312-2.542969-2.421875s1.9375-1.9375,2.664063-1.816406s1.816406,2.058593,1.574218,2.785156c-.484374,1.089844-4.359374,1.816406-6.539062,2.179687-1.9375.363282-4.480469.605469-5.8125,0-.96875-.363281-1.9375-1.210937-2.058594-1.9375s.847656-1.9375,1.574219-2.300781s2.542969-.121093,3.027344.484375.605469,2.300782,0,3.148438c-.96875,1.453125-6.660157,3.390625-7.992188,2.90625-.726562-.242188-.96875-.847656-1.089843-1.695313C66.3125,37.296875,68.007812,31,69.21875,30.273438c.605469-.363282,1.453125,0,1.9375.363281.484375.484375.726562,1.332031.726562,2.300781-.121093,1.695312-1.816406,5.8125-2.90625,7.023438-.605468.726562-1.453124,1.210937-2.058593,1.089843s-1.453125-1.089843-1.695313-2.058593c-.484375-1.574219-.121094-5.8125.847656-7.144532.605469-.847656,1.816407-1.453125,2.421876-1.332031s1.210937,1.816406,1.210937,1.816406"/></clipPath></g></g><clipPath id="em98dN6kMUb247"><path d="M65,30h20.730469v11.339844h-20.730469Zm0,0"/></clipPath></g><g transform="translate(-1.703125-4.666002)" clip-path="url(#em98dN6kMUb256)"><g><g clip-path="url(#em98dN6kMUb254)"><g><path d="M75.152344,25.914062h16.46875v35.484376h-16.46875Zm0,0" transform="translate(-.221937 0)" fill="#fff"/></g><clipPath id="em98dN6kMUb254"><path d="M85.566406,32.574219c-.605468,4.117187-1.574218,4.722656-2.300781,4.84375-.605469.121093-1.453125.121093-1.9375-.363281-.726563-.726563-1.695313-3.511719-1.332031-4.601563.242187-.847656,1.574218-1.574219,2.300781-1.574219.605469,0,1.089844.484375,1.574219,1.089844c1.089844,1.332031,2.542968,4.601562,2.90625,7.628906.484375,4.238282-.121094,13.804688-1.9375,15.863282-.847656.847656-2.421875,1.09375-3.027344.726562-.605469-.363281-.96875-1.695312-.847656-2.421875.121094-.605469.847656-1.332031,1.453125-1.453125.726562-.121094,2.058593.363281,2.421875.96875s.121094,2.058594-.242188,2.542969-1.332031.972656-1.9375.730469c-.726562-.246094-1.453125-1.214844-1.695312-2.546876-.605469-2.785156,2.300781-10.535156,1.816406-14.410156-.363281-2.785156-3.148438-5.8125-2.664062-7.144531.363281-.847656,2.058593-1.695313,2.664062-1.453125s1.332031,3.148438,1.089844,3.269531-2.058594-1.089843-2.058594-1.695312s1.574219-1.816407,2.179688-1.816407s1.574218,1.816407,1.574218,1.816407"/></clipPath></g></g><clipPath id="em98dN6kMUb256" transform="translate(0 0.000001)"><path d="M79.589844,30.628906h7.410156v26.195313h-7.410156Zm0,0" transform="translate(0 0.000001)"/></clipPath></g><g transform="translate(-1.703125-4.666002)" clip-path="url(#em98dN6kMUb265)"><g><g clip-path="url(#em98dN6kMUb263)"><g><path d="M61.710938,33.664062h14.773437v24.101563h-14.773437Zm0,0" fill="#fff"/></g><clipPath id="em98dN6kMUb263"><path d="M70.1875,40.566406c.242188,11.382813-.847656,12.351563-1.574219,12.351563-.605469,0-1.332031-.726563-1.695312-1.574219-.605469-1.574219-.121094-6.417969.726562-7.871094.484375-.847656,1.332031-1.453125,2.058594-1.453125.605469,0,1.9375.96875,1.9375,1.574219c0,.726562-1.574219,2.300781-2.300781,2.421875-.605469,0-1.332032-.605469-1.574219-1.089844s-.121094-1.453125.121094-1.9375.96875-.96875,1.574219-.96875s1.453124.242188,1.816406.847657c.726562.96875.605468,4.117187.363281,5.691406-.121094,1.210937-.242187,2.664062-.96875,3.269531-.605469.605469-2.179687,1.210937-2.90625.726563-1.453125-1.089844-2.179687-10.777344-1.210937-12.714844.484374-.847656,1.574218-1.453125,2.179687-1.332032s1.453125,2.058594,1.453125,2.058594"/></clipPath></g></g><clipPath id="em98dN6kMUb265"><path d="M66,38.371094h6L72,53h-6Zm0,0"/></clipPath></g><g transform="translate(-1.703125-4.666002)" clip-path="url(#em98dN6kMUb274)"><g transform="translate(0 0.000001)"><g clip-path="url(#em98dN6kMUb272)"><g transform="translate(0 0.000001)"><path d="M62.074219,39.234375h24.945312v21.921875h-24.945312Zm0,0" transform="translate(-.221937 0.000001)" fill="#fff"/></g><clipPath id="em98dN6kMUb272"><path d="M71.519531,45.894531c-.847656,10.292969-2.664062,10.414063-3.390625,9.929688-.96875-.605469-1.574218-3.875-1.210937-5.085938.242187-.847656,1.332031-1.695312,1.9375-1.816406s1.332031.363281,1.695312.847656c.484375.605469-.121093,2.421875.484375,2.785157.96875.605468,4.722656-1.9375,5.933594-1.453126.726562.242188,1.453125,1.332032,1.453125,1.9375s-.484375,1.574219-1.210937,1.9375c-1.332032.726563-5.691407.363282-7.023438-.242187-.726562-.363281-1.210938-.847656-1.332031-1.453125-.242188-.726562.242187-2.300781.726562-2.90625.363281-.484375.96875-.605469,1.816407-.726562c1.695312-.363282,6.660156-.484376,8.234374,0c.726563.242187,1.089844.363281,1.332032.847656.242187.605468.242187,2.179687-.363282,2.785156-.726562.726562-3.148437.96875-4.238281.726562-.847656-.242187-1.816406-.847656-1.9375-1.453124-.121093-.726563.605469-2.300782,1.453125-2.785157c1.089844-.605469,3.875.121094,4.964844.726563.726562.363281,1.210938.847656,1.332031,1.453125s0,1.574219-.484375,1.9375c-.484375.484375-1.9375.726562-2.542968.484375s-1.332032-1.089844-1.210938-1.695313c.121094-.726562,1.9375-2.300781,2.664062-2.300781.605469,0,1.332032.726562,1.453126,1.332031s-.121094,1.9375-.726563,2.421875c-.96875.726563-4.84375.484375-5.933594-.363281-.726562-.605469-1.210937-1.9375-.96875-2.664063s1.816407-1.332031,2.785157-1.453124c1.089843-.121094,3.269531.121093,3.753906.847656.484375.605468.242187,2.179687-.363282,2.785156-.96875.847656-4.601562.726562-6.054687.484375-.96875-.242187-1.9375-.605469-2.179687-1.089844s.121093-1.453125.605468-1.816406c.726563-.484375,3.632813-.121094,4.480469.484375.605469.484375,1.089844,1.574219.96875,2.179688s-.484375,1.210937-1.210937,1.574218c-1.574219.726563-7.871094,1.089844-9.445313-.121094-.96875-.847656-1.210937-3.148437-.847656-4.238281.242187-.847656,1.332031-1.695312,1.9375-1.816406s1.210937.242187,1.695312.847656c.726563.847657,1.332031,3.511719,1.089844,4.722657-.121094.847656-.726563,1.574218-1.332031,1.816406-.605469.246094-1.695313.125-2.179688-.484375-1.089844-1.332031-1.210937-8.476563-.363281-10.292969.484375-.847656,1.453125-1.574219,2.058594-1.453125s1.695312,1.816406,1.695312,1.816406"/></clipPath></g></g><clipPath id="em98dN6kMUb274" transform="translate(.000001 0)"><path d="M66.457031,44h15.882813v12.617188h-15.882813Zm0,0" transform="translate(.000001 0)"/></clipPath></g><g transform="translate(-1.703125-4.666002)" clip-path="url(#em98dN6kMUb283)"><g><g clip-path="url(#em98dN6kMUb281)"><g><path d="M60.863281,54.613281h30.636719v32.457031h-30.636719Zm0,0" transform="translate(-.221937 0)" fill="#fff"/></g><clipPath id="em98dN6kMUb281"><path d="M69.460938,62.367188c-.484376,16.46875-2.300782,16.226562-2.300782,16.105468-.121094-.363281,14.410156-2.90625,16.105469-6.296875c1.332031-2.542969-3.027344-7.871093-2.664063-10.050781.242188-1.210938,1.089844-2.542969,1.816407-2.664062s1.9375.96875,2.421875,2.058593c.96875,2.058594,1.210937,8.476563.363281,10.292969-.363281.847656-1.210937,1.453125-1.9375,1.453125-.605469,0-1.453125-.363281-2.058594-1.210937-1.210937-1.574219-2.90625-7.992188-2.179687-9.808594.363281-1.089844,1.816406-1.9375,2.542968-1.816406.605469.121093,1.332032.96875,1.574219,1.816406.363281,1.574218-.847656,6.296875-1.695312,7.75-.363281.726562-.847657,1.210937-1.453125,1.332031-.726563.121094-1.9375-.363281-2.421875-1.210937-.96875-1.453126-.726563-7.144532-.121094-8.71875.242187-.726563.726563-1.332032,1.332031-1.453126.726563-.121093,2.058594.484376,2.664063,1.453126c1.332031,2.179687.96875,11.382812,0,13.804687-.363281,1.089844-1.210938,1.816406-1.816407,1.9375s-1.332031-.363281-1.9375-1.089844c-1.210937-1.695312-2.785156-8.355469-2.421874-10.535156.121093-1.089844.726562-2.179687,1.332031-2.300781s2.058593.484375,2.542969,1.453125c.96875,1.816406-.484376,8.71875-1.210938,10.777343-.363281.96875-.605469,1.695313-1.210938,1.9375s-1.574218.121094-2.179687-.484374c-1.453125-1.816407-1.574219-13.683594-.605469-15.984376.363282-.847656.96875-1.332031,1.574219-1.332031.726563,0,1.816406.726563,2.179687,1.816407.726563,2.542968-3.269531,15.136718-5.207031,15.863281-.847656.363281-2.058593-.484375-2.664062-1.574219-1.210938-2.179688-.96875-10.898438,0-12.957031.363281-.847657.96875-1.332031,1.574219-1.332031s1.574218.484374,2.058593,1.332031c1.089844,2.058593.96875,11.503906,0,13.683593-.363281.847657-.96875,1.332032-1.574219,1.453126s-1.332031-.242188-1.9375-.96875c-1.453124-1.816407-3.269531-11.019532-2.785156-13.5625.242188-1.089844.96875-2.058594,1.574219-2.179688s1.574219.605469,1.9375,1.453125c.847656,1.9375-2.785156,10.292969-1.210937,11.746094c1.453124,1.332031,7.265624-2.179688,9.082031-1.695313.96875.242188,1.695312.96875,1.816406,1.574219s-.484375,1.574219-1.332031,2.058594c-1.453125.847656-6.78125,1.210937-7.628906.121093-.726563-.96875.484374-3.996093,1.574218-5.328124s3.511719-2.421876,5.207032-2.421876c1.816406,0,4.964843,1.695313,5.449218,2.90625.363282.847657-.242187,2.421876-.847656,2.785157-.484375.363281-1.9375,0-2.300781-.484375-.363281-.605469.121093-2.785156.726562-3.148438.484375-.242187,1.9375.242188,2.300781.726563.363282.363281.484376,1.332031.242188,1.816406s-.726562,1.089844-1.332031,1.210937c-.847657.121094-2.300781-1.816406-3.632813-2.058593s-4.238281.847656-4.238281.96875s3.996094-1.089844,4.84375-.484375c.605469.363281,1.210937,1.574218.847656,2.300781-.605469,1.210937-5.449219,2.542969-7.75,2.90625-1.695312.363281-3.632812.363281-4.722656,0-.726563-.242187-1.332031-.484375-1.695313-1.332031-.847656-1.695313-.121093-7.144532.121094-9.808594.242188-1.816406.242188-3.511719.96875-4.480469.484375-.726562,1.453125-1.332031,2.058594-1.332031.484375,0,.96875.363281,1.332031.96875c1.210938,1.9375,3.632813,12.835938,2.664063,14.773438-.363282.726562-1.210938,1.089843-1.816406.96875s-1.210938-.605469-1.574219-1.453126c-.96875-2.179687-.96875-11.625,0-13.683593.363281-.847657.96875-1.332031,1.574219-1.332031s1.574218.484374,2.058593,1.332031c1.089844,2.179687.484375,13.441406-.96875,14.53125-.484375.363281-1.574219,0-2.058593-.363281-.363282-.363282-.605469-.847657-.605469-1.574219-.121094-1.9375,1.453125-8.113281,2.664062-10.898438.847657-2.058593,2.058594-4.722656,3.027344-4.84375.726563-.121093,1.695313.726563,2.179687,1.816407c1.210938,2.421874,1.089844,12.230468.121094,14.53125-.363281.96875-.96875,1.453124-1.574218,1.574218s-1.574219-.242187-1.9375-.96875c-.96875-1.695312.121093-10.050781.96875-11.988281.363281-.726563.726562-1.210937,1.332031-1.332031s1.816406.242187,2.421875,1.089844C80.359375,66,82.175781,73.75,81.328125,75.6875c-.363281.96875-1.574219,1.574219-2.179687,1.453125s-1.332032-.847656-1.695313-1.9375c-.96875-2.421875-.847656-11.625,0-13.804687.363281-.847657.726563-1.332032,1.332031-1.453126.726563-.121093,2.058594.484376,2.664063,1.453126.96875,1.574218.726562,7.023437,0,8.597656-.363281.726562-.847657,1.210937-1.453125,1.332031-.726563.121094-2.058594-.363281-2.421875-1.210937-.726563-1.453126.484375-6.902344,1.574219-8.355469.605468-.847657,1.695312-1.453125,2.421874-1.332031.605469.121093.96875.605468,1.453126,1.332031.96875,1.695312,2.785156,8.234375,2.179687,10.050781-.363281.847656-1.210937,1.453125-1.9375,1.453125-.605469,0-1.574219-.363281-2.058594-1.210937-1.089843-1.695313-1.453125-8.960938-.605469-10.898438.363282-.96875,1.089844-1.574219,1.816407-1.695312.605469-.121094,1.574219.242187,2.179687,1.089843c1.332032,1.695313,2.300782,8.476563,2.058594,11.261719-.121094,1.695312-.242188,2.785156-1.453125,3.996094-2.542969,2.542968-14.167969,6.78125-17.195313,6.417968-1.210937-.121093-1.695312-.484374-2.300781-1.574218-1.453125-2.664063-1.089843-15.378906,0-18.285156.363281-1.089844,1.089844-1.9375,1.695313-1.9375s2.058594,1.9375,2.058594,1.9375"/></clipPath></g></g><clipPath id="em98dN6kMUb283"><path d="M64.210938,59.304688h22.742187v23.328124h-22.742187Zm0,0"/></clipPath></g><g transform="translate(-1.703125-4.666002)" clip-path="url(#em98dN6kMUb292)"><g><g clip-path="url(#em98dN6kMUb290)"><g><path d="M60.378906,72.78125h13.441406v13.441406h-13.441406Zm0,0" fill="#fff"/></g><clipPath id="em98dN6kMUb290"><path d="M65.222656,79.441406c2.542969-1.816406,3.753906-.484375,3.753906.121094s-.96875,1.574219-1.574218,1.695312c-.484375.121094-1.210938-.242187-1.574219-.605468s-.605469-1.210938-.484375-1.695313s1.089844-1.332031,1.695312-1.332031s1.574219.605469,1.816407,1.210938s0,1.816406-.484375,2.179687-1.574219.605469-2.058594.363281-1.089844-1.453125-1.089844-1.453125"/></clipPath></g></g><clipPath id="em98dN6kMUb292"><path d="M65.207031,77.609375h3.792969v4.042969h-3.792969Zm0,0"/></clipPath></g><g transform="translate(-1.703125-4.666002)" clip-path="url(#em98dN6kMUb301)"><g><g clip-path="url(#em98dN6kMUb299)"><g><path d="M61.226562,69.996094h13.441407v13.320312h-13.441407Zm0,0" fill="#fff"/></g><clipPath id="em98dN6kMUb299"><path d="M68.007812,74.839844c1.816407,2.542968.96875,3.632812.363282,3.632812s-2.300782-1.453125-2.179688-2.058594s2.300782-1.574218,2.785156-1.332031.605469,2.664063.121094,3.027344-2.90625-.484375-3.027344-1.089844c-.121093-.484375,1.695313-2.179687,1.695313-2.179687"/></clipPath></g></g><clipPath id="em98dN6kMUb301"><path d="M66,74.832031h3.835938v3.644531h-3.835938Zm0,0"/></clipPath></g><g transform="translate(-1.703125-4.666002)" clip-path="url(#em98dN6kMUb310)"><g><g clip-path="url(#em98dN6kMUb308)"><g><path d="M63.191406,50.8125h25.050782v18.597656h-25.050782Zm0,0" fill="#fff"/></g><clipPath id="em98dN6kMUb308"><path d="M70.691406,55.761719c-.222656,5.324219-.898437,5.847656-1.273437,5.847656s-.824219-.523437-1.050781-1.125c-.449219-1.046875-.824219-4.046875-.375-4.949219.226562-.449218.824218-.75,1.199218-.75s.902344.375,1.125.902344c.453125,1.046875.453125,4.796875-.148437,5.699219-.300781.449219-.898438.675781-1.351563.597656-.597656-.148437-1.273437-1.199219-1.574218-2.097656-.375-1.050781-.449219-3.375.074218-4.050781.375-.449219,1.351563-.601563,1.800782-.449219.375.148437.601562.597656.824218,1.125.375.972656.976563,3.375.675782,4.347656-.222657.601563-.824219,1.203125-1.199219,1.203125-.449219,0-1.125-.828125-1.351563-1.578125-.296875-1.046875.078125-3.671875.527344-4.574219.222656-.449218.597656-.824218.972656-.898437.453125-.074219,1.351563.148437,1.652344.597656.375.527344.523438,1.800781.222656,2.550781-.296875.75-1.347656,1.800782-2.097656,1.800782s-1.949219-1.050782-2.476562-1.800782c-.523438-.75-.972657-2.023437-.675782-2.773437.226563-.675781,1.425782-1.425781,2.101563-1.5.523437-.074219,1.050781.300781,1.5.75.675781.675781,1.125,1.875,1.574219,3.148437.675781,1.800782,1.574218,5.476563,1.5,6.976563c0,.75-.148438,1.425781-.523438,1.648437-.300781.226563-1.125.152344-1.5-.074218-.449219-.226563-.675781-.75-.902344-1.425782-.375-1.347656-.671875-5.550781.152344-6.675781.523438-.671875,1.722656-.898437,2.324219-.75.449219.078125.824219.527344,1.050781,1.050781.300781.824219.300781,3.527344-.300781,3.902344-.375.296875-1.5.074219-1.875-.453125-.601563-.824219-.226563-4.199219.148437-5.398437.226563-.601563.375-.976563.828125-1.351563.523438-.449219,1.796875-1.125,2.324219-.824219.75.449219.824219,3.976563.523438,5.324219-.222657.902344-.675782,1.726563-1.199219,2.101563-.375.300781-.898438.449218-1.273438.375-.453125-.148438-1.125-.75-1.351562-1.425782-.375-1.050781-.300781-4.347656.300781-4.574218.449219-.226563,1.722656,2.023437,2.472656,2.25.527344.148437,1.125.074218,1.578125-.226563.671875-.523437.671875-2.847656,1.347657-3.222656.449218-.300781,1.425781-.074219,1.726562.222656.300781.300781.449219.976563.300781,1.351563-.152343.449218-.75,1.050781-1.125,1.050781-.453125,0-1.203125-1.351563-1.5-1.277344-.226562.078125-.300781,1.125-.300781,1.125s.148438-1.125.449219-1.347656c.300781-.152344,1.050781-.152344,1.273437.148437.375.527344-.449218,3.75-.597656,3.75-.152344,0-.601562-3.222656-.074219-4.050781.449219-.597656,1.875-1.125,2.324219-.824219.675781.449219.449219,4.351563-.226562,5.402344-.449219.671875-1.347657,1.125-2.023438,1.125-.527344,0-1.277344-.226562-1.574219-.675781-.453125-.601563-.527343-1.949219-.300781-2.925781.300781-1.199219,1.347656-3.300782,2.175781-3.601563.597657-.222656,1.5.152344,2.097657.75.824218.902344,2.027343,4.652344,1.652343,4.875-.226562.152344-1.652343-.75-2.027343-1.5-.449219-.824219-.523438-2.546875-.222657-3.375.222657-.597656.671875-1.199219,1.125-1.273437.449219-.074219,1.199219.375,1.5.898437.523438.902344.597657,4.5.296875,4.578125-.222656.074219-1.199218-1.5-1.273437-2.25s.300781-1.800781.675781-2.25c.300781-.300781.75-.453125,1.125-.453125s.824219.300781,1.050781.675781c.375.675782.597657,2.851563.222657,3.375-.222657.300782-.898438.449219-1.125.300782-.300782-.226563-.222657-2.175782.152343-2.625.222657-.375.824219-.523438,1.199219-.449219s.75.222656.972656.675781c.453125.898438.375,5.398438-.222656,5.625-.449219.148438-1.726562-1.125-2.101562-2.101562-.523438-1.273438-.449219-4.050782.074218-5.023438.300782-.601562.976563-1.050781,1.425782-.976562s.976562.675781,1.125,1.273437c.226562.828125,0,2.550781-.449219,3.300781-.300781.527344-.976563.976563-1.425781.976563s-1.199219-.75-1.199219-1.125c0-.449219,1.273437-1.5,1.648437-1.425781s.976563,1.726562.75,2.101562c-.148437.375-1.199218.523438-1.574218.375-.375-.152344-.824219-.976562-.824219-1.351562s.375-.824219.675781-.976563c.300781-.148437.972656-.222656,1.273438,0c.375.300781.675781,1.652344.375,2.027344-.222657.300781-1.347657.449219-1.722657.222656-.300781-.148437-.527343-.597656-.601562-1.125-.148438-.824219.148437-2.921875.601562-3.597656.296875-.375.671875-.675781,1.046875-.675781s.976563.148437,1.277344.675781c.675781,1.125.300781,6.675781-.300781,7.875-.226563.449219-.601563.75-.976563.75-.523437,0-1.421875-.527344-1.722656-1.199219-.527344-1.050781-.074219-4.351562.375-5.328125.222656-.449219.449219-.75.824219-.898437s.976562-.148438,1.273437.148437c.375.375.527344,1.425781.527344,2.175781c0,.824219-.300781,2.175782-.75,2.625-.375.375-.976562.527344-1.425781.375-.601563-.148437-1.425781-1.050781-1.726563-1.875-.375-.972656-.597656-3.074218-.148437-3.824218.300781-.523438,1.273437-.976563,1.726562-.898438.375.074219.75.671875.898438,1.199219.148437.824219-.300781,2.472656-.75,3.375-.375.824219-1.050781,1.722656-1.648438,1.949219-.453125.148437-1.125.074218-1.5-.375-.675781-.75-1.203125-4.351563-.75-5.476563.222657-.671875,1.046875-1.273437,1.5-1.273437.375,0,.898438.449218,1.125.898437.375.675781.222657,1.953125.222657,3c0,1.050781.074218,2.476563-.300782,3.226563-.296875.523437-.75.898437-1.199218.976562-.449219.074219-1.125-.226562-1.574219-.75-.75-.902344-1.949219-4.425781-1.5-4.875.226562-.226562,1.351562,0,1.574219.375.226562.449219-.523438,2.097656-.972657,2.546875-.300781.300781-.828125.601563-1.050781.453125-.449219-.300781-.375-4.351562.300781-5.25.449219-.527344,1.5-.976562,1.949219-.675781.597656.375.75,2.625.597656,3.972656-.148437,1.351563-.523437,3.375-1.347656,4.050781-.75.601563-2.476562.75-3.074219.375-.453125-.300781-.601562-1.050781-.675781-1.800781-.152344-1.125.074219-3.222656.597656-4.421875.453125-.976562,1.351563-2.175781,2.027344-2.25.597656-.078125,1.648438.824219,1.875,1.574219.375,1.050781-.300781,3.898437-1.125,4.648437-.601562.527344-1.726562.675782-2.402344.449219-.75-.222656-1.648437-1.273437-1.949218-2.097656s-.074219-2.175781.375-2.925781s1.652343-1.5,2.476562-1.5c.675781,0,1.574219.601562,2.023438,1.050781.300781.375.527343.898437.527343,1.273437s-.226562.824219-.527343,1.050782c-.375.226562-1.199219.300781-1.5.074218-.375-.300781-.675782-1.5-.449219-1.949218.148437-.375.976562-.75,1.351562-.675782.375,0,.824219.300782.972657.75.300781.824219-.148438,3.449219-.898438,4.351563-.601562.675781-1.5.898437-2.476562,1.050781-1.199219.222656-3.300782.523438-4.199219-.078125-.675781-.449219-.898438-1.5-1.050781-2.324219-.148438-.824218-.222657-1.800781.152343-2.472656.375-.75,1.574219-1.726562,2.25-1.875.449219-.078125.972657.074219,1.273438.296875.375.300781.601562.75.675781,1.351563.074219.976562-.375,3.675781-1.050781,4.199218-.375.300782-1.199219.300782-1.425781,0-.375-.449218.449218-3.75.902343-3.898437.296875-.074219.75.449219.972657.898437.375.902344-.074219,3.375-.300782,4.351563-.148437.449219-.222656.898437-.523437,1.050781-.300781.222656-1.125.296875-1.425781,0-.449219-.375-.675782-2.703125-.449219-2.851562.148437-.074219.675781.300781.824219.75.375.824218.527343,3.824218,0,4.425781-.300782.375-1.125.375-1.574219.074219-.976563-.75-1.875-5.625-1.949219-7.125c0-.675782-.074219-1.273438.222656-1.425782.375-.148437,1.800782.601563,2.175782,1.277344.375.824219-.074219,2.847656-.449219,3.597656-.226563.449219-.449219.75-.824219.824219-.375.078125-1.125-.222656-1.5-.597656-.449219-.527344-.75-1.949219-.675781-2.699219c0-.527344.226562-1.125.523437-1.425781.375-.300781,1.351563-.675781,1.578125-.449219.375.296875-.078125,2.546875-.527343,3.074219-.300782.300781-1.050782.523437-1.347657.300781-.527343-.375-.226562-3.453125.148438-4.351562.226562-.523438.601562-.976563.976562-1.050782.296875-.074218.824219,0,1.125.375.597657.824219.898438,5.777344.222657,6.300782-.375.300781-1.347657,0-1.722657-.449219-.675781-.824219-.601562-4.5-.078125-5.476563.300782-.523437.902344-.972656,1.277344-.898437s.972656,1.125.972656,1.125"/></clipPath></g></g><clipPath id="em98dN6kMUb310" transform="translate(.000001 0)"><path d="M66,53.570312h19.796875v13.078126h-19.796875Zm0,0" transform="translate(.000001 0)"/></clipPath></g></g><path d="M1.99891,1.997701l58.21815.005139" transform="matrix(.704672 0.249538-.250355 0.706981 14.400175 73.247098)" fill="none" stroke="#fff" stroke-width="4" stroke-linecap="round"/><g transform="translate(-1.703125-2.666002)" clip-path="url(#em98dN6kMUb316)"><g transform="translate(0 2)"><path d="M1.998918,2.001659l58.196057-.004201" transform="matrix(.704667-.250114 0.25087 0.706799 56.4252 89.4875)" fill="none" stroke="#fff" stroke-width="4" stroke-linecap="round"/></g><clipPath id="em98dN6kMUb316"><path d="M41,58h71.003906v50L41,108Zm0,0"/></clipPath></g><g id="em98dN6kMUb318_ts" transform="translate(56.25,54.227111) scale(0.928914,0.967317)"><g transform="translate(-58.201172,-57.537109)"><g clip-path="url(#em98dN6kMUb326)"><g><g clip-path="url(#em98dN6kMUb324)"><g><path d="M13.910156,43.433594h10.574219v28.207031h-10.574219Zm0,0" fill="#fff"/></g><clipPath id="em98dN6kMUb324"><path d="M16.910156,43.433594h4.574219c1.65625,0,3,1.34375,3,3v22.207031c0,1.65625-1.34375,3-3,3h-4.574219c-1.65625,0-3-1.34375-3-3v-22.207031c0-1.65625,1.34375-3,3-3Zm0,0"/></clipPath></g></g><clipPath id="em98dN6kMUb326"><path d="M13.910156,43.433594h10.574219v28.207031h-10.574219Zm0,0"/></clipPath></g><g clip-path="url(#em98dN6kMUb335)"><g><g clip-path="url(#em98dN6kMUb333)"><g><path d="M91.914062,43.433594h10.578126v28.207031h-10.578126Zm0,0" fill="#fff"/></g><clipPath id="em98dN6kMUb333"><path d="M94.914062,43.433594h4.578126c1.65625,0,3,1.34375,3,3v22.207031c0,1.65625-1.34375,3-3,3h-4.578126c-1.65625,0-3-1.34375-3-3v-22.207031c0-1.65625,1.34375-3,3-3Zm0,0"/></clipPath></g></g><clipPath id="em98dN6kMUb335"><path d="M91.914062,43.433594h10.578126v28.207031h-10.578126Zm0,0"/></clipPath></g><g clip-path="url(#em98dN6kMUb344)"><g><g clip-path="url(#em98dN6kMUb342)"><g><path d="M14.304688,53.355469h83.890624v9.6875h-83.890624Zm0,0" fill="#fff"/></g><clipPath id="em98dN6kMUb342"><path d="M17.304688,53.355469h77.890624c1.65625,0,3,1.34375,3,3v3.6875c0,1.65625-1.34375,3-3,3h-77.890624c-1.65625,0-3-1.34375-3-3v-3.6875c0-1.65625,1.34375-3,3-3Zm0,0"/></clipPath></g></g><clipPath id="em98dN6kMUb344"><path d="M14.304688,53.355469h83.890624v9.6875h-83.890624Zm0,0"/></clipPath></g></g></g></svg>
