<svg id="eenwvSEpDIF1" xmlns="http://www.w3.org/2000/svg" xmlns:xlink="http://www.w3.org/1999/xlink" viewBox="0 0 300 525.000007" shape-rendering="geometricPrecision" text-rendering="geometricPrecision"><g clip-path="url(#eenwvSEpDIF5)"><g><path d="M268.453125,268.125c-.667969-.703125-4.234375-3-5.105469-3.90625-.859375-.898438-.859375-1.59375-3.265625-5.730469-2.398437-4.140625-11.355469-7.808593-12.355469-8-1-.207031-2.953124-2.660156-3.441406-4.011719-2.066406-5.566406-6.910156-24.613281-9.011718-41.621093-2.101563-17.003907-10.011719-26.613281-14.304688-32.511719.203125-16.316406-3.546875-19.707031-5.605469-24.917969.195313-4.101562,1.621094-13.011719.660157-24.734375-.761719-9.277344-12.371094-20.351562-19.578126-21.351562-4.65625-.648438-7.230468.460937-13.265624,0-6.039063-.472656-17.34375-10.613282-17.949219-11.808594-.601563-1.203125-1.859375-11.203125-.933594-12.472656.933594-1.265625,1.074219-.0625,2.007813-2.664063.9375-2.605469.429687-7.28125.429687-7.28125s.25-1,.414063-.3125c.101562.398438.304687.8125.75,1.054688.703124.359375,1.574218-1.324219,2.492187-2.917969c2.433594-4.25,4.722656-12.34375,1.351563-13.359375-.621094-.1875-1.5,1.398437-1.5,1.398437c0-.796874.796874-8.207031-.40625-12.808593-.957032-3.683594-4.558594-7.371094-7.398438-9.601563-3.472656-2.722656-10.558594-2.917968-12.316406-2.933594-.039063,0-.101563,0-.15625,0-.058594,0-.121094,0-.160156,0-1.757813.015626-8.84375.210938-12.316407,2.933594-2.839843,2.230469-6.441406,5.917969-7.40625,9.601563-1.195312,4.601562-.398437,12.011719-.398437,12.808593c0,0-.886719-1.585937-1.5-1.398437-3.371094,1.015625-1.082032,9.109375,1.351562,13.359375.917969,1.59375,1.789063,3.277344,2.480469,2.917969.457031-.242188.660156-.65625.75-1.054688.179687-.6875.429687.3125.429687.3125s-.511718,4.675781.425782,7.28125c.933594,2.601563,1.0625,1.398438,2,2.664063.933594,1.269531-.335938,11.269531-.9375,12.472656-.59375,1.195312-11.898438,11.335938-17.933594,11.808594-6.039062.460937-8.613281-.648438-13.28125,0-7.203125,1-18.804688,12.074218-19.566406,21.351562-.960938,11.722656.464844,20.632813.660156,24.734375-2.058594,5.210938-5.808594,8.601563-5.605469,24.917969-4.304687,5.898438-12.203125,15.507812-14.304687,32.511719-2.101563,17.007812-6.945313,36.054687-9,41.621093-.507813,1.351563-2.453125,3.804688-3.453125,4.011719-1,.191407-9.957031,3.859375-12.363281,8-2.398438,4.136719-2.398438,4.832031-3.269532,5.730469-.859375.90625-4.433594,3.203125-5.101562,3.90625-.667969.707031-1.128906,3.335938.742187,3.769531c1.859375.4375,6.859375-.648437,8.480469-4.304687c1.953125-1.277344,2.425781-1.296875,2.425781-1.296875s.660157,2,.566407,3.601562c-.101563,1.601563-3.390626,6.5-4.695313,9.398438-1.296875,2.910156-5.195313,8.261719-4.148437,9.761719c1.054687,1.5,2.554687,1.25,3.203124.75s4.351563-6.777344,5.074219-7.882813c.824219-1.074219,3.925781-5.074219,4.484375-5.675781-.890625,3.648437-2.324218,7.957031-2.890625,9.648437-.566406,1.707031-3.214843,6.824219-3.230469,8.574219-.039062,2.4375,1.648438,2.972656,2.765626,2.242188c3.132812-2.074219,4.890624-7.371094,5.667968-8.90625c1.316406-2.613282,2.730469-7.242188,4.066406-9.371094-.335937,2.601562-1.140624,6.183594-1.585937,9.222656-.210937,1.527344-1.5625,9.433594.160156,9.953125c2.648438.796875,3-2.25,4.046875-5.851563c1.054688-3.613281,2.351563-12.511718,3.15625-13.863281c1.195313.25,1.019532,1.101563,1.25,3.5.296875,3.160157.046875,11.011719,2.351563,11.011719c2.296875,0,2.464843-7.910156,2.761719-12.714844.304687-4.796875,1.867187-7.332031,2.675781-11.269531.796875-3.933594,2.65625-9.398437,2.527343-14-.054687-2.140625-.964843-4.039063.871094-10.878906c1.128906-4.195313,15.277344-31.882813,16.859375-34.484375c1.734375-2.816406,4.945313-11.203125,5.75-17.613282.796875-6.398437.667969-6.667968,1.066407-9.730468.398437-3.074219,1.640624-4.425782,3.203124-6.269532c1.804688-2.140624,4.398438-8.472656,6.410157-17.113281.925781-.035156,1.210937-.804687,1.664062-.5c0,0,1.195313,13.675781,3.667969,17.472657c2.464844,3.808593,1.730469,5.207031,2.269531,6.605468.527344,1.40625.257813,10.535156-.140625,15.609375s-1.5625,22.742188-2.664062,26.945313c-1.105469,4.207031-2.464844,6.003906-3.539063,11.34375-1.066406,5.335937-2.769531,12.316406-3.128906,18.871094c0,0-2.242187,15.558593-2.039063,21.417968.222657,6.269532-1.398437,48.921875,7.601563,59.328125-.433594,2.027344-.027344,5.566407.039063,6.640625.066406,1.0625-2.539063,12.140625-1.539063,19.539063c1,7.40625.601563,4.839843.398437,6.683593-.191406,1.851563-8.203124,26.667969,3.808594,72.355469.710938,2.734375,1,8.242188,1,11.140625s-1,8.613282-1,11.304688c0,2.707031-.101562,4,.5,5.707031.601563,1.703125.5,4.5.101563,6.601563s-8.511719,7.804687-9.207031,10.90625c-.703126,3.101562-1.601563,4.898437-.304688,5.808593c1.304688.898438,1.910156,0,1.910156,0s-.5,1.5.292969,2.292969c.796875.808594,3.207031.707031,3.207031.707031s.792969.191407,1.292969,1c.5.796875,2.605469,1.203125,3.105469.691407.5-.5.804687-.453126,1.203125.222656.210937.371094,1.101562.808594,1.878906,1.121094.742187.304687,1.582031.242187,2.257813-.175782l1.566406-.960937c0,0,1.296875,1.5,1.601562,1.601562.296875.101563,3.398438,1.203125,4.195313,0c.804687-1.203125,4.601562-4.101562,4.40625-7.5-.203125-3.410156-.5-5.308593-.398438-6.511719.09375-1.195312.398438-3,.898438-4.796874.5-1.804688,1.101562-2.601563.703125-6.007813-.40625-3.398437-.101563-3.601563-.101563-4.203125c0-.59375.5-2.195312.601563-4.003906.09375-1.792969-1.304688-5.5-1.304688-5.5s-.601562-3.601563-.898437-8.5c-.304688-4.90625.695312-24.214844,2.703125-30.621094c2-6.398438,3.167968-8.40625,3.398437-10c2.398438-16.910156-1.5-35.113281-2.203125-41.558594-.398437-3.667968,1.203125-4.074218,2.203125-7.769531c1-3.703125,1.796875-12.90625.707031-17.011719-.816406-3.007812,2.792969-14.007812,3.292969-17.40625.5-3.40625,7.371094-29.714844,7.742188-34.417968.363281-4.703126.835937-19.289063-.40625-21.492188.59375,0,2.277343,1.167969,2.992187,1.378906.035156.019532.082032.027344.148438.027344.0625,0,.109375-.007812.144531-.027344.714844-.210937,2.398437-1.378906,2.984375-1.378906-1.234375,2.203125-.761719,16.789062-.398438,21.492188.371094,4.703124,7.242188,31.011718,7.742188,34.417968.5,3.398438,4.101562,14.398438,3.292969,17.40625-1.089844,4.105469-.292969,13.308594.707031,17.011719c1,3.695313,2.601562,4.101563,2.203125,7.769531-.703125,6.445313-4.601563,24.648438-2.203125,41.558594.222656,1.59375,1.398438,3.601562,3.398438,10c2,6.40625,3,25.714844,2.703124,30.621094-.296874,4.898437-.898437,8.5-.898437,8.5s-1.40625,3.707031-1.304687,5.5c.101562,1.808594.601562,3.410156.601562,4.003906c0,.601562.304688.804688-.101562,4.203125-.398438,3.40625.203124,4.203125.703124,6.007813.5,1.796874.804688,3.601562.898438,4.796874.101562,1.203126-.195312,3.101563-.398438,6.511719-.203124,3.398438,3.601563,6.296875,4.398438,7.5.804688,1.203125,3.90625.101563,4.203125,0c.304687-.101562,1.601563-1.601562,1.601563-1.601562l1.554687.960937c.6875.417969,1.527344.480469,2.269531.175782.777344-.3125,1.667969-.75,1.878906-1.121094.398438-.675782.703126-.722656,1.203126-.222656.5.511718,2.605468.105468,3.105468-.691407.5-.808593,1.292969-1,1.292969-1s2.398437.101563,3.207031-.707031c.796875-.792969.296875-2.292969.296875-2.292969s.601563.898438,1.90625,0c1.296875-.910156.398438-2.707031-.304687-5.808593-.707032-3.101563-8.796875-8.804688-9.207032-10.90625-.398437-2.101563-.5-4.898438.101563-6.601563.601563-1.707031.5-3,.5-5.707031c0-2.691406-1-8.40625-1-11.304688s.28125-8.40625,1-11.140625c12.003906-45.6875,4-70.503906,3.808594-72.355469-.203125-1.84375-.601563.722657.398437-6.683593c1-7.398438-1.601562-18.476563-1.539062-19.539063.066406-1.074218.464844-4.613281.039062-6.640625c9-10.40625,7.378906-53.058593,7.601563-59.328125.203125-5.859375-2.039063-21.417968-2.039063-21.417968-.371094-6.554688-2.0625-13.535157-3.128906-18.871094-1.066406-5.339844-2.433594-7.136719-3.535156-11.34375-1.105469-4.203125-2.269532-21.871094-2.667969-26.945313-.40625-5.074219-.667969-14.203125-.140625-15.609375.539062-1.398437-.195312-2.796875,2.269531-6.605468c2.472657-3.796876,3.667969-17.472657,3.667969-17.472657.453125-.304687.738281.464844,1.664062.5c2,8.640625,4.605469,14.972657,6.410157,17.113281c1.554687,1.84375,2.796875,3.195313,3.203125,6.269532.398437,3.0625.257812,3.332031,1.066406,9.730468.804688,6.410157,4.027344,14.796876,5.738281,17.613282c1.59375,2.601562,15.742188,30.289062,16.871094,34.484375c1.835937,6.839843.925781,8.738281.871094,10.878906-.136719,4.601563,1.734375,10.066406,2.527343,14c.808594,3.9375,2.371094,6.472656,2.667969,11.269531.304688,4.804688.472657,12.714844,2.777344,12.714844c2.296875,0,2.046875-7.851562,2.34375-11.011719.230469-2.398437.054687-3.25,1.25-3.5.804687,1.351563,2.101563,10.25,3.15625,13.863281c1.046875,3.601563,1.398437,6.648438,4.046875,5.851563c1.722656-.519531.371094-8.425781.160156-9.953125-.4375-3.039062-1.261718-6.621094-1.59375-9.222656c1.332032,2.128906,2.757813,6.757812,4.074219,9.371094.777344,1.535156,2.527344,6.832031,5.667969,8.90625c1.117187.730468,2.804687.195312,2.765625-2.242188-.027344-1.75-2.664063-6.867188-3.230469-8.574219-.566406-1.691406-2-6-2.890625-9.648437.558594.601562,3.660156,4.601562,4.484375,5.675781.722656,1.105469,4.425781,7.382813,5.074219,7.882813s2.148437.75,3.203125-.75c1.046875-1.5-2.851563-6.851563-4.15625-9.761719-1.296875-2.898438-4.585938-7.796875-4.6875-9.398438-.089844-1.601562.566406-3.601562.566406-3.601562s.472656.019531,2.425781,1.296875c1.621094,3.65625,6.621094,4.742187,8.480469,4.304687c1.871094-.433593,1.410156-3.0625.734375-3.769531" fill="#d9d9d9"/></g><clipPath id="eenwvSEpDIF5"><path d="M30.882812,27.4375h238.160157v471.730469h-238.160157v-471.730469Zm0,0"/></clipPath></g><g transform="translate(.000001 0.000001)" opacity="0.3"><path d="M163.214844,27.632812c-4.25-1.53125-8.261719-2.917968-13.269532-2.492187-5.019531-.425781-9.019531.960937-13.28125,2.492187-6.617187,2.378907-8.589843,11.257813-8.453124,17.664063c0,2.648437.6875,5.28125,1.269531,7.84375.59375,2.621094.925781,5.195313,1.222656,7.871094.019531.203125.054687.425781.210937.546875.382813.289062.816407-.304688.898438-.777344.382812-2.140625.464844-4.222656.464844-6.425781-.011719-9.632813,2.992187-4.695313,3.492187-13.75.128907-2.324219,1.21875-3.917969,3.785157-3.796875c3.546874.175781,6.917968-.195313,10.390624-.835938c3.460938.640625,6.84375,1.011719,10.378907.835938c2.574219-.121094,3.667969,1.472656,3.796875,3.796875.5,9.054687,3.5,4.117187,3.492187,13.75-.011719,2.203125.082031,4.285156.453125,6.425781.082032.472656.527344,1.066406.90625.777344.15625-.121094.195313-.34375.214844-.546875.296875-2.675781.621094-5.25,1.222656-7.871094.582032-2.5625,1.265625-5.195313,1.265625-7.84375.140625-6.40625-1.839843-15.285156-8.460937-17.664063" fill="#a6a6a6"/><path d="M137.101562,79.105469c4.5,3.640625,4.59375,7.613281,6.574219,11.574219c5.695313,11.410156,3.621094,18.289062,2.296875,16.871093-3.851562-4.128906-7.871094-17.332031-8.472656-18.433593s-.398438-10.011719-.398438-10.011719" fill="#737373"/><path d="M136.40625,95.652344c-.535156,4.132812-.203125,5.5.667969,7.707031.859375,2.191406,5.730469,4.5,6.195312,4.832031-2.632812-6.304687-5.066406-10.640625-6.195312-14.574218-.9375.203124-.667969,2.035156-.667969,2.035156" fill="#737373"/><path d="M118.792969,348.445312c2.101562,0,9.105469.511719,9.910156,1.304688.796875.796875,2.296875,11.910156-2.113281,17.910156-4.398438,6-8.203125,2.898438-9.398438-.601562-1.203125-3.5-4.90625-13.308594-3.5-16.308594c1.398438-3,5.101563-2.304688,5.101563-2.304688" fill="#737373"/><path d="M114.5625,466.414062c2.492188,4.566407,11.203125,6.53125,12.410156,10.9375c1.867188-1.742187,3.332032-8.804687,2.398438-12.804687-.9375-4-1.734375-6.9375-2.667969-8.28125-.9375-1.324219-1.203125-2-2.128906-3.332031-.835938-1.183594-3.679688-4.1875-5.808594-1.777344-2.136719,2.398438-1.757813,3.519531-2.25,6.722656-.488281,3.195313-2.75,7.066406-1.953125,8.535156" fill="#737373"/><path d="M122.089844,446.101562c4.910156,4.433594,6.207031,10.804688,6.207031,9.203126s.304687-6.101563-1.5-8.101563c-1.796875-2-2.78125-2.308594-3.945313-2.308594-1.160156,0-.761718,1.207031-.761718,1.207031" fill="#737373"/><path d="M116.089844,473.621094c-1.5,3.898437-9.90625,13.371094-10.90625,15.269531s5.738281,3.871094,7.136718,3.871094s5.742188.832031,6.742188,1.332031s1.230469-3.167969,1.332031-4.371094c.09375-1.195312,3.816407-7.203125,2.457031-10.101562-1.363281-2.910156,2.007813-2-.824218-3.808594-2.835938-1.792969-5.9375-2.191406-5.9375-2.191406" fill="#737373"/><path d="M123.925781,482.324219c0,2.296875-.074219,5.09375-1.4375,8.5-1.359375,3.398437.296875,4.398437.722657,4.203125.417968-.203125,3.316406-.804688,3.316406-.804688s1.101562-1.796875.804687-2.898437c-.304687-1.101563,2.667969-4.277344,1.066407-6.90625-1.601563-2.621094-2.011719-5.632813-2.398438-6.53125-.398438-.90625-2.074219,4.4375-2.074219,4.4375" fill="#737373"/><path d="M57.402344,250.367188c.546875-.09375,1.101562-.121094,1.65625-.054688c3.1875.378906,8.722656,1.015625,9.984375,4.609375.148437.417969.15625.871094.15625,1.316406.046875,4.675781-.519531,9.378907-1.730469,13.90625-.222656.851563-.492188,1.714844-.992188,2.4375-2.84375,4.074219-10.511718,1.304688-13.722656-.734375-2.898437-1.832031-7.261718-4.675781-7.453125-8.398437-.1875-3.324219,1.796875-6.878907,4.472657-8.769531c2.183593-1.542969,4.839843-3.832032,7.628906-4.3125" fill="#737373"/><path d="M62.03125,276.246094c-.035156,2.121094-.0625,4.242187-.054688,6.363281.019532,1.359375.054688,2.722656.195313,4.082031.109375,1.128906.136719,3.222656.851563,4.113282.425781.527343,1.621093-2.734376,1.65625-2.925782.1875-.925781.15625-12.410156.65625-12.472656-1.117188.128906-2.238282.46875-3.304688.839844" fill="#737373"/><path d="M55.394531,276.070312c-.882812,3.703126-1.195312,7.574219-1.816406,11.324219-.214844,1.234375-.417969,2.464844-.613281,3.695313-.25,1.621094-.527344,2.964844-.339844,4.640625.015625.15625.035156.324219.136719.433593.464843.554688,1.566406-.007812,1.898437-.425781.378906-.460937.527344-1.0625.628906-1.65625.261719-1.628906.648438-3.25.984376-4.871093.5-2.464844.972656-4.933594,1.472656-7.40625.304687-1.511719.609375-3.03125.914062-4.539063.039063-.183594.074219-.390625-.007812-.554687-.167969-.351563-3.25-.675782-3.257813-.640626" fill="#737373"/><path d="M49.53125,274.433594c-.539062.546875-.890625,2.5625-1.054688,3.074218-.464843,1.378907-.953124,2.738282-1.453124,4.109376-.992188,2.675781-2.039063,5.324218-3.058594,7.992187-.675782,1.777344-1.554688,3.492187-1.535156,5.445313.019531,1.046874,1.304687.527343,1.851562.269531c1.742188-.824219,1.960938-2.195313,2.621094-3.816407.507812-1.257812,1.027344-2.5,1.554687-3.75c1.621094-3.863281,3.269531-7.703124,5.121094-11.464843.074219-.136719.136719-.285157.15625-.445313.140625-1.378906-3.109375-1.527344-3.925781-1.554687-.101563,0-.195313.046875-.277344.140625" fill="#737373"/><path d="M44.910156,270.15625c-.933594.785156-2.925781,5.285156-3.277344,5.925781-.992187,1.839844-1.992187,3.691407-2.980468,5.535157-.808594,1.492187-2.382813,3.453124-2.566406,5.167968-.066407.425782-.453126,2.75.582031,2.277344.160156-.066406.277343-.203125.390625-.324219c2.730468-3.101562,4.859375-6.546875,7.214844-9.925781.683593-.992188,1.339843-2.007812,2.074218-2.972656.617188-.832032,1.703125-1.601563,2.191406-2.492188.222657-.378906.195313-.851562.160157-1.296875-.011719-.15625-.019531-.324219-.101563-.453125-.085937-.128906-.214844-.210937-.335937-.285156-.945313-.574219-1.988281-1.011719-3.0625-1.269531-.085938-.019531-.175781.019531-.289063.113281" fill="#737373"/><path d="M44.152344,256.300781c-1.667969,1.601563-4.398438,4.722657-5.539063,7.09375-1.128906,2.378907-6,3.316407-6.066406,4.777344-.0625,1.472656-.394531,2.398437.269531,2.472656.667969.066407,3.195313.195313,4.734375-1.203125c1.535157-1.398437,2.664063-2.203125,3.664063-3.601562s1.871094-3.066406,2.335937-5.269532c.472657-2.203124,1.804688-5.269531,1.804688-5.269531l-1.203125,1" fill="#737373"/><path d="M149.890625,82.410156c.109375,5.207032.757813,13.9375.074219,15.875-.6875,1.933594-2.335938-4.9375-4.585938-9.667968-2.242187-4.742188-1.398437-2.964844-2-5.09375-.59375-2.140626-4.109375-1.9375-1.710937-2.140626c2.40625-.191406,8.222656,1.027344,8.222656,1.027344" fill="#737373"/><path d="M162.789062,79.105469c-4.511718,3.640625-4.59375,7.613281-6.574218,11.574219-5.707032,11.410156-3.621094,18.289062-2.296875,16.871093c3.851562-4.128906,7.859375-17.332031,8.460937-18.433593s.410156-10.011719.410156-10.011719" fill="#737373"/><path d="M163.472656,95.652344c.539063,4.132812.214844,5.5-.65625,7.707031-.871094,2.191406-5.734375,4.5-6.203125,4.832031c2.636719-6.304687,5.074219-10.640625,6.203125-14.574218.933594.203124.65625,2.035156.65625,2.035156" fill="#737373"/><path d="M181.09375,348.445312c-2.101562,0-9.101562.511719-9.90625,1.304688-.796875.796875-2.296875,11.910156,2.101562,17.910156s8.203126,2.898438,9.40625-.601562c1.195313-3.5,4.898438-13.308594,3.5-16.308594s-5.101562-2.304688-5.101562-2.304688" fill="#737373"/><path d="M185.324219,466.414062c-2.5,4.566407-11.210938,6.53125-12.40625,10.9375-1.871094-1.742187-3.332031-8.804687-2.398438-12.804687.925781-4,1.730469-6.9375,2.667969-8.28125.925781-1.324219,1.203125-2,2.128906-3.332031.832032-1.183594,3.667969-4.1875,5.804688-1.777344c2.128906,2.398438,1.761718,3.519531,2.25,6.722656.484375,3.195313,2.75,7.066406,1.953125,8.535156" fill="#737373"/><path d="M177.789062,446.101562c-4.898437,4.433594-6.203124,10.804688-6.203124,9.203126s-.296876-6.101563,1.5-8.101563c1.804687-2,2.785156-2.308594,3.945312-2.308594c1.164062,0,.757812,1.207031.757812,1.207031" fill="#737373"/><path d="M183.796875,473.621094c1.5,3.898437,9.898437,13.371094,10.898437,15.269531c1.011719,1.898437-5.730468,3.871094-7.128906,3.871094-1.40625,0-5.742187.832031-6.742187,1.332031s-1.230469-3.167969-1.332031-4.371094c-.101563-1.195312-3.824219-7.203125-2.460938-10.101562c1.359375-2.910156-2.011719-2,.820312-3.808594c2.84375-1.792969,5.945313-2.191406,5.945313-2.191406" fill="#737373"/><path d="M175.957031,482.324219c0,2.296875.082031,5.09375,1.441407,8.5c1.363281,3.398437-.304688,4.398437-.722657,4.203125-.414062-.203125-3.324219-.804688-3.324219-.804688s-1.101562-1.796875-.792968-2.898437c.292968-1.101563-2.667969-4.277344-1.066406-6.90625c1.59375-2.621094,2-5.632813,2.398437-6.53125.386719-.90625,2.066406,4.4375,2.066406,4.4375" fill="#737373"/><path d="M242.488281,250.367188c-.558593-.09375-1.113281-.121094-1.667969-.054688-3.175781.378906-8.714843,1.015625-9.980468,4.609375-.140625.417969-.160156.871094-.160156,1.316406-.035157,4.675781.527343,9.378907,1.734374,13.90625.230469.851563.488282,1.714844,1,2.4375c2.839844,4.074219,10.507813,1.304688,13.722657-.734375c2.898437-1.832031,7.25-4.675781,7.453125-8.398437.175781-3.324219-1.804688-6.878907-4.472656-8.769531-2.1875-1.542969-4.851563-3.832032-7.628907-4.3125" fill="#737373"/><path d="M237.847656,276.246094c.046875,2.121094.074219,4.242187.054688,6.363281-.007813,1.359375-.054688,2.722656-.183594,4.082031-.121094,1.128906-.148438,3.222656-.851562,4.113282-.425782.527343-1.621094-2.734376-1.667969-2.925782-.183594-.925781-.148438-12.410156-.648438-12.472656c1.121094.128906,2.242188.46875,3.296875.839844" fill="#737373"/><path d="M244.496094,276.070312c.878906,3.703126,1.183594,7.574219,1.816406,11.324219.203125,1.234375.414062,2.464844.601562,3.695313.25,1.621094.527344,2.964844.351563,4.640625-.019531.15625-.039063.324219-.140625.433593-.460938.554688-1.5625-.007812-1.90625-.425781-.371094-.460937-.527344-1.0625-.621094-1.65625-.269531-1.628906-.65625-3.25-.980468-4.871093-.5-2.464844-.972657-4.933594-1.472657-7.40625-.304687-1.511719-.613281-3.03125-.925781-4.539063-.027344-.183594-.066406-.390625.007812-.554687.167969-.351563,3.261719-.675782,3.269532-.640626" fill="#737373"/><path d="M250.359375,274.433594c.527344.546875.886719,2.5625,1.054687,3.074218.453126,1.378907.945313,2.738282,1.453126,4.109376.992187,2.675781,2.035156,5.324218,3.046874,7.992187.675782,1.777344,1.5625,3.492187,1.546876,5.445313-.019532,1.046874-1.304688.527343-1.851563.269531-1.75-.824219-1.972656-2.195313-2.632813-3.816407-.507812-1.257812-1.027343-2.5-1.542968-3.75-1.632813-3.863281-3.28125-7.703124-5.132813-11.464843-.0625-.136719-.136719-.285157-.148437-.445313-.148438-1.378906,3.101562-1.527344,3.925781-1.554687.09375,0,.1875.046875.28125.140625" fill="#737373"/><path d="M254.96875,270.15625c.945312.785156,2.9375,5.285156,3.277344,5.925781c1,1.839844,2,3.691407,2.992187,5.535157.804688,1.492187,2.378907,3.453124,2.566407,5.167968.054687.425782.441406,2.75-.59375,2.277344-.148438-.066406-.269532-.203125-.378907-.324219-2.742187-3.101562-4.863281-6.546875-7.214843-9.925781-.683594-.992188-1.34375-2.007812-2.074219-2.972656-.628907-.832032-1.703125-1.601563-2.203125-2.492188-.214844-.378906-.1875-.851562-.15625-1.296875.007812-.15625.027344-.324219.109375-.453125s.203125-.210937.324219-.285156c.953124-.574219,1.992187-1.011719,3.074218-1.269531.074219-.019531.167969.019531.277344.113281" fill="#737373"/><path d="M255.726562,256.300781c1.667969,1.601563,4.410157,4.722657,5.539063,7.09375c1.140625,2.378907,6.007813,3.316407,6.074219,4.777344.066406,1.472656.398437,2.398437-.269532,2.472656-.664062.066407-3.203124.195313-4.730468-1.203125-1.539063-1.398437-2.667969-2.203125-3.667969-3.601562-1.007813-1.398438-1.871094-3.066406-2.339844-5.269532-.464843-2.203124-1.796875-5.269531-1.796875-5.269531l1.191406,1" fill="#737373"/><path d="M149.890625,82.410156c-.113281,5.207032-.660156,13.9375.035156,15.875.683594,1.933594,2.332031-4.9375,4.582031-9.667968C156.75,83.875,155.898438,85.652344,156.5,83.523438c.601562-2.140626,4.113281-1.9375,1.714844-2.140626-2.398438-.191406-8.324219,1.027344-8.324219,1.027344" fill="#737373"/></g><g><path d="M108.921875,126.730469c-.636719,8.609375,1.613281,19.019531,8.546875,23.148437c2.539062,1.519532,5.492188,2.183594,8.398438,2.769532c9.113281,1.839843,20.140624-2.703126,21.03125-11.039063.953124-8.90625,2.304687-19.574219-1.695313-27.378906-2.65625-5.195313-5.230469-5.207031-8.128906-5.511719-2.910157-.296875-11.882813-.59375-15.382813,1.007812-4.554687,2.074219-9.914062,5.105469-11.507812,10.132813-.640625,2.007813-1.074219,4.359375-1.261719,6.871094" fill="#c32e67" fill-opacity="0.6"/><path d="M190.964844,126.730469c.640625,8.609375-1.609375,19.019531-8.546875,23.148437-2.546875,1.519532-5.5,2.183594-8.398438,2.769532-9.121093,1.839843-20.140625-2.703126-21.027343-11.039063-.953126-8.90625-2.316407-19.574219,1.683593-27.378906c2.667969-5.195313,5.242188-5.207031,8.140625-5.511719c2.898438-.296875,11.871094-.59375,15.378906,1.007812c4.546876,2.074219,9.917969,5.105469,11.511719,10.132813.636719,2.007813,1.074219,4.359375,1.257813,6.871094" fill="#c32e67" fill-opacity="0.6"/></g><g transform="translate(0 0.000001)"><path d="M111.71875,146.636719c2.808594,3.308593,6.972656,5.621093,9.371094,6.84375c1.214844.621093,1.335937,2.972656.335937,3.269531s-9.207031-2.628906-10.207031-4.464844c-1-1.839844-1.296875-4.535156-1.101562-5.648437.203124-1.089844,1.601562,0,1.601562,0" transform="translate(0 0.919899)" fill="#c32e67" fill-opacity="0.6"/><path d="M108.921875,154.398438c-.035156.222656-.027344.445312.03125.65625.933594,3.453124,4.21875,9.242187,5.535156,9.898437.804688.398437,4.5-3.601563,5-3.898437.5-.304688,1.601563-1.804688,1.601563-1.804688s-7.953125-2.871094-9.460938-4.25c-.53125-.492188-2.269531-3.1875-2.269531-3.1875l-.4375,2.585938" transform="translate(0 0.919899)" fill="#c32e67" fill-opacity="0.6"/><path d="M109.488281,160.75c0,0-.703125,5.304688,1.195313,9.304688c1.90625,4,2.703125,4.5,2.703125,4.5s2.40625-6.398438,1.40625-7.398438c-1.007813-1-5.304688-6.40625-5.304688-6.40625" transform="translate(0 0.919899)" fill="#c32e67" fill-opacity="0.6"/><path d="M114.914062,186.613281c1.269532,1.933594,9.667969,8.257813,10.527344,9.324219.871094,1.0625-.007812,7.582031.289063,10.140625-3.332031-.808594-10.417969-6.640625-10.890625-8.910156-.460938-2.269531.074218-10.554688.074218-10.554688" transform="translate(0 0.919899)" fill="#c32e67" fill-opacity="0.6"/><path d="M114.488281,176.167969c.464844.5,7.851563,6.703125,10.945313,8.15625c1.316406.621093.296875,10.261719.296875,10.261719s-9.128907-7.363282-10.5-9.566407c-1.378907-2.195312-.863281-3.609375-.992188-4.546875-.128906-.933594.25-4.304687.25-4.304687" transform="translate(0 0.919899)" fill="#c32e67" fill-opacity="0.6"/><path d="M130,157.546875c-1.789062,1.210937-1.808594,4.703125-2.101562,6.109375-.296876,1.398438.703124,7.707031.703124,7.707031s1,5,1.398438,5.601563c.5.738281,13.648438-7.761719,14.917969-8.546875c1.0625-.660157,2.441406-.648438,2.941406-2.039063.816406-2.285156.390625-5.082031.289063-7.492187-.082032-2.117188.035156-6.628907-1.992188-7.953125-1.8125-1.183594-4.257812.851562-5.871094,1.566406-2.796875,1.230469-5.589844,2.480469-8.296875,3.90625-.675781.351562-1.359375.714844-1.988281,1.140625" transform="translate(0 0.919899)" fill="#c32e67" fill-opacity="0.6"/><path d="M146.324219,171.019531c-1.34375.3125-1.582031.769531-2.871094,1.386719-1.59375.769531-3.167969,1.59375-4.714844,2.445312-2.40625,1.335938-5.367187,2.714844-7.265625,4.761719-.066406.082031-.140625.164063-.207031.25-1.535156,2.0625-1.601563,9.074219-1.46875,9.535157.136719.464843,17.453125,1.835937,18.3125-.628907.722656-2.09375.167969-4.304687.25-6.480469.113281-3.140624.289063-6.882812-.054687-9.6875-.027344-.222656-1.351563-1.738281-1.980469-1.582031" transform="translate(0 0.919899)" fill="#c32e67" fill-opacity="0.6"/><path d="M129.75,193.734375c-1.085938,3.203125-.484375,11.34375.851562,12.472656c1.332032,1.136719,15.332032,1.082031,16.804688,1.019531c1.472656-.066406,1.378906-7.085937,1.398438-9.355468.027343-2.265625.175781-6.128906-.683594-6.460938-.871094-.335937-7.1875-.277344-9.121094.453125-1.9375.738281-9.25,1.871094-9.25,1.871094" transform="translate(0 0.919899)" fill="#c32e67" fill-opacity="0.6"/><path d="M129.75,209.871094c.3125,4.945312,3.398438,45.339844,15.5,48.179687c1.128906.269531,2.34375,1.492188,2.683594.824219.898437-2.136719.898437-44.992188.898437-46.863281s-2.859375-2.054688-4.332031-2.460938c-1.464844-.398437-13.324219-.742187-14.039062-.207031-.710938.527344-.710938.527344-.710938.527344" fill="#c32e67" fill-opacity="0.6"/><path d="M114.792969,200.261719c.074219-.1875.324219-.222657.464843-.074219c5.628907,5.890625,9.574219,7.675781,10.667969,8.554688c1.035157.835937,1.339844,19.140624,2.535157,23.679687.546874,2.046875,1.585937,4.074219.675781,4.515625-1.203125.574219-4.371094-.878906-5.269531-1.859375l-10.75-11.730469c0,0,.242187-19.578125,1.675781-23.085937" transform="translate(0 0.919899)" fill="#c32e67" fill-opacity="0.6"/><path d="M124,159.453125c-4.539062,3.863281-6.558594,5.714844-7.039062,6.566406-.546876.953125,6.167968,6.371094,7.964843,6.972657c1.804688.601562.804688-4.9375.804688-6.472657c0-1.527343.128906-7.539062,0-7.9375s-1.730469.871094-1.730469.871094" transform="translate(0 0.919899)" fill="#c32e67" fill-opacity="0.6"/><path d="M116.367188,169.65625c.121093-.367188.59375-.507812.882812-.230469c2.074219,1.953125,7.792969,4.890625,8.117188,5.9375.25.804688.796874,6.722657.066406,6.925781-.742188.195313-10.769532-6.75-10.640625-7.382812.160156-.839844,1.101562-3.75,1.574219-5.25" transform="translate(0 0.919899)" fill="#c32e67" fill-opacity="0.6"/><path d="M184.964844,186.613281c-1.257813,1.933594-9.65625,8.257813-10.527344,9.324219-.863281,1.0625.007812,7.582031-.277344,10.140625c3.332032-.808594,10.414063-6.640625,10.878906-8.910156.472657-2.269531-.074218-10.554688-.074218-10.554688" transform="translate(0 0.919899)" fill="#c32e67" fill-opacity="0.6"/><path d="M185.390625,176.167969c-.460937.5-7.851563,6.703125-10.933594,8.15625-1.324219.621093-.296875,10.261719-.296875,10.261719s9.121094-7.363282,10.5-9.566407c1.378906-2.195312.851563-3.609375.980469-4.546875.140625-.933594-.25-4.304687-.25-4.304687" transform="translate(0 0.919899)" fill="#c32e67" fill-opacity="0.6"/><path d="M169.890625,157.546875c1.785156,1.210937,1.796875,4.703125,2.101563,6.109375.296874,1.398438-.703126,7.707031-.703126,7.707031s-1,5-1.398437,5.601563c-.5.738281-13.648437-7.761719-14.917969-8.546875-1.066406-.660157-2.445312-.648438-2.945312-2.039063-.824219-2.285156-.386719-5.082031-.285156-7.492187.082031-2.117188-.046876-6.628907,1.980468-7.953125c1.816406-1.183594,4.257813.851562,5.878906,1.566406c2.796876,1.230469,5.59375,2.480469,8.296876,3.90625.675781.351562,1.351562.714844,1.992187,1.140625" transform="translate(0 0.919899)" fill="#c32e67" fill-opacity="0.6"/><path d="M153.554688,171.019531c1.351562.3125,1.585937.769531,2.882812,1.386719c1.589844.769531,3.164062,1.59375,4.710938,2.445312c2.40625,1.335938,5.363281,2.714844,7.261718,4.761719.074219.082031.144532.164063.210938.25c1.527344,2.0625,1.601562,9.074219,1.464844,9.535157-.132813.464843-17.445313,1.835937-18.308594-.628907-.730469-2.09375-.167969-4.304687-.25-6.480469-.109375-3.140624-.285156-6.882812.046875-9.6875.027343-.222656,1.351562-1.738281,1.980469-1.582031" transform="translate(0 0.919899)" fill="#c32e67" fill-opacity="0.6"/><path d="M170.128906,193.734375c1.09375,3.203125.492188,11.34375-.839844,12.472656-1.335937,1.136719-15.34375,1.082031-16.808593,1.019531-1.472657-.066406-1.378907-7.085937-1.398438-9.355468-.027343-2.265625-.183593-6.128906.6875-6.460938.859375-.335937,7.183594-.277344,9.109375.453125c1.9375.738281,9.25,1.871094,9.25,1.871094" transform="translate(0 0.919899)" fill="#c32e67" fill-opacity="0.6"/><path d="M170.128906,209.871094c-.3125,4.945312-3.394531,45.339844-15.488281,48.179687-1.140625.269531-2.34375,1.492188-2.6875.824219-.90625-2.136719-.898437-44.992188-.898437-46.863281s2.863281-2.054688,4.324218-2.460938c1.472656-.398437,13.335938-.742187,14.039063-.207031.710937.527344.710937.527344.710937.527344" fill="#c32e67" fill-opacity="0.6"/><path d="M185.09375,200.261719c-.074219-.1875-.324219-.222657-.460938-.074219-5.640624,5.890625-9.585937,7.675781-10.675781,8.554688-1.039062.835937-1.335937,19.140624-2.539062,23.679687-.539063,2.046875-1.574219,4.074219-.667969,4.515625c1.195312.574219,4.363281-.878906,5.269531-1.859375l10.742188-11.730469c0,0-.242188-19.578125-1.667969-23.085937" transform="translate(0 0.919899)" fill="#c32e67" fill-opacity="0.6"/><path d="M175.890625,159.453125c4.535156,3.863281,6.546875,5.714844,7.039063,6.566406.542968.953125-6.167969,6.371094-7.972657,6.972657-1.796875.601562-.796875-4.9375-.796875-6.472657c0-1.527343-.140625-7.539062,0-7.9375.128906-.398437,1.730469.871094,1.730469.871094" transform="translate(0 0.919899)" fill="#c32e67" fill-opacity="0.6"/><path d="M183.519531,169.65625c-.121093-.367188-.589843-.507812-.886719-.230469-2.074218,1.953125-7.796874,4.890625-8.113281,5.9375-.257812.804688-.796875,6.722657-.0625,6.925781.730469.195313,10.765625-6.75,10.636719-7.382812-.164062-.839844-1.101562-3.75-1.574219-5.25" transform="translate(0 0.919899)" fill="#c32e67" fill-opacity="0.6"/><path d="M188.160156,146.636719c-2.796875,3.308593-6.964844,5.621093-9.363281,6.84375-1.222656.621093-1.339844,2.972656-.339844,3.269531s9.210938-2.628906,10.203125-4.464844c1-1.839844,1.304688-4.535156,1.109375-5.648437-.203125-1.089844-1.609375,0-1.609375,0" transform="translate(0 0.919899)" fill="#c32e67" fill-opacity="0.6"/><path d="M190.957031,154.398438c.035157.222656.035157.445312-.019531.65625-.933594,3.453124-4.222656,9.242187-5.546875,9.898437-.796875.398437-4.5-3.601563-5-3.898437-.5-.304688-1.59375-1.804688-1.59375-1.804688s7.945313-2.871094,9.464844-4.25c.527343-.492188,2.257812-3.1875,2.257812-3.1875l.4375,2.585938" transform="translate(0 0.919899)" fill="#c32e67" fill-opacity="0.6"/><path d="M190.402344,160.75c0,0,.703125,5.304688-1.207032,9.304688-1.898437,4-2.691406,4.5-2.691406,4.5s-2.410156-6.398438-1.410156-7.398438s5.308594-6.40625,5.308594-6.40625" transform="translate(0 0.919899)" fill="#c32e67" fill-opacity="0.6"/></g><g transform="translate(.000001 0)"><path d="M133.0625,94.886719c-2.265625,2.730469-10.871094,8.386719-13.269531,9.136719-.398438,1.546874,12.207031,2.964843,13.808593,1.695312s1.601563-9.4375,1.332032-10.832031c-.269532-1.398438-1.871094,0-1.871094,0" fill="#c32e67" fill-opacity="0.6"/><path d="M166.816406,94.886719c2.269532,2.730469,10.871094,8.386719,13.277344,9.136719.398438,1.546874-12.203125,2.964843-13.804688,1.695312s-1.601562-9.4375-1.335937-10.832031c.261719-1.398438,1.863281,0,1.863281,0" fill="#c32e67" fill-opacity="0.6"/></g><g transform="translate(.000001 0)"><path d="M117.628906,109.625c-1.203125.789062-2.851562,1.148438-4.160156,1.75-3.851562,1.769531-7.425781,3.695312-7.386719,8.417969.027344,3.675781.472657,7.648437-1.519531,10.742187-1.269531,1.964844-2.9375,3.609375-4.417969,5.40625-1.472656,1.777344-2.332031,3.390625-4.832031,2.085938-5.863281-3.066406-9.910156-9.085938-9.390625-15.824219.289063-3.734375,1.980469-7.328125,4.628906-9.957031c2.957031-2.914063,5.816407-5.785156,9.621094-7.636719c5.214844-2.53125,11.019531-1.59375,15.714844,1.636719c1.703125,1.175781,1.742187,3.378906,1.742187,3.378906" fill="#c32e67" fill-opacity="0.6"/><path d="M182.261719,109.625c1.203125.789062,2.851562,1.148438,4.15625,1.75c3.851562,1.769531,7.417969,3.695312,7.382812,8.417969-.03125,3.675781-.464843,7.648437,1.527344,10.742187c1.265625,1.964844,2.933594,3.609375,4.414063,5.40625c1.464843,1.777344,2.335937,3.390625,4.835937,2.085938c5.851563-3.066406,9.90625-9.085938,9.378906-15.824219-.277343-3.734375-1.972656-7.328125-4.628906-9.957031-2.945313-2.914063-5.804687-5.785156-9.613281-7.636719-5.210938-2.53125-11.019532-1.59375-15.722656,1.636719-1.703126,1.175781-1.742188,3.378906-1.730469,3.378906" fill="#c32e67" fill-opacity="0.6"/></g><g transform="translate(0 0.000001)"><path d="M100.210938,149.371094c-2.445313,9.121094-11.882813,29.425781-12.039063,29.90625-.378906,1.167968.363281,2.714844,1.324219,3.410156c1.5,1.089844,3.074218-1.214844,3.878906-2.214844c5.472656-6.75,10.308594-19.445312,11.074219-22.554687.929687-3.734375,3.871093-9.003907,2.667969-15.269531-1.195313-6.28125-2.269532-9.214844-2.796876-8.546876-.703124.886719-.859374,2.730469-1.128906,3.777344-.742187,2.84375-1.128906,5.785156-1.945312,8.59375-.277344.980469-.765625,1.90625-1.035156,2.898438" fill="#c32e67" fill-opacity="0.6"/><path d="M199.667969,149.371094c2.457031,9.121094,11.890625,29.425781,12.039062,29.90625.378907,1.167968-.359375,2.714844-1.316406,3.410156-1.5,1.089844-3.074219-1.214844-3.878906-2.214844-5.472657-6.75-10.304688-19.445312-11.074219-22.554687-.925781-3.734375-3.871094-9.003907-2.675781-15.269531c1.203125-6.28125,2.269531-9.214844,2.804687-8.546876.703125.886719.863282,2.730469,1.128906,3.777344.742188,2.84375,1.132813,5.785156,1.9375,8.59375.285157.980469.769532,1.90625,1.035157,2.898438" fill="#c32e67" fill-opacity="0.6"/></g><g transform="translate(.000001 0.000001)"><path d="M91.183594,142.351562c-3.113282,1.601563-8.371094,10.75-9.113282,15.304688-1.363281,8.464844-.953124,13.074219-1.027343,15.574219-.085938,2.511719,4.398437,2.011719,8.128906-1.398438c2.332031-2.117187,8.59375-16.339843,7.34375-23.359375-.917969-5.132812-2.539063-7.316406-5.332031-6.121094" fill="#c32e67" fill-opacity="0.6"/><path d="M208.707031,142.351562c3.113281,1.601563,8.371094,10.75,9.101563,15.304688c1.371094,8.464844.953125,13.074219,1.039062,15.574219.082032,2.511719-4.398437,2.011719-8.140625-1.398438-2.324219-2.117187-8.582031-16.339843-7.332031-23.359375.90625-5.132812,2.535156-7.316406,5.332031-6.121094" fill="#c32e67" fill-opacity="0.6"/></g><g transform="translate(.000001 0)"><path d="M79.636719,176.980469c3.351562-1.664063,1.71875,20.253906-.605469,26.023437-2.460938,6.136719-5.683594,14.3125-8.796875,21.8125-1.867187,4.484375-7.136719,20.742188-9.40625,21.816406-2.269531,1.066407-.128906-9.675781.933594-13.945312c1.066406-4.265625,4.140625-22.019531,5.066406-25.351562.9375-3.332032.269531-12.613282,2.667969-16.046876c2.40625-3.425781,5.203125-11.851562,10.140625-14.308593" fill="#c32e67" fill-opacity="0.6"/><path d="M88.746094,188c1.730468,6.539062-.992188,12.753906-2.324219,16.621094-1.332031,3.871094-3.953125,7.660156-6.351563,11.390625-2.398437,3.742187-9.011718,19.28125-10.574218,23.417969-3.734375,9.898437-5.527344,7.066406-4.066406,3.335937c1.464843-3.742187,4.230468-12.207031,5.972656-16.214844c1.730468-4,2.230468-6.371093,4.296875-10.910156c2.039062-4.453125,4.371093-9.230469,5.84375-13.230469C83.003906,198.398438,83.671875,188.667969,86.070312,188c2.40625-.664062,2.675782,0,2.675782,0" fill="#c32e67" fill-opacity="0.6"/><path d="M82.671875,215.53125c-2.945313,3.730469-5.222656,8.640625-6.703125,12.082031-1.363281,3.195313-2.675781,6.410157-3.945312,9.632813-1.175782,2.988281-2.378907,6-3.296876,9.082031-.15625.511719-.609374,1.269531-.398437,1.804687.554687-.453124.824219-1.136718,1.175781-1.738281.371094-.621093.714844-1.261719,1.046875-1.910156.796875-1.527344,1.527344-3.082031,2.242188-4.648437c1.621093-3.554688,3.128906-7.148438,4.683593-10.730469c1.34375-3.074219,2.667969-6.175781,4.277344-9.121094.085938-.148437.167969-.285156.25-.433594c3.863282-6.808593,5.066406-8.667969,6.667969-12.679687c1.601563-4,5.074219-10.535156,4.539063-11.738282-.371094-.835937-1.714844-2.167968-2.296876-2.601562-.203124-.140625-.378906,1.15625-.410156,1.40625-.628906,8.332031-5.164062,18.214844-7.832031,21.59375" fill="#c32e67" fill-opacity="0.6"/><path d="M220.246094,176.980469c-3.34375-1.664063-1.722656,20.253906.601562,26.023437c2.472656,6.136719,5.683594,14.3125,8.804688,21.8125c1.863281,4.484375,7.140625,20.742188,9.410156,21.816406c2.265625,1.066407.128906-9.675781-.9375-13.945312-1.074219-4.265625-4.136719-22.019531-5.074219-25.351562-.925781-3.332032-.269531-12.613282-2.667969-16.046876-2.398437-3.425781-5.203124-11.851562-10.136718-14.308593" fill="#c32e67" fill-opacity="0.6"/><path d="M211.140625,188c-1.730469,6.539062.984375,12.753906,2.324219,16.621094c1.335937,3.871094,3.945312,7.660156,6.355468,11.390625c2.398438,3.742187,9.007813,19.28125,10.5625,23.417969c3.734376,9.898437,5.539063,7.066406,4.074219,3.335937-1.472656-3.742187-4.238281-12.207031-5.972656-16.214844-1.730469-4-2.238281-6.371093-4.304687-10.910156-2.035157-4.453125-4.359376-9.230469-5.832032-13.230469-1.464844-4.011718-2.140625-13.742187-4.539062-14.410156-2.398438-.664062-2.667969,0-2.667969,0" fill="#c32e67" fill-opacity="0.6"/><path d="M217.207031,215.53125c2.953125,3.730469,5.230469,8.640625,6.703125,12.082031c1.371094,3.195313,2.6875,6.410157,3.957032,9.632813c1.175781,2.988281,2.367187,6,3.292968,9.082031.148438.511719.613282,1.269531.390625,1.804687-.554687-.453124-.824219-1.136718-1.167969-1.738281-.367187-.621093-.710937-1.261719-1.042968-1.910156-.796875-1.527344-1.53125-3.082031-2.242188-4.648437-1.621094-3.554688-3.140625-7.148438-4.695312-10.730469-1.332032-3.074219-2.65625-6.175781-4.277344-9.121094-.074219-.148437-.15625-.285156-.242188-.433594-3.871093-6.808593-5.074218-8.667969-6.675781-12.679687-1.59375-4-5.066406-10.535156-4.527343-11.738282.371093-.835937,1.710937-2.167968,2.296874-2.601562.203126-.140625.378907,1.15625.398438,1.40625.628906,8.332031,5.164062,18.214844,7.832031,21.59375" fill="#c32e67" fill-opacity="0.6"/></g><g transform="translate(.000001 0)"><path d="M132.101562,355.25c-1.5,6.910156-2.5,9.910156-7.203124,19.214844-3.863282,7.621094-5.207032,14.707031-3.410157,14.511718c1.804688-.203124,8.308594-15.222656,9.308594-18.019531c1-2.789062,4.007813-11.34375,4.257813-13.101562.332031-2.484375-.453126-4.105469-1.054688-4.808594-.601562-.691406-1.898438,2.203125-1.898438,2.203125" fill="#c32e67" fill-opacity="0.6"/><path d="M131.535156,375.699219c-1.738281,5.332031-7.871094,13.601562-8.277344,18.804687-.398437,5.203125,3.648438,38.492188,3.203126,42.625c1.628906-2.828125,3.667968-15.875,6.539062-22.742187c1.769531-4.234375,3.121094-9.863281,0-28.816407-.910156-5.53125-1.464844-9.871093-1.464844-9.871093" transform="translate(0 0.000001)" fill="#c32e67" fill-opacity="0.6"/><path d="M113.378906,360.558594c2.210938,15,9.621094,50.824218,10.414063,66.835937.796875,16,.207031,13.910157-.5,15.203125-.703125,1.296875-7.101563-16.472656-9.101563-26.480468-2-10-4.40625-34.417969-3.472656-43.753907.9375-9.34375.539062-16.546875,1.472656-16.148437.925782.40625,1.1875,4.34375,1.1875,4.34375" fill="#c32e67" fill-opacity="0.6"/><path d="M107.65625,377.964844c-.9375,10.9375-.539062,31.355468.933594,39.882812c1.464844,8.539063,6,25.75,6.398437,28.6875.398438,2.933594-.933593,6.269532,0,7.332032.9375,1.074218,4.140625-5.601563,3.601563-11.203126-.527344-5.601562-4.574219-19.878906-5.695313-25.484374-1.109375-5.601563-3.90625-19.738282-3.777343-24.675782.140624-4.933594.140624-11.203125.398437-16.140625.269531-4.933593.9375-6.933593,0-6.933593-.925781,0-1.859375,8.535156-1.859375,8.535156" fill="#c32e67" fill-opacity="0.6"/><path d="M167.789062,355.25c1.5,6.910156,2.488282,9.910156,7.203126,19.214844c3.863281,7.621094,5.203124,14.707031,3.398437,14.511718-1.796875-.203124-8.304687-15.222656-9.304687-18.019531-1-2.789062-4.011719-11.34375-4.25-13.101562-.34375-2.484375.453124-4.105469,1.042968-4.808594.613282-.691406,1.910156,2.203125,1.910156,2.203125" fill="#c32e67" fill-opacity="0.6"/><path d="M168.351562,375.699219c1.734376,5.332031,7.871094,13.601562,8.269532,18.804687.410156,5.203125-3.636719,38.492188-3.203125,42.625-1.621094-2.828125-3.65625-15.875-6.527344-22.742187-1.769531-4.234375-3.121094-9.863281,0-28.816407.90625-5.53125,1.460937-9.871093,1.460937-9.871093" transform="translate(0 0.000001)" fill="#c32e67" fill-opacity="0.6"/><path d="M186.511719,360.558594c-2.214844,15-9.621094,50.824218-10.417969,66.835937-.804688,16-.203125,13.910157.5,15.203125.695312,1.296875,7.101562-16.472656,9.101562-26.480468c2-10,4.398438-34.417969,3.472657-43.753907-.933594-9.34375-.535157-16.546875-1.472657-16.148437-.933593.40625-1.183593,4.34375-1.183593,4.34375" fill="#c32e67" fill-opacity="0.6"/><path d="M192.234375,377.964844c.933594,10.9375.527344,31.355468-.9375,39.882812-1.46875,8.539063-6,25.75-6.40625,28.6875-.398437,2.933594.933594,6.269532,0,7.332032-.925781,1.074218-4.128906-5.601563-3.601563-11.203126.535157-5.601562,4.582032-19.878906,5.695313-25.484374c1.109375-5.601563,3.917969-19.738282,3.777344-24.675782-.128907-4.933594-.128907-11.203125-.398438-16.140625-.269531-4.933593-.933593-6.933593,0-6.933593s1.871094,8.535156,1.871094,8.535156" fill="#c32e67" fill-opacity="0.6"/></g><g><path d="M121.960938,236.671875c4.101562,3.074219,16.910156,19.34375,21.085937,39.75c0,0-2.1875,7.316406-5.121094,6.675781-.648437-.144531-10.058593-30.121094-17.566406-44.027344-2.148437-3.984374-2.296875-6.101562-2.296875-6.101562l3.898438,3.703125" transform="translate(.000001 0)" fill="#c32e67" fill-opacity="0.6"/><path d="M115.792969,236.792969c5.09375,16.972656,22.066406,81.417969,21.761719,91.449219c5.09375-14.59375.917968-33.789063-5.351563-52.234376-5.25-15.417968-16.410156-39.214843-16.410156-39.214843" fill="#c32e67" fill-opacity="0.6"/><path d="M113.117188,240.429688c3.203124,14.925781,14.148437,38.984374,15.539062,59.828124c1.332031,20.085938-1.027344,40.429688-4.757812,42.019532C120.15625,343.878906,113.8125,317.453125,112.71875,313c-2.757812-11.289062-8.832031-31.910156-8.15625-42.558594.574219-9.195312,2.121094-14.011718,3.359375-18.277344c1.660156-5.722656,5.195313-11.734374,5.195313-11.734374" fill="#c32e67" fill-opacity="0.6"/><path d="M105.988281,291.988281c.667969,6,4.695313,25.640625,9.804688,38.355469c2.371093,5.917969,3.066406,12.269531,1.195312,14.269531-1.859375,2-4-9.066406-6.933593-13.742187-2.9375-4.667969-5.390626-19.734375-5.546876-25.816406-.214843-7.917969-1.527343-14.140626-.851562-16.269532.664062-2.128906,2.332031,3.203125,2.332031,3.203125" fill="#c32e67" fill-opacity="0.6"/><path d="M130.136719,304.859375c2.066406,22.984375-3.65625,34.152344-.609375,38.957031c3.054687,4.796875,5.453125,2.710938,5.074218.0625-.667968-4.703125,2.898438-12.359375,0-25.945312-1.539062-7.183594-4.464843-13.074219-4.464843-13.074219" fill="#c32e67" fill-opacity="0.6"/><path d="M144.136719,279.378906c-2.46875,3.675782-5.804688,7.082032-5.738281,8.25.074218,1.15625,3.472656,18.769532,3.269531,20.769532c2.074219-2,4.007812-26.019532,3.867187-28.214844-.128906-2.203125-1.398437-.804688-1.398437-.804688" fill="#c32e67" fill-opacity="0.6"/><path d="M177.925781,236.671875c-4.109375,3.074219-16.90625,19.34375-21.082031,39.75c0,0,2.183594,7.316406,5.109375,6.675781.660156-.144531,10.066406-30.121094,17.578125-44.027344c2.148438-3.984374,2.292969-6.101562,2.292969-6.101562l-3.898438,3.703125" fill="#c32e67" fill-opacity="0.6"/><path d="M184.09375,236.792969c-5.101562,16.972656-22.066406,81.417969-21.757812,91.449219-5.105469-14.59375-.917969-33.789063,5.351562-52.234376c5.238281-15.417968,16.40625-39.214843,16.40625-39.214843" fill="#c32e67" fill-opacity="0.6"/><path d="M186.761719,240.429688c-3.203125,14.925781-14.148438,38.984374-15.527344,59.828124-1.34375,20.085938,1.015625,40.429688,4.757813,42.019532c3.730468,1.601562,10.082031-24.824219,11.167968-29.277344c2.769532-11.289062,8.832032-31.910156,8.167969-42.558594-.574219-9.195312-2.121094-14.011718-3.363281-18.277344-1.667969-5.722656-5.203125-11.734374-5.203125-11.734374" fill="#c32e67" fill-opacity="0.6"/><path d="M193.902344,291.988281c-.667969,6-4.707032,25.640625-9.808594,38.355469-2.378906,5.917969-3.0625,12.269531-1.203125,14.269531c1.871094,2,4.007813-9.066406,6.9375-13.742187c2.933594-4.667969,5.386719-19.734375,5.554687-25.816406.203126-7.917969,1.519532-14.140626.851563-16.269532s-2.332031,3.203125-2.332031,3.203125" fill="#c32e67" fill-opacity="0.6"/><path d="M169.75,304.859375c-2.0625,22.984375,3.648438,34.152344.601562,38.957031-3.046874,4.796875-5.441406,2.710938-5.0625.0625.664063-4.703125-2.910156-12.359375,0-25.945312C166.816406,310.75,169.75,304.859375,169.75,304.859375" fill="#c32e67" fill-opacity="0.6"/><path d="M155.75,279.378906c2.464844,3.675782,5.796875,7.082032,5.730469,8.25-.0625,1.15625-3.472657,18.769532-3.265625,20.769532-2.066406-2-4-26.019532-3.863282-28.214844.128907-2.203125,1.398438-.804688,1.398438-.804688" fill="#c32e67" fill-opacity="0.6"/></g></svg>
