<svg id="e8SaenjzD9K1" xmlns="http://www.w3.org/2000/svg" xmlns:xlink="http://www.w3.org/1999/xlink" viewBox="0 0 300 525.000007" shape-rendering="geometricPrecision" text-rendering="geometricPrecision"><g display="none" clip-path="url(#e8SaenjzD9K5)"><g><path d="M268.453125,268.125c-.667969-.703125-4.234375-3-5.105469-3.90625-.859375-.898438-.859375-1.59375-3.265625-5.730469-2.398437-4.140625-11.355469-7.808593-12.355469-8-1-.207031-2.953124-2.660156-3.441406-4.011719-2.066406-5.566406-6.910156-24.613281-9.011718-41.621093-2.101563-17.003907-10.011719-26.613281-14.304688-32.511719.203125-16.316406-3.546875-19.707031-5.605469-24.917969.195313-4.101562,1.621094-13.011719.660157-24.734375-.761719-9.277344-12.371094-20.351562-19.578126-21.351562-4.65625-.648438-7.230468.460937-13.265624,0-6.039063-.472656-17.34375-10.613282-17.949219-11.808594-.601563-1.203125-1.859375-11.203125-.933594-12.472656.933594-1.265625,1.074219-.0625,2.007813-2.664063.9375-2.605469.429687-7.28125.429687-7.28125s.25-1,.414063-.3125c.101562.398438.304687.8125.75,1.054688.703124.359375,1.574218-1.324219,2.492187-2.917969c2.433594-4.25,4.722656-12.34375,1.351563-13.359375-.621094-.1875-1.5,1.398437-1.5,1.398437c0-.796874.796874-8.207031-.40625-12.808593-.957032-3.683594-4.558594-7.371094-7.398438-9.601563-3.472656-2.722656-10.558594-2.917968-12.316406-2.933594-.039063,0-.101563,0-.15625,0-.058594,0-.121094,0-.160156,0-1.757813.015626-8.84375.210938-12.316407,2.933594-2.839843,2.230469-6.441406,5.917969-7.40625,9.601563-1.195312,4.601562-.398437,12.011719-.398437,12.808593c0,0-.886719-1.585937-1.5-1.398437-3.371094,1.015625-1.082032,9.109375,1.351562,13.359375.917969,1.59375,1.789063,3.277344,2.480469,2.917969.457031-.242188.660156-.65625.75-1.054688.179687-.6875.429687.3125.429687.3125s-.511718,4.675781.425782,7.28125c.933594,2.601563,1.0625,1.398438,2,2.664063.933594,1.269531-.335938,11.269531-.9375,12.472656-.59375,1.195312-11.898438,11.335938-17.933594,11.808594-6.039062.460937-8.613281-.648438-13.28125,0-7.203125,1-18.804688,12.074218-19.566406,21.351562-.960938,11.722656.464844,20.632813.660156,24.734375-2.058594,5.210938-5.808594,8.601563-5.605469,24.917969-4.304687,5.898438-12.203125,15.507812-14.304687,32.511719-2.101563,17.007812-6.945313,36.054687-9,41.621093-.507813,1.351563-2.453125,3.804688-3.453125,4.011719-1,.191407-9.957031,3.859375-12.363281,8-2.398438,4.136719-2.398438,4.832031-3.269532,5.730469-.859375.90625-4.433594,3.203125-5.101562,3.90625-.667969.707031-1.128906,3.335938.742187,3.769531c1.859375.4375,6.859375-.648437,8.480469-4.304687c1.953125-1.277344,2.425781-1.296875,2.425781-1.296875s.660157,2,.566407,3.601562c-.101563,1.601563-3.390626,6.5-4.695313,9.398438-1.296875,2.910156-5.195313,8.261719-4.148437,9.761719c1.054687,1.5,2.554687,1.25,3.203124.75s4.351563-6.777344,5.074219-7.882813c.824219-1.074219,3.925781-5.074219,4.484375-5.675781-.890625,3.648437-2.324218,7.957031-2.890625,9.648437-.566406,1.707031-3.214843,6.824219-3.230469,8.574219-.039062,2.4375,1.648438,2.972656,2.765626,2.242188c3.132812-2.074219,4.890624-7.371094,5.667968-8.90625c1.316406-2.613282,2.730469-7.242188,4.066406-9.371094-.335937,2.601562-1.140624,6.183594-1.585937,9.222656-.210937,1.527344-1.5625,9.433594.160156,9.953125c2.648438.796875,3-2.25,4.046875-5.851563c1.054688-3.613281,2.351563-12.511718,3.15625-13.863281c1.195313.25,1.019532,1.101563,1.25,3.5.296875,3.160157.046875,11.011719,2.351563,11.011719c2.296875,0,2.464843-7.910156,2.761719-12.714844.304687-4.796875,1.867187-7.332031,2.675781-11.269531.796875-3.933594,2.65625-9.398437,2.527343-14-.054687-2.140625-.964843-4.039063.871094-10.878906c1.128906-4.195313,15.277344-31.882813,16.859375-34.484375c1.734375-2.816406,4.945313-11.203125,5.75-17.613282.796875-6.398437.667969-6.667968,1.066407-9.730468.398437-3.074219,1.640624-4.425782,3.203124-6.269532c1.804688-2.140624,4.398438-8.472656,6.410157-17.113281.925781-.035156,1.210937-.804687,1.664062-.5c0,0,1.195313,13.675781,3.667969,17.472657c2.464844,3.808593,1.730469,5.207031,2.269531,6.605468.527344,1.40625.257813,10.535156-.140625,15.609375s-1.5625,22.742188-2.664062,26.945313c-1.105469,4.207031-2.464844,6.003906-3.539063,11.34375-1.066406,5.335937-2.769531,12.316406-3.128906,18.871094c0,0-2.242187,15.558593-2.039063,21.417968.222657,6.269532-1.398437,48.921875,7.601563,59.328125-.433594,2.027344-.027344,5.566407.039063,6.640625.066406,1.0625-2.539063,12.140625-1.539063,19.539063c1,7.40625.601563,4.839843.398437,6.683593-.191406,1.851563-8.203124,26.667969,3.808594,72.355469.710938,2.734375,1,8.242188,1,11.140625s-1,8.613282-1,11.304688c0,2.707031-.101562,4,.5,5.707031.601563,1.703125.5,4.5.101563,6.601563s-8.511719,7.804687-9.207031,10.90625c-.703126,3.101562-1.601563,4.898437-.304688,5.808593c1.304688.898438,1.910156,0,1.910156,0s-.5,1.5.292969,2.292969c.796875.808594,3.207031.707031,3.207031.707031s.792969.191407,1.292969,1c.5.796875,2.605469,1.203125,3.105469.691407.5-.5.804687-.453126,1.203125.222656.210937.371094,1.101562.808594,1.878906,1.121094.742187.304687,1.582031.242187,2.257813-.175782l1.566406-.960937c0,0,1.296875,1.5,1.601562,1.601562.296875.101563,3.398438,1.203125,4.195313,0c.804687-1.203125,4.601562-4.101562,4.40625-7.5-.203125-3.410156-.5-5.308593-.398438-6.511719.09375-1.195312.398438-3,.898438-4.796874.5-1.804688,1.101562-2.601563.703125-6.007813-.40625-3.398437-.101563-3.601563-.101563-4.203125c0-.59375.5-2.195312.601563-4.003906.09375-1.792969-1.304688-5.5-1.304688-5.5s-.601562-3.601563-.898437-8.5c-.304688-4.90625.695312-24.214844,2.703125-30.621094c2-6.398438,3.167968-8.40625,3.398437-10c2.398438-16.910156-1.5-35.113281-2.203125-41.558594-.398437-3.667968,1.203125-4.074218,2.203125-7.769531c1-3.703125,1.796875-12.90625.707031-17.011719-.816406-3.007812,2.792969-14.007812,3.292969-17.40625.5-3.40625,7.371094-29.714844,7.742188-34.417968.363281-4.703126.835937-19.289063-.40625-21.492188.59375,0,2.277343,1.167969,2.992187,1.378906.035156.019532.082032.027344.148438.027344.0625,0,.109375-.007812.144531-.027344.714844-.210937,2.398437-1.378906,2.984375-1.378906-1.234375,2.203125-.761719,16.789062-.398438,21.492188.371094,4.703124,7.242188,31.011718,7.742188,34.417968.5,3.398438,4.101562,14.398438,3.292969,17.40625-1.089844,4.105469-.292969,13.308594.707031,17.011719c1,3.695313,2.601562,4.101563,2.203125,7.769531-.703125,6.445313-4.601563,24.648438-2.203125,41.558594.222656,1.59375,1.398438,3.601562,3.398438,10c2,6.40625,3,25.714844,2.703124,30.621094-.296874,4.898437-.898437,8.5-.898437,8.5s-1.40625,3.707031-1.304687,5.5c.101562,1.808594.601562,3.410156.601562,4.003906c0,.601562.304688.804688-.101562,4.203125-.398438,3.40625.203124,4.203125.703124,6.007813.5,1.796874.804688,3.601562.898438,4.796874.101562,1.203126-.195312,3.101563-.398438,6.511719-.203124,3.398438,3.601563,6.296875,4.398438,7.5.804688,1.203125,3.90625.101563,4.203125,0c.304687-.101562,1.601563-1.601562,1.601563-1.601562l1.554687.960937c.6875.417969,1.527344.480469,2.269531.175782.777344-.3125,1.667969-.75,1.878906-1.121094.398438-.675782.703126-.722656,1.203126-.222656.5.511718,2.605468.105468,3.105468-.691407.5-.808593,1.292969-1,1.292969-1s2.398437.101563,3.207031-.707031c.796875-.792969.296875-2.292969.296875-2.292969s.601563.898438,1.90625,0c1.296875-.910156.398438-2.707031-.304687-5.808593-.707032-3.101563-8.796875-8.804688-9.207032-10.90625-.398437-2.101563-.5-4.898438.101563-6.601563.601563-1.707031.5-3,.5-5.707031c0-2.691406-1-8.40625-1-11.304688s.28125-8.40625,1-11.140625c12.003906-45.6875,4-70.503906,3.808594-72.355469-.203125-1.84375-.601563.722657.398437-6.683593c1-7.398438-1.601562-18.476563-1.539062-19.539063.066406-1.074218.464844-4.613281.039062-6.640625c9-10.40625,7.378906-53.058593,7.601563-59.328125.203125-5.859375-2.039063-21.417968-2.039063-21.417968-.371094-6.554688-2.0625-13.535157-3.128906-18.871094-1.066406-5.339844-2.433594-7.136719-3.535156-11.34375-1.105469-4.203125-2.269532-21.871094-2.667969-26.945313-.40625-5.074219-.667969-14.203125-.140625-15.609375.539062-1.398437-.195312-2.796875,2.269531-6.605468c2.472657-3.796876,3.667969-17.472657,3.667969-17.472657.453125-.304687.738281.464844,1.664062.5c2,8.640625,4.605469,14.972657,6.410157,17.113281c1.554687,1.84375,2.796875,3.195313,3.203125,6.269532.398437,3.0625.257812,3.332031,1.066406,9.730468.804688,6.410157,4.027344,14.796876,5.738281,17.613282c1.59375,2.601562,15.742188,30.289062,16.871094,34.484375c1.835937,6.839843.925781,8.738281.871094,10.878906-.136719,4.601563,1.734375,10.066406,2.527343,14c.808594,3.9375,2.371094,6.472656,2.667969,11.269531.304688,4.804688.472657,12.714844,2.777344,12.714844c2.296875,0,2.046875-7.851562,2.34375-11.011719.230469-2.398437.054687-3.25,1.25-3.5.804687,1.351563,2.101563,10.25,3.15625,13.863281c1.046875,3.601563,1.398437,6.648438,4.046875,5.851563c1.722656-.519531.371094-8.425781.160156-9.953125-.4375-3.039062-1.261718-6.621094-1.59375-9.222656c1.332032,2.128906,2.757813,6.757812,4.074219,9.371094.777344,1.535156,2.527344,6.832031,5.667969,8.90625c1.117187.730468,2.804687.195312,2.765625-2.242188-.027344-1.75-2.664063-6.867188-3.230469-8.574219-.566406-1.691406-2-6-2.890625-9.648437.558594.601562,3.660156,4.601562,4.484375,5.675781.722656,1.105469,4.425781,7.382813,5.074219,7.882813s2.148437.75,3.203125-.75c1.046875-1.5-2.851563-6.851563-4.15625-9.761719-1.296875-2.898438-4.585938-7.796875-4.6875-9.398438-.089844-1.601562.566406-3.601562.566406-3.601562s.472656.019531,2.425781,1.296875c1.621094,3.65625,6.621094,4.742187,8.480469,4.304687c1.871094-.433593,1.410156-3.0625.734375-3.769531" fill="#d9d9d9"/></g><clipPath id="e8SaenjzD9K5"><path d="M30.882812,27.4375h238.160157v471.730469h-238.160157v-471.730469Zm0,0"/></clipPath></g><g transform="translate(0 0.000001)"><path d="M111.71875,146.636719c2.808594,3.308593,6.972656,5.621093,9.371094,6.84375c1.214844.621093,1.335937,2.972656.335937,3.269531s-9.207031-2.628906-10.207031-4.464844c-1-1.839844-1.296875-4.535156-1.101562-5.648437.203124-1.089844,1.601562,0,1.601562,0" transform="translate(0 0.919899)" fill="#55bba4"/><path d="M108.921875,154.398438c-.035156.222656-.027344.445312.03125.65625.933594,3.453124,4.21875,9.242187,5.535156,9.898437.804688.398437,4.5-3.601563,5-3.898437.5-.304688,1.601563-1.804688,1.601563-1.804688s-7.953125-2.871094-9.460938-4.25c-.53125-.492188-2.269531-3.1875-2.269531-3.1875l-.4375,2.585938" transform="translate(0 0.919899)" fill="#55bba4"/><path d="M109.488281,160.75c0,0-.703125,5.304688,1.195313,9.304688c1.90625,4,2.703125,4.5,2.703125,4.5s2.40625-6.398438,1.40625-7.398438c-1.007813-1-5.304688-6.40625-5.304688-6.40625" transform="translate(0 0.919899)" fill="#55bba4"/><path d="M114.914062,186.613281c1.269532,1.933594,9.667969,8.257813,10.527344,9.324219.871094,1.0625-.007812,7.582031.289063,10.140625-3.332031-.808594-10.417969-6.640625-10.890625-8.910156-.460938-2.269531.074218-10.554688.074218-10.554688" transform="translate(0 0.919899)" fill="#55bba4"/><path d="M114.488281,176.167969c.464844.5,7.851563,6.703125,10.945313,8.15625c1.316406.621093.296875,10.261719.296875,10.261719s-9.128907-7.363282-10.5-9.566407c-1.378907-2.195312-.863281-3.609375-.992188-4.546875-.128906-.933594.25-4.304687.25-4.304687" transform="translate(0 0.919899)" fill="#55bba4"/><path d="M130,157.546875c-1.789062,1.210937-1.808594,4.703125-2.101562,6.109375-.296876,1.398438.703124,7.707031.703124,7.707031s1,5,1.398438,5.601563c.5.738281,13.648438-7.761719,14.917969-8.546875c1.0625-.660157,2.441406-.648438,2.941406-2.039063.816406-2.285156.390625-5.082031.289063-7.492187-.082032-2.117188.035156-6.628907-1.992188-7.953125-1.8125-1.183594-4.257812.851562-5.871094,1.566406-2.796875,1.230469-5.589844,2.480469-8.296875,3.90625-.675781.351562-1.359375.714844-1.988281,1.140625" transform="translate(0 0.919899)" fill="#55bba4"/><path d="M146.324219,171.019531c-1.34375.3125-1.582031.769531-2.871094,1.386719-1.59375.769531-3.167969,1.59375-4.714844,2.445312-2.40625,1.335938-5.367187,2.714844-7.265625,4.761719-.066406.082031-.140625.164063-.207031.25-1.535156,2.0625-1.601563,9.074219-1.46875,9.535157.136719.464843,17.453125,1.835937,18.3125-.628907.722656-2.09375.167969-4.304687.25-6.480469.113281-3.140624.289063-6.882812-.054687-9.6875-.027344-.222656-1.351563-1.738281-1.980469-1.582031" transform="translate(0 0.919899)" fill="#55bba4"/><path d="M129.75,193.734375c-1.085938,3.203125-.484375,11.34375.851562,12.472656c1.332032,1.136719,15.332032,1.082031,16.804688,1.019531c1.472656-.066406,1.378906-7.085937,1.398438-9.355468.027343-2.265625.175781-6.128906-.683594-6.460938-.871094-.335937-7.1875-.277344-9.121094.453125-1.9375.738281-9.25,1.871094-9.25,1.871094" transform="translate(0 0.919899)" fill="#55bba4"/><path d="M129.75,209.871094c.3125,4.945312,3.398438,45.339844,15.5,48.179687c1.128906.269531,2.34375,1.492188,2.683594.824219.898437-2.136719.898437-44.992188.898437-46.863281s-2.859375-2.054688-4.332031-2.460938c-1.464844-.398437-13.324219-.742187-14.039062-.207031-.710938.527344-.710938.527344-.710938.527344" fill="#55bba4"/><path d="M114.792969,200.261719c.074219-.1875.324219-.222657.464843-.074219c5.628907,5.890625,9.574219,7.675781,10.667969,8.554688c1.035157.835937,1.339844,19.140624,2.535157,23.679687.546874,2.046875,1.585937,4.074219.675781,4.515625-1.203125.574219-4.371094-.878906-5.269531-1.859375l-10.75-11.730469c0,0,.242187-19.578125,1.675781-23.085937" transform="translate(0 0.919899)" fill="#55bba4"/><path d="M124,159.453125c-4.539062,3.863281-6.558594,5.714844-7.039062,6.566406-.546876.953125,6.167968,6.371094,7.964843,6.972657c1.804688.601562.804688-4.9375.804688-6.472657c0-1.527343.128906-7.539062,0-7.9375s-1.730469.871094-1.730469.871094" transform="translate(0 0.919899)" fill="#55bba4"/><path d="M116.367188,169.65625c.121093-.367188.59375-.507812.882812-.230469c2.074219,1.953125,7.792969,4.890625,8.117188,5.9375.25.804688.796874,6.722657.066406,6.925781-.742188.195313-10.769532-6.75-10.640625-7.382812.160156-.839844,1.101562-3.75,1.574219-5.25" transform="translate(0 0.919899)" fill="#55bba4"/><path d="M184.964844,186.613281c-1.257813,1.933594-9.65625,8.257813-10.527344,9.324219-.863281,1.0625.007812,7.582031-.277344,10.140625c3.332032-.808594,10.414063-6.640625,10.878906-8.910156.472657-2.269531-.074218-10.554688-.074218-10.554688" transform="translate(0 0.919899)" fill="#55bba4"/><path d="M185.390625,176.167969c-.460937.5-7.851563,6.703125-10.933594,8.15625-1.324219.621093-.296875,10.261719-.296875,10.261719s9.121094-7.363282,10.5-9.566407c1.378906-2.195312.851563-3.609375.980469-4.546875.140625-.933594-.25-4.304687-.25-4.304687" transform="translate(0 0.919899)" fill="#55bba4"/><path d="M169.890625,157.546875c1.785156,1.210937,1.796875,4.703125,2.101563,6.109375.296874,1.398438-.703126,7.707031-.703126,7.707031s-1,5-1.398437,5.601563c-.5.738281-13.648437-7.761719-14.917969-8.546875-1.066406-.660157-2.445312-.648438-2.945312-2.039063-.824219-2.285156-.386719-5.082031-.285156-7.492187.082031-2.117188-.046876-6.628907,1.980468-7.953125c1.816406-1.183594,4.257813.851562,5.878906,1.566406c2.796876,1.230469,5.59375,2.480469,8.296876,3.90625.675781.351562,1.351562.714844,1.992187,1.140625" transform="translate(0 0.919899)" fill="#55bba4"/><path d="M153.554688,171.019531c1.351562.3125,1.585937.769531,2.882812,1.386719c1.589844.769531,3.164062,1.59375,4.710938,2.445312c2.40625,1.335938,5.363281,2.714844,7.261718,4.761719.074219.082031.144532.164063.210938.25c1.527344,2.0625,1.601562,9.074219,1.464844,9.535157-.132813.464843-17.445313,1.835937-18.308594-.628907-.730469-2.09375-.167969-4.304687-.25-6.480469-.109375-3.140624-.285156-6.882812.046875-9.6875.027343-.222656,1.351562-1.738281,1.980469-1.582031" transform="translate(0 0.919899)" fill="#55bba4"/><path d="M170.128906,193.734375c1.09375,3.203125.492188,11.34375-.839844,12.472656-1.335937,1.136719-15.34375,1.082031-16.808593,1.019531-1.472657-.066406-1.378907-7.085937-1.398438-9.355468-.027343-2.265625-.183593-6.128906.6875-6.460938.859375-.335937,7.183594-.277344,9.109375.453125c1.9375.738281,9.25,1.871094,9.25,1.871094" transform="translate(0 0.919899)" fill="#55bba4"/><path d="M170.128906,209.871094c-.3125,4.945312-3.394531,45.339844-15.488281,48.179687-1.140625.269531-2.34375,1.492188-2.6875.824219-.90625-2.136719-.898437-44.992188-.898437-46.863281s2.863281-2.054688,4.324218-2.460938c1.472656-.398437,13.335938-.742187,14.039063-.207031.710937.527344.710937.527344.710937.527344" fill="#55bba4"/><path d="M185.09375,200.261719c-.074219-.1875-.324219-.222657-.460938-.074219-5.640624,5.890625-9.585937,7.675781-10.675781,8.554688-1.039062.835937-1.335937,19.140624-2.539062,23.679687-.539063,2.046875-1.574219,4.074219-.667969,4.515625c1.195312.574219,4.363281-.878906,5.269531-1.859375l10.742188-11.730469c0,0-.242188-19.578125-1.667969-23.085937" transform="translate(0 0.919899)" fill="#55bba4"/><path d="M175.890625,159.453125c4.535156,3.863281,6.546875,5.714844,7.039063,6.566406.542968.953125-6.167969,6.371094-7.972657,6.972657-1.796875.601562-.796875-4.9375-.796875-6.472657c0-1.527343-.140625-7.539062,0-7.9375.128906-.398437,1.730469.871094,1.730469.871094" transform="translate(0 0.919899)" fill="#55bba4"/><path d="M183.519531,169.65625c-.121093-.367188-.589843-.507812-.886719-.230469-2.074218,1.953125-7.796874,4.890625-8.113281,5.9375-.257812.804688-.796875,6.722657-.0625,6.925781.730469.195313,10.765625-6.75,10.636719-7.382812-.164062-.839844-1.101562-3.75-1.574219-5.25" transform="translate(0 0.919899)" fill="#55bba4"/><path d="M188.160156,146.636719c-2.796875,3.308593-6.964844,5.621093-9.363281,6.84375-1.222656.621093-1.339844,2.972656-.339844,3.269531s9.210938-2.628906,10.203125-4.464844c1-1.839844,1.304688-4.535156,1.109375-5.648437-.203125-1.089844-1.609375,0-1.609375,0" transform="translate(0 0.919899)" fill="#55bba4"/><path d="M190.957031,154.398438c.035157.222656.035157.445312-.019531.65625-.933594,3.453124-4.222656,9.242187-5.546875,9.898437-.796875.398437-4.5-3.601563-5-3.898437-.5-.304688-1.59375-1.804688-1.59375-1.804688s7.945313-2.871094,9.464844-4.25c.527343-.492188,2.257812-3.1875,2.257812-3.1875l.4375,2.585938" transform="translate(0 0.919899)" fill="#55bba4"/><path d="M190.402344,160.75c0,0,.703125,5.304688-1.207032,9.304688-1.898437,4-2.691406,4.5-2.691406,4.5s-2.410156-6.398438-1.410156-7.398438s5.308594-6.40625,5.308594-6.40625" transform="translate(0 0.919899)" fill="#55bba4"/></g></svg>
