<svg id="eiNQORYJLuT1" xmlns="http://www.w3.org/2000/svg" xmlns:xlink="http://www.w3.org/1999/xlink" viewBox="0 0 300 525.000007" shape-rendering="geometricPrecision" text-rendering="geometricPrecision"><g display="none" clip-path="url(#eiNQORYJLuT5)"><g><path d="M268.453125,268.125c-.667969-.703125-4.234375-3-5.105469-3.90625-.859375-.898438-.859375-1.59375-3.265625-5.730469-2.398437-4.140625-11.355469-7.808593-12.355469-8-1-.207031-2.953124-2.660156-3.441406-4.011719-2.066406-5.566406-6.910156-24.613281-9.011718-41.621093-2.101563-17.003907-10.011719-26.613281-14.304688-32.511719.203125-16.316406-3.546875-19.707031-5.605469-24.917969.195313-4.101562,1.621094-13.011719.660157-24.734375-.761719-9.277344-12.371094-20.351562-19.578126-21.351562-4.65625-.648438-7.230468.460937-13.265624,0-6.039063-.472656-17.34375-10.613282-17.949219-11.808594-.601563-1.203125-1.859375-11.203125-.933594-12.472656.933594-1.265625,1.074219-.0625,2.007813-2.664063.9375-2.605469.429687-7.28125.429687-7.28125s.25-1,.414063-.3125c.101562.398438.304687.8125.75,1.054688.703124.359375,1.574218-1.324219,2.492187-2.917969c2.433594-4.25,4.722656-12.34375,1.351563-13.359375-.621094-.1875-1.5,1.398437-1.5,1.398437c0-.796874.796874-8.207031-.40625-12.808593-.957032-3.683594-4.558594-7.371094-7.398438-9.601563-3.472656-2.722656-10.558594-2.917968-12.316406-2.933594-.039063,0-.101563,0-.15625,0-.058594,0-.121094,0-.160156,0-1.757813.015626-8.84375.210938-12.316407,2.933594-2.839843,2.230469-6.441406,5.917969-7.40625,9.601563-1.195312,4.601562-.398437,12.011719-.398437,12.808593c0,0-.886719-1.585937-1.5-1.398437-3.371094,1.015625-1.082032,9.109375,1.351562,13.359375.917969,1.59375,1.789063,3.277344,2.480469,2.917969.457031-.242188.660156-.65625.75-1.054688.179687-.6875.429687.3125.429687.3125s-.511718,4.675781.425782,7.28125c.933594,2.601563,1.0625,1.398438,2,2.664063.933594,1.269531-.335938,11.269531-.9375,12.472656-.59375,1.195312-11.898438,11.335938-17.933594,11.808594-6.039062.460937-8.613281-.648438-13.28125,0-7.203125,1-18.804688,12.074218-19.566406,21.351562-.960938,11.722656.464844,20.632813.660156,24.734375-2.058594,5.210938-5.808594,8.601563-5.605469,24.917969-4.304687,5.898438-12.203125,15.507812-14.304687,32.511719-2.101563,17.007812-6.945313,36.054687-9,41.621093-.507813,1.351563-2.453125,3.804688-3.453125,4.011719-1,.191407-9.957031,3.859375-12.363281,8-2.398438,4.136719-2.398438,4.832031-3.269532,5.730469-.859375.90625-4.433594,3.203125-5.101562,3.90625-.667969.707031-1.128906,3.335938.742187,3.769531c1.859375.4375,6.859375-.648437,8.480469-4.304687c1.953125-1.277344,2.425781-1.296875,2.425781-1.296875s.660157,2,.566407,3.601562c-.101563,1.601563-3.390626,6.5-4.695313,9.398438-1.296875,2.910156-5.195313,8.261719-4.148437,9.761719c1.054687,1.5,2.554687,1.25,3.203124.75s4.351563-6.777344,5.074219-7.882813c.824219-1.074219,3.925781-5.074219,4.484375-5.675781-.890625,3.648437-2.324218,7.957031-2.890625,9.648437-.566406,1.707031-3.214843,6.824219-3.230469,8.574219-.039062,2.4375,1.648438,2.972656,2.765626,2.242188c3.132812-2.074219,4.890624-7.371094,5.667968-8.90625c1.316406-2.613282,2.730469-7.242188,4.066406-9.371094-.335937,2.601562-1.140624,6.183594-1.585937,9.222656-.210937,1.527344-1.5625,9.433594.160156,9.953125c2.648438.796875,3-2.25,4.046875-5.851563c1.054688-3.613281,2.351563-12.511718,3.15625-13.863281c1.195313.25,1.019532,1.101563,1.25,3.5.296875,3.160157.046875,11.011719,2.351563,11.011719c2.296875,0,2.464843-7.910156,2.761719-12.714844.304687-4.796875,1.867187-7.332031,2.675781-11.269531.796875-3.933594,2.65625-9.398437,2.527343-14-.054687-2.140625-.964843-4.039063.871094-10.878906c1.128906-4.195313,15.277344-31.882813,16.859375-34.484375c1.734375-2.816406,4.945313-11.203125,5.75-17.613282.796875-6.398437.667969-6.667968,1.066407-9.730468.398437-3.074219,1.640624-4.425782,3.203124-6.269532c1.804688-2.140624,4.398438-8.472656,6.410157-17.113281.925781-.035156,1.210937-.804687,1.664062-.5c0,0,1.195313,13.675781,3.667969,17.472657c2.464844,3.808593,1.730469,5.207031,2.269531,6.605468.527344,1.40625.257813,10.535156-.140625,15.609375s-1.5625,22.742188-2.664062,26.945313c-1.105469,4.207031-2.464844,6.003906-3.539063,11.34375-1.066406,5.335937-2.769531,12.316406-3.128906,18.871094c0,0-2.242187,15.558593-2.039063,21.417968.222657,6.269532-1.398437,48.921875,7.601563,59.328125-.433594,2.027344-.027344,5.566407.039063,6.640625.066406,1.0625-2.539063,12.140625-1.539063,19.539063c1,7.40625.601563,4.839843.398437,6.683593-.191406,1.851563-8.203124,26.667969,3.808594,72.355469.710938,2.734375,1,8.242188,1,11.140625s-1,8.613282-1,11.304688c0,2.707031-.101562,4,.5,5.707031.601563,1.703125.5,4.5.101563,6.601563s-8.511719,7.804687-9.207031,10.90625c-.703126,3.101562-1.601563,4.898437-.304688,5.808593c1.304688.898438,1.910156,0,1.910156,0s-.5,1.5.292969,2.292969c.796875.808594,3.207031.707031,3.207031.707031s.792969.191407,1.292969,1c.5.796875,2.605469,1.203125,3.105469.691407.5-.5.804687-.453126,1.203125.222656.210937.371094,1.101562.808594,1.878906,1.121094.742187.304687,1.582031.242187,2.257813-.175782l1.566406-.960937c0,0,1.296875,1.5,1.601562,1.601562.296875.101563,3.398438,1.203125,4.195313,0c.804687-1.203125,4.601562-4.101562,4.40625-7.5-.203125-3.410156-.5-5.308593-.398438-6.511719.09375-1.195312.398438-3,.898438-4.796874.5-1.804688,1.101562-2.601563.703125-6.007813-.40625-3.398437-.101563-3.601563-.101563-4.203125c0-.59375.5-2.195312.601563-4.003906.09375-1.792969-1.304688-5.5-1.304688-5.5s-.601562-3.601563-.898437-8.5c-.304688-4.90625.695312-24.214844,2.703125-30.621094c2-6.398438,3.167968-8.40625,3.398437-10c2.398438-16.910156-1.5-35.113281-2.203125-41.558594-.398437-3.667968,1.203125-4.074218,2.203125-7.769531c1-3.703125,1.796875-12.90625.707031-17.011719-.816406-3.007812,2.792969-14.007812,3.292969-17.40625.5-3.40625,7.371094-29.714844,7.742188-34.417968.363281-4.703126.835937-19.289063-.40625-21.492188.59375,0,2.277343,1.167969,2.992187,1.378906.035156.019532.082032.027344.148438.027344.0625,0,.109375-.007812.144531-.027344.714844-.210937,2.398437-1.378906,2.984375-1.378906-1.234375,2.203125-.761719,16.789062-.398438,21.492188.371094,4.703124,7.242188,31.011718,7.742188,34.417968.5,3.398438,4.101562,14.398438,3.292969,17.40625-1.089844,4.105469-.292969,13.308594.707031,17.011719c1,3.695313,2.601562,4.101563,2.203125,7.769531-.703125,6.445313-4.601563,24.648438-2.203125,41.558594.222656,1.59375,1.398438,3.601562,3.398438,10c2,6.40625,3,25.714844,2.703124,30.621094-.296874,4.898437-.898437,8.5-.898437,8.5s-1.40625,3.707031-1.304687,5.5c.101562,1.808594.601562,3.410156.601562,4.003906c0,.601562.304688.804688-.101562,4.203125-.398438,3.40625.203124,4.203125.703124,6.007813.5,1.796874.804688,3.601562.898438,4.796874.101562,1.203126-.195312,3.101563-.398438,6.511719-.203124,3.398438,3.601563,6.296875,4.398438,7.5.804688,1.203125,3.90625.101563,4.203125,0c.304687-.101562,1.601563-1.601562,1.601563-1.601562l1.554687.960937c.6875.417969,1.527344.480469,2.269531.175782.777344-.3125,1.667969-.75,1.878906-1.121094.398438-.675782.703126-.722656,1.203126-.222656.5.511718,2.605468.105468,3.105468-.691407.5-.808593,1.292969-1,1.292969-1s2.398437.101563,3.207031-.707031c.796875-.792969.296875-2.292969.296875-2.292969s.601563.898438,1.90625,0c1.296875-.910156.398438-2.707031-.304687-5.808593-.707032-3.101563-8.796875-8.804688-9.207032-10.90625-.398437-2.101563-.5-4.898438.101563-6.601563.601563-1.707031.5-3,.5-5.707031c0-2.691406-1-8.40625-1-11.304688s.28125-8.40625,1-11.140625c12.003906-45.6875,4-70.503906,3.808594-72.355469-.203125-1.84375-.601563.722657.398437-6.683593c1-7.398438-1.601562-18.476563-1.539062-19.539063.066406-1.074218.464844-4.613281.039062-6.640625c9-10.40625,7.378906-53.058593,7.601563-59.328125.203125-5.859375-2.039063-21.417968-2.039063-21.417968-.371094-6.554688-2.0625-13.535157-3.128906-18.871094-1.066406-5.339844-2.433594-7.136719-3.535156-11.34375-1.105469-4.203125-2.269532-21.871094-2.667969-26.945313-.40625-5.074219-.667969-14.203125-.140625-15.609375.539062-1.398437-.195312-2.796875,2.269531-6.605468c2.472657-3.796876,3.667969-17.472657,3.667969-17.472657.453125-.304687.738281.464844,1.664062.5c2,8.640625,4.605469,14.972657,6.410157,17.113281c1.554687,1.84375,2.796875,3.195313,3.203125,6.269532.398437,3.0625.257812,3.332031,1.066406,9.730468.804688,6.410157,4.027344,14.796876,5.738281,17.613282c1.59375,2.601562,15.742188,30.289062,16.871094,34.484375c1.835937,6.839843.925781,8.738281.871094,10.878906-.136719,4.601563,1.734375,10.066406,2.527343,14c.808594,3.9375,2.371094,6.472656,2.667969,11.269531.304688,4.804688.472657,12.714844,2.777344,12.714844c2.296875,0,2.046875-7.851562,2.34375-11.011719.230469-2.398437.054687-3.25,1.25-3.5.804687,1.351563,2.101563,10.25,3.15625,13.863281c1.046875,3.601563,1.398437,6.648438,4.046875,5.851563c1.722656-.519531.371094-8.425781.160156-9.953125-.4375-3.039062-1.261718-6.621094-1.59375-9.222656c1.332032,2.128906,2.757813,6.757812,4.074219,9.371094.777344,1.535156,2.527344,6.832031,5.667969,8.90625c1.117187.730468,2.804687.195312,2.765625-2.242188-.027344-1.75-2.664063-6.867188-3.230469-8.574219-.566406-1.691406-2-6-2.890625-9.648437.558594.601562,3.660156,4.601562,4.484375,5.675781.722656,1.105469,4.425781,7.382813,5.074219,7.882813s2.148437.75,3.203125-.75c1.046875-1.5-2.851563-6.851563-4.15625-9.761719-1.296875-2.898438-4.585938-7.796875-4.6875-9.398438-.089844-1.601562.566406-3.601562.566406-3.601562s.472656.019531,2.425781,1.296875c1.621094,3.65625,6.621094,4.742187,8.480469,4.304687c1.871094-.433593,1.410156-3.0625.734375-3.769531" fill="#d9d9d9"/></g><clipPath id="eiNQORYJLuT5"><path d="M30.882812,27.4375h238.160157v471.730469h-238.160157v-471.730469Zm0,0"/></clipPath></g><g transform="translate(.000001 0)"><path d="M133.0625,94.886719c-2.265625,2.730469-10.871094,8.386719-13.269531,9.136719-.398438,1.546874,12.207031,2.964843,13.808593,1.695312s1.601563-9.4375,1.332032-10.832031c-.269532-1.398438-1.871094,0-1.871094,0" fill="#c32e67"/><path d="M166.816406,94.886719c2.269532,2.730469,10.871094,8.386719,13.277344,9.136719.398438,1.546874-12.203125,2.964843-13.804688,1.695312s-1.601562-9.4375-1.335937-10.832031c.261719-1.398438,1.863281,0,1.863281,0" fill="#c32e67"/></g></svg>
